G04 #@! TF.GenerationSoftware,KiCad,Pcbnew,(5.1.6)-1*
G04 #@! TF.CreationDate,2020-12-31T15:43:45+09:00*
G04 #@! TF.ProjectId,AA_discharger,41415f64-6973-4636-9861-726765722e6b,rev?*
G04 #@! TF.SameCoordinates,Original*
G04 #@! TF.FileFunction,Soldermask,Bot*
G04 #@! TF.FilePolarity,Negative*
%FSLAX46Y46*%
G04 Gerber Fmt 4.6, Leading zero omitted, Abs format (unit mm)*
G04 Created by KiCad (PCBNEW (5.1.6)-1) date 2020-12-31 15:43:45*
%MOMM*%
%LPD*%
G01*
G04 APERTURE LIST*
%ADD10C,2.500000*%
%ADD11R,3.600000X3.600000*%
%ADD12R,2.100000X2.100000*%
%ADD13C,2.100000*%
%ADD14O,2.500000X2.500000*%
%ADD15C,1.900000*%
%ADD16R,1.900000X1.900000*%
%ADD17O,1.700000X1.700000*%
%ADD18R,1.700000X1.700000*%
G04 APERTURE END LIST*
D10*
X129000000Y-138750000D03*
X110000000Y-138750000D03*
X71000000Y-138750000D03*
X90000000Y-138750000D03*
G36*
G01*
X107900000Y-59200000D02*
X109700000Y-59200000D01*
G75*
G02*
X110600000Y-60100000I0J-900000D01*
G01*
X110600000Y-61900000D01*
G75*
G02*
X109700000Y-62800000I-900000J0D01*
G01*
X107900000Y-62800000D01*
G75*
G02*
X107000000Y-61900000I0J900000D01*
G01*
X107000000Y-60100000D01*
G75*
G02*
X107900000Y-59200000I900000J0D01*
G01*
G37*
G36*
G01*
X112475000Y-56450000D02*
X114525000Y-56450000D01*
G75*
G02*
X115300000Y-57225000I0J-775000D01*
G01*
X115300000Y-58775000D01*
G75*
G02*
X114525000Y-59550000I-775000J0D01*
G01*
X112475000Y-59550000D01*
G75*
G02*
X111700000Y-58775000I0J775000D01*
G01*
X111700000Y-57225000D01*
G75*
G02*
X112475000Y-56450000I775000J0D01*
G01*
G37*
D11*
X113500000Y-64000000D03*
D12*
X71000000Y-94000000D03*
D13*
X71000000Y-145990000D03*
D14*
X145000000Y-114320000D03*
D10*
X145000000Y-94000000D03*
D14*
X145000000Y-140320000D03*
D10*
X145000000Y-120000000D03*
D14*
X55000000Y-119680000D03*
D10*
X55000000Y-140000000D03*
D14*
X55000000Y-93680000D03*
D10*
X55000000Y-114000000D03*
D12*
X129000000Y-94000000D03*
D13*
X129000000Y-145990000D03*
D12*
X110000000Y-94000000D03*
D13*
X110000000Y-145990000D03*
D12*
X90000000Y-94000000D03*
D13*
X90000000Y-145990000D03*
D15*
X130540000Y-85000000D03*
D16*
X128000000Y-85000000D03*
D15*
X111540000Y-85000000D03*
D16*
X109000000Y-85000000D03*
D15*
X91540000Y-85000000D03*
D16*
X89000000Y-85000000D03*
D15*
X72540000Y-85000000D03*
D16*
X70000000Y-85000000D03*
D17*
X61440000Y-70240000D03*
X61440000Y-55000000D03*
X97000000Y-70240000D03*
X63980000Y-55000000D03*
X94460000Y-70240000D03*
X66520000Y-55000000D03*
X91920000Y-70240000D03*
X69060000Y-55000000D03*
X89380000Y-70240000D03*
X71600000Y-55000000D03*
X86840000Y-70240000D03*
X74140000Y-55000000D03*
X84300000Y-70240000D03*
X76680000Y-55000000D03*
X81760000Y-70240000D03*
X79220000Y-55000000D03*
X79220000Y-70240000D03*
X81760000Y-55000000D03*
X76680000Y-70240000D03*
X84300000Y-55000000D03*
X74140000Y-70240000D03*
X86840000Y-55000000D03*
X71600000Y-70240000D03*
X89380000Y-55000000D03*
X69060000Y-70240000D03*
X91920000Y-55000000D03*
X66520000Y-70240000D03*
X94460000Y-55000000D03*
X63980000Y-70240000D03*
D18*
X97000000Y-55000000D03*
M02*
