G04 #@! TF.GenerationSoftware,KiCad,Pcbnew,(5.1.6)-1*
G04 #@! TF.CreationDate,2020-12-31T15:43:45+09:00*
G04 #@! TF.ProjectId,AA_discharger,41415f64-6973-4636-9861-726765722e6b,rev?*
G04 #@! TF.SameCoordinates,Original*
G04 #@! TF.FileFunction,Paste,Top*
G04 #@! TF.FilePolarity,Positive*
%FSLAX46Y46*%
G04 Gerber Fmt 4.6, Leading zero omitted, Abs format (unit mm)*
G04 Created by KiCad (PCBNEW (5.1.6)-1) date 2020-12-31 15:43:45*
%MOMM*%
%LPD*%
G01*
G04 APERTURE LIST*
%ADD10R,2.750000X3.050000*%
%ADD11R,1.200000X2.200000*%
%ADD12C,2.640000*%
G04 APERTURE END LIST*
G36*
G01*
X94925000Y-73775000D02*
X94925000Y-75025000D01*
G75*
G02*
X94675000Y-75275000I-250000J0D01*
G01*
X93750000Y-75275000D01*
G75*
G02*
X93500000Y-75025000I0J250000D01*
G01*
X93500000Y-73775000D01*
G75*
G02*
X93750000Y-73525000I250000J0D01*
G01*
X94675000Y-73525000D01*
G75*
G02*
X94925000Y-73775000I0J-250000D01*
G01*
G37*
G36*
G01*
X97900000Y-73775000D02*
X97900000Y-75025000D01*
G75*
G02*
X97650000Y-75275000I-250000J0D01*
G01*
X96725000Y-75275000D01*
G75*
G02*
X96475000Y-75025000I0J250000D01*
G01*
X96475000Y-73775000D01*
G75*
G02*
X96725000Y-73525000I250000J0D01*
G01*
X97650000Y-73525000D01*
G75*
G02*
X97900000Y-73775000I0J-250000D01*
G01*
G37*
D10*
X64525000Y-84575000D03*
X61475000Y-81225000D03*
X61475000Y-84575000D03*
X64525000Y-81225000D03*
D11*
X65280000Y-89200000D03*
X60720000Y-89200000D03*
D10*
X122525000Y-84575000D03*
X119475000Y-81225000D03*
X119475000Y-84575000D03*
X122525000Y-81225000D03*
D11*
X123280000Y-89200000D03*
X118720000Y-89200000D03*
D10*
X103525000Y-84575000D03*
X100475000Y-81225000D03*
X100475000Y-84575000D03*
X103525000Y-81225000D03*
D11*
X104280000Y-89200000D03*
X99720000Y-89200000D03*
D10*
X83525000Y-84575000D03*
X80475000Y-81225000D03*
X80475000Y-84575000D03*
X83525000Y-81225000D03*
D11*
X84280000Y-89200000D03*
X79720000Y-89200000D03*
D12*
X65005000Y-143230000D03*
X76995000Y-96750000D03*
G36*
G01*
X128225000Y-78375000D02*
X128225000Y-79625000D01*
G75*
G02*
X127975000Y-79875000I-250000J0D01*
G01*
X127050000Y-79875000D01*
G75*
G02*
X126800000Y-79625000I0J250000D01*
G01*
X126800000Y-78375000D01*
G75*
G02*
X127050000Y-78125000I250000J0D01*
G01*
X127975000Y-78125000D01*
G75*
G02*
X128225000Y-78375000I0J-250000D01*
G01*
G37*
G36*
G01*
X131200000Y-78375000D02*
X131200000Y-79625000D01*
G75*
G02*
X130950000Y-79875000I-250000J0D01*
G01*
X130025000Y-79875000D01*
G75*
G02*
X129775000Y-79625000I0J250000D01*
G01*
X129775000Y-78375000D01*
G75*
G02*
X130025000Y-78125000I250000J0D01*
G01*
X130950000Y-78125000D01*
G75*
G02*
X131200000Y-78375000I0J-250000D01*
G01*
G37*
G36*
G01*
X109225000Y-78375000D02*
X109225000Y-79625000D01*
G75*
G02*
X108975000Y-79875000I-250000J0D01*
G01*
X108050000Y-79875000D01*
G75*
G02*
X107800000Y-79625000I0J250000D01*
G01*
X107800000Y-78375000D01*
G75*
G02*
X108050000Y-78125000I250000J0D01*
G01*
X108975000Y-78125000D01*
G75*
G02*
X109225000Y-78375000I0J-250000D01*
G01*
G37*
G36*
G01*
X112200000Y-78375000D02*
X112200000Y-79625000D01*
G75*
G02*
X111950000Y-79875000I-250000J0D01*
G01*
X111025000Y-79875000D01*
G75*
G02*
X110775000Y-79625000I0J250000D01*
G01*
X110775000Y-78375000D01*
G75*
G02*
X111025000Y-78125000I250000J0D01*
G01*
X111950000Y-78125000D01*
G75*
G02*
X112200000Y-78375000I0J-250000D01*
G01*
G37*
G36*
G01*
X89225000Y-78375000D02*
X89225000Y-79625000D01*
G75*
G02*
X88975000Y-79875000I-250000J0D01*
G01*
X88050000Y-79875000D01*
G75*
G02*
X87800000Y-79625000I0J250000D01*
G01*
X87800000Y-78375000D01*
G75*
G02*
X88050000Y-78125000I250000J0D01*
G01*
X88975000Y-78125000D01*
G75*
G02*
X89225000Y-78375000I0J-250000D01*
G01*
G37*
G36*
G01*
X92200000Y-78375000D02*
X92200000Y-79625000D01*
G75*
G02*
X91950000Y-79875000I-250000J0D01*
G01*
X91025000Y-79875000D01*
G75*
G02*
X90775000Y-79625000I0J250000D01*
G01*
X90775000Y-78375000D01*
G75*
G02*
X91025000Y-78125000I250000J0D01*
G01*
X91950000Y-78125000D01*
G75*
G02*
X92200000Y-78375000I0J-250000D01*
G01*
G37*
G36*
G01*
X70225000Y-78375000D02*
X70225000Y-79625000D01*
G75*
G02*
X69975000Y-79875000I-250000J0D01*
G01*
X69050000Y-79875000D01*
G75*
G02*
X68800000Y-79625000I0J250000D01*
G01*
X68800000Y-78375000D01*
G75*
G02*
X69050000Y-78125000I250000J0D01*
G01*
X69975000Y-78125000D01*
G75*
G02*
X70225000Y-78375000I0J-250000D01*
G01*
G37*
G36*
G01*
X73200000Y-78375000D02*
X73200000Y-79625000D01*
G75*
G02*
X72950000Y-79875000I-250000J0D01*
G01*
X72025000Y-79875000D01*
G75*
G02*
X71775000Y-79625000I0J250000D01*
G01*
X71775000Y-78375000D01*
G75*
G02*
X72025000Y-78125000I250000J0D01*
G01*
X72950000Y-78125000D01*
G75*
G02*
X73200000Y-78375000I0J-250000D01*
G01*
G37*
G36*
G01*
X84625000Y-61725000D02*
X83375000Y-61725000D01*
G75*
G02*
X83125000Y-61475000I0J250000D01*
G01*
X83125000Y-60550000D01*
G75*
G02*
X83375000Y-60300000I250000J0D01*
G01*
X84625000Y-60300000D01*
G75*
G02*
X84875000Y-60550000I0J-250000D01*
G01*
X84875000Y-61475000D01*
G75*
G02*
X84625000Y-61725000I-250000J0D01*
G01*
G37*
G36*
G01*
X84625000Y-64700000D02*
X83375000Y-64700000D01*
G75*
G02*
X83125000Y-64450000I0J250000D01*
G01*
X83125000Y-63525000D01*
G75*
G02*
X83375000Y-63275000I250000J0D01*
G01*
X84625000Y-63275000D01*
G75*
G02*
X84875000Y-63525000I0J-250000D01*
G01*
X84875000Y-64450000D01*
G75*
G02*
X84625000Y-64700000I-250000J0D01*
G01*
G37*
G36*
G01*
X117775000Y-75625000D02*
X117775000Y-74375000D01*
G75*
G02*
X118025000Y-74125000I250000J0D01*
G01*
X118950000Y-74125000D01*
G75*
G02*
X119200000Y-74375000I0J-250000D01*
G01*
X119200000Y-75625000D01*
G75*
G02*
X118950000Y-75875000I-250000J0D01*
G01*
X118025000Y-75875000D01*
G75*
G02*
X117775000Y-75625000I0J250000D01*
G01*
G37*
G36*
G01*
X114800000Y-75625000D02*
X114800000Y-74375000D01*
G75*
G02*
X115050000Y-74125000I250000J0D01*
G01*
X115975000Y-74125000D01*
G75*
G02*
X116225000Y-74375000I0J-250000D01*
G01*
X116225000Y-75625000D01*
G75*
G02*
X115975000Y-75875000I-250000J0D01*
G01*
X115050000Y-75875000D01*
G75*
G02*
X114800000Y-75625000I0J250000D01*
G01*
G37*
G36*
G01*
X95625000Y-61725000D02*
X94375000Y-61725000D01*
G75*
G02*
X94125000Y-61475000I0J250000D01*
G01*
X94125000Y-60550000D01*
G75*
G02*
X94375000Y-60300000I250000J0D01*
G01*
X95625000Y-60300000D01*
G75*
G02*
X95875000Y-60550000I0J-250000D01*
G01*
X95875000Y-61475000D01*
G75*
G02*
X95625000Y-61725000I-250000J0D01*
G01*
G37*
G36*
G01*
X95625000Y-64700000D02*
X94375000Y-64700000D01*
G75*
G02*
X94125000Y-64450000I0J250000D01*
G01*
X94125000Y-63525000D01*
G75*
G02*
X94375000Y-63275000I250000J0D01*
G01*
X95625000Y-63275000D01*
G75*
G02*
X95875000Y-63525000I0J-250000D01*
G01*
X95875000Y-64450000D01*
G75*
G02*
X95625000Y-64700000I-250000J0D01*
G01*
G37*
G36*
G01*
X79625000Y-61725000D02*
X78375000Y-61725000D01*
G75*
G02*
X78125000Y-61475000I0J250000D01*
G01*
X78125000Y-60550000D01*
G75*
G02*
X78375000Y-60300000I250000J0D01*
G01*
X79625000Y-60300000D01*
G75*
G02*
X79875000Y-60550000I0J-250000D01*
G01*
X79875000Y-61475000D01*
G75*
G02*
X79625000Y-61725000I-250000J0D01*
G01*
G37*
G36*
G01*
X79625000Y-64700000D02*
X78375000Y-64700000D01*
G75*
G02*
X78125000Y-64450000I0J250000D01*
G01*
X78125000Y-63525000D01*
G75*
G02*
X78375000Y-63275000I250000J0D01*
G01*
X79625000Y-63275000D01*
G75*
G02*
X79875000Y-63525000I0J-250000D01*
G01*
X79875000Y-64450000D01*
G75*
G02*
X79625000Y-64700000I-250000J0D01*
G01*
G37*
G36*
G01*
X103275000Y-75625000D02*
X103275000Y-74375000D01*
G75*
G02*
X103525000Y-74125000I250000J0D01*
G01*
X104450000Y-74125000D01*
G75*
G02*
X104700000Y-74375000I0J-250000D01*
G01*
X104700000Y-75625000D01*
G75*
G02*
X104450000Y-75875000I-250000J0D01*
G01*
X103525000Y-75875000D01*
G75*
G02*
X103275000Y-75625000I0J250000D01*
G01*
G37*
G36*
G01*
X100300000Y-75625000D02*
X100300000Y-74375000D01*
G75*
G02*
X100550000Y-74125000I250000J0D01*
G01*
X101475000Y-74125000D01*
G75*
G02*
X101725000Y-74375000I0J-250000D01*
G01*
X101725000Y-75625000D01*
G75*
G02*
X101475000Y-75875000I-250000J0D01*
G01*
X100550000Y-75875000D01*
G75*
G02*
X100300000Y-75625000I0J250000D01*
G01*
G37*
G36*
G01*
X90625000Y-61725000D02*
X89375000Y-61725000D01*
G75*
G02*
X89125000Y-61475000I0J250000D01*
G01*
X89125000Y-60550000D01*
G75*
G02*
X89375000Y-60300000I250000J0D01*
G01*
X90625000Y-60300000D01*
G75*
G02*
X90875000Y-60550000I0J-250000D01*
G01*
X90875000Y-61475000D01*
G75*
G02*
X90625000Y-61725000I-250000J0D01*
G01*
G37*
G36*
G01*
X90625000Y-64700000D02*
X89375000Y-64700000D01*
G75*
G02*
X89125000Y-64450000I0J250000D01*
G01*
X89125000Y-63525000D01*
G75*
G02*
X89375000Y-63275000I250000J0D01*
G01*
X90625000Y-63275000D01*
G75*
G02*
X90875000Y-63525000I0J-250000D01*
G01*
X90875000Y-64450000D01*
G75*
G02*
X90625000Y-64700000I-250000J0D01*
G01*
G37*
G36*
G01*
X74625000Y-61725000D02*
X73375000Y-61725000D01*
G75*
G02*
X73125000Y-61475000I0J250000D01*
G01*
X73125000Y-60550000D01*
G75*
G02*
X73375000Y-60300000I250000J0D01*
G01*
X74625000Y-60300000D01*
G75*
G02*
X74875000Y-60550000I0J-250000D01*
G01*
X74875000Y-61475000D01*
G75*
G02*
X74625000Y-61725000I-250000J0D01*
G01*
G37*
G36*
G01*
X74625000Y-64700000D02*
X73375000Y-64700000D01*
G75*
G02*
X73125000Y-64450000I0J250000D01*
G01*
X73125000Y-63525000D01*
G75*
G02*
X73375000Y-63275000I250000J0D01*
G01*
X74625000Y-63275000D01*
G75*
G02*
X74875000Y-63525000I0J-250000D01*
G01*
X74875000Y-64450000D01*
G75*
G02*
X74625000Y-64700000I-250000J0D01*
G01*
G37*
G36*
G01*
X63287500Y-76625000D02*
X63287500Y-75375000D01*
G75*
G02*
X63537500Y-75125000I250000J0D01*
G01*
X64462500Y-75125000D01*
G75*
G02*
X64712500Y-75375000I0J-250000D01*
G01*
X64712500Y-76625000D01*
G75*
G02*
X64462500Y-76875000I-250000J0D01*
G01*
X63537500Y-76875000D01*
G75*
G02*
X63287500Y-76625000I0J250000D01*
G01*
G37*
G36*
G01*
X60312500Y-76625000D02*
X60312500Y-75375000D01*
G75*
G02*
X60562500Y-75125000I250000J0D01*
G01*
X61487500Y-75125000D01*
G75*
G02*
X61737500Y-75375000I0J-250000D01*
G01*
X61737500Y-76625000D01*
G75*
G02*
X61487500Y-76875000I-250000J0D01*
G01*
X60562500Y-76875000D01*
G75*
G02*
X60312500Y-76625000I0J250000D01*
G01*
G37*
G36*
G01*
X63625000Y-61725000D02*
X62375000Y-61725000D01*
G75*
G02*
X62125000Y-61475000I0J250000D01*
G01*
X62125000Y-60550000D01*
G75*
G02*
X62375000Y-60300000I250000J0D01*
G01*
X63625000Y-60300000D01*
G75*
G02*
X63875000Y-60550000I0J-250000D01*
G01*
X63875000Y-61475000D01*
G75*
G02*
X63625000Y-61725000I-250000J0D01*
G01*
G37*
G36*
G01*
X63625000Y-64700000D02*
X62375000Y-64700000D01*
G75*
G02*
X62125000Y-64450000I0J250000D01*
G01*
X62125000Y-63525000D01*
G75*
G02*
X62375000Y-63275000I250000J0D01*
G01*
X63625000Y-63275000D01*
G75*
G02*
X63875000Y-63525000I0J-250000D01*
G01*
X63875000Y-64450000D01*
G75*
G02*
X63625000Y-64700000I-250000J0D01*
G01*
G37*
G36*
G01*
X69625000Y-61725000D02*
X68375000Y-61725000D01*
G75*
G02*
X68125000Y-61475000I0J250000D01*
G01*
X68125000Y-60550000D01*
G75*
G02*
X68375000Y-60300000I250000J0D01*
G01*
X69625000Y-60300000D01*
G75*
G02*
X69875000Y-60550000I0J-250000D01*
G01*
X69875000Y-61475000D01*
G75*
G02*
X69625000Y-61725000I-250000J0D01*
G01*
G37*
G36*
G01*
X69625000Y-64700000D02*
X68375000Y-64700000D01*
G75*
G02*
X68125000Y-64450000I0J250000D01*
G01*
X68125000Y-63525000D01*
G75*
G02*
X68375000Y-63275000I250000J0D01*
G01*
X69625000Y-63275000D01*
G75*
G02*
X69875000Y-63525000I0J-250000D01*
G01*
X69875000Y-64450000D01*
G75*
G02*
X69625000Y-64700000I-250000J0D01*
G01*
G37*
G36*
G01*
X56775000Y-76625000D02*
X56775000Y-75375000D01*
G75*
G02*
X57025000Y-75125000I250000J0D01*
G01*
X57950000Y-75125000D01*
G75*
G02*
X58200000Y-75375000I0J-250000D01*
G01*
X58200000Y-76625000D01*
G75*
G02*
X57950000Y-76875000I-250000J0D01*
G01*
X57025000Y-76875000D01*
G75*
G02*
X56775000Y-76625000I0J250000D01*
G01*
G37*
G36*
G01*
X53800000Y-76625000D02*
X53800000Y-75375000D01*
G75*
G02*
X54050000Y-75125000I250000J0D01*
G01*
X54975000Y-75125000D01*
G75*
G02*
X55225000Y-75375000I0J-250000D01*
G01*
X55225000Y-76625000D01*
G75*
G02*
X54975000Y-76875000I-250000J0D01*
G01*
X54050000Y-76875000D01*
G75*
G02*
X53800000Y-76625000I0J250000D01*
G01*
G37*
G36*
G01*
X58625000Y-61725000D02*
X57375000Y-61725000D01*
G75*
G02*
X57125000Y-61475000I0J250000D01*
G01*
X57125000Y-60550000D01*
G75*
G02*
X57375000Y-60300000I250000J0D01*
G01*
X58625000Y-60300000D01*
G75*
G02*
X58875000Y-60550000I0J-250000D01*
G01*
X58875000Y-61475000D01*
G75*
G02*
X58625000Y-61725000I-250000J0D01*
G01*
G37*
G36*
G01*
X58625000Y-64700000D02*
X57375000Y-64700000D01*
G75*
G02*
X57125000Y-64450000I0J250000D01*
G01*
X57125000Y-63525000D01*
G75*
G02*
X57375000Y-63275000I250000J0D01*
G01*
X58625000Y-63275000D01*
G75*
G02*
X58875000Y-63525000I0J-250000D01*
G01*
X58875000Y-64450000D01*
G75*
G02*
X58625000Y-64700000I-250000J0D01*
G01*
G37*
X123005000Y-143230000D03*
X134995000Y-96750000D03*
X104005000Y-143230000D03*
X115995000Y-96750000D03*
X84005000Y-143230000D03*
X95995000Y-96750000D03*
M02*
