G04 #@! TF.GenerationSoftware,KiCad,Pcbnew,(5.1.6)-1*
G04 #@! TF.CreationDate,2020-12-31T15:43:45+09:00*
G04 #@! TF.ProjectId,AA_discharger,41415f64-6973-4636-9861-726765722e6b,rev?*
G04 #@! TF.SameCoordinates,Original*
G04 #@! TF.FileFunction,Soldermask,Top*
G04 #@! TF.FilePolarity,Negative*
%FSLAX46Y46*%
G04 Gerber Fmt 4.6, Leading zero omitted, Abs format (unit mm)*
G04 Created by KiCad (PCBNEW (5.1.6)-1) date 2020-12-31 15:43:45*
%MOMM*%
%LPD*%
G01*
G04 APERTURE LIST*
%ADD10C,0.500000*%
%ADD11C,2.500000*%
%ADD12R,3.600000X3.600000*%
%ADD13R,5.900000X7.100000*%
%ADD14R,1.300000X2.300000*%
%ADD15R,2.100000X2.100000*%
%ADD16C,2.100000*%
%ADD17C,2.740000*%
%ADD18O,2.500000X2.500000*%
%ADD19C,1.900000*%
%ADD20R,1.900000X1.900000*%
%ADD21O,1.700000X1.700000*%
%ADD22R,1.700000X1.700000*%
G04 APERTURE END LIST*
D10*
X129357142Y-56964285D02*
X129357142Y-60964285D01*
X128642857Y-54678571D02*
X127928571Y-58964285D01*
X129785714Y-58964285D01*
X133071428Y-59250000D02*
X134500000Y-59250000D01*
X132785714Y-60964285D02*
X133785714Y-54964285D01*
X134785714Y-60964285D01*
X135642857Y-59250000D02*
X137071428Y-59250000D01*
X135357142Y-60964285D02*
X136357142Y-54964285D01*
X137357142Y-60964285D01*
X122714285Y-70464285D02*
X122714285Y-64464285D01*
X122714285Y-70178571D02*
X122428571Y-70464285D01*
X121857142Y-70464285D01*
X121571428Y-70178571D01*
X121428571Y-69892857D01*
X121285714Y-69321428D01*
X121285714Y-67607142D01*
X121428571Y-67035714D01*
X121571428Y-66750000D01*
X121857142Y-66464285D01*
X122428571Y-66464285D01*
X122714285Y-66750000D01*
X124142857Y-70464285D02*
X124142857Y-66464285D01*
X124142857Y-64464285D02*
X124000000Y-64750000D01*
X124142857Y-65035714D01*
X124285714Y-64750000D01*
X124142857Y-64464285D01*
X124142857Y-65035714D01*
X125428571Y-70178571D02*
X125714285Y-70464285D01*
X126285714Y-70464285D01*
X126571428Y-70178571D01*
X126714285Y-69607142D01*
X126714285Y-69321428D01*
X126571428Y-68750000D01*
X126285714Y-68464285D01*
X125857142Y-68464285D01*
X125571428Y-68178571D01*
X125428571Y-67607142D01*
X125428571Y-67321428D01*
X125571428Y-66750000D01*
X125857142Y-66464285D01*
X126285714Y-66464285D01*
X126571428Y-66750000D01*
X129285714Y-70178571D02*
X129000000Y-70464285D01*
X128428571Y-70464285D01*
X128142857Y-70178571D01*
X128000000Y-69892857D01*
X127857142Y-69321428D01*
X127857142Y-67607142D01*
X128000000Y-67035714D01*
X128142857Y-66750000D01*
X128428571Y-66464285D01*
X129000000Y-66464285D01*
X129285714Y-66750000D01*
X130571428Y-70464285D02*
X130571428Y-64464285D01*
X131857142Y-70464285D02*
X131857142Y-67321428D01*
X131714285Y-66750000D01*
X131428571Y-66464285D01*
X131000000Y-66464285D01*
X130714285Y-66750000D01*
X130571428Y-67035714D01*
X134571428Y-70464285D02*
X134571428Y-67321428D01*
X134428571Y-66750000D01*
X134142857Y-66464285D01*
X133571428Y-66464285D01*
X133285714Y-66750000D01*
X134571428Y-70178571D02*
X134285714Y-70464285D01*
X133571428Y-70464285D01*
X133285714Y-70178571D01*
X133142857Y-69607142D01*
X133142857Y-69035714D01*
X133285714Y-68464285D01*
X133571428Y-68178571D01*
X134285714Y-68178571D01*
X134571428Y-67892857D01*
X136000000Y-70464285D02*
X136000000Y-66464285D01*
X136000000Y-67607142D02*
X136142857Y-67035714D01*
X136285714Y-66750000D01*
X136571428Y-66464285D01*
X136857142Y-66464285D01*
X139142857Y-66464285D02*
X139142857Y-71321428D01*
X139000000Y-71892857D01*
X138857142Y-72178571D01*
X138571428Y-72464285D01*
X138142857Y-72464285D01*
X137857142Y-72178571D01*
X139142857Y-70178571D02*
X138857142Y-70464285D01*
X138285714Y-70464285D01*
X138000000Y-70178571D01*
X137857142Y-69892857D01*
X137714285Y-69321428D01*
X137714285Y-67607142D01*
X137857142Y-67035714D01*
X138000000Y-66750000D01*
X138285714Y-66464285D01*
X138857142Y-66464285D01*
X139142857Y-66750000D01*
X141714285Y-70178571D02*
X141428571Y-70464285D01*
X140857142Y-70464285D01*
X140571428Y-70178571D01*
X140428571Y-69607142D01*
X140428571Y-67321428D01*
X140571428Y-66750000D01*
X140857142Y-66464285D01*
X141428571Y-66464285D01*
X141714285Y-66750000D01*
X141857142Y-67321428D01*
X141857142Y-67892857D01*
X140428571Y-68464285D01*
X143142857Y-70464285D02*
X143142857Y-66464285D01*
X143142857Y-67607142D02*
X143285714Y-67035714D01*
X143428571Y-66750000D01*
X143714285Y-66464285D01*
X144000000Y-66464285D01*
G36*
G01*
X94975000Y-73742544D02*
X94975000Y-75057456D01*
G75*
G02*
X94707456Y-75325000I-267544J0D01*
G01*
X93717544Y-75325000D01*
G75*
G02*
X93450000Y-75057456I0J267544D01*
G01*
X93450000Y-73742544D01*
G75*
G02*
X93717544Y-73475000I267544J0D01*
G01*
X94707456Y-73475000D01*
G75*
G02*
X94975000Y-73742544I0J-267544D01*
G01*
G37*
G36*
G01*
X97950000Y-73742544D02*
X97950000Y-75057456D01*
G75*
G02*
X97682456Y-75325000I-267544J0D01*
G01*
X96692544Y-75325000D01*
G75*
G02*
X96425000Y-75057456I0J267544D01*
G01*
X96425000Y-73742544D01*
G75*
G02*
X96692544Y-73475000I267544J0D01*
G01*
X97682456Y-73475000D01*
G75*
G02*
X97950000Y-73742544I0J-267544D01*
G01*
G37*
D11*
X129000000Y-138750000D03*
X110000000Y-138750000D03*
X71000000Y-138750000D03*
X90000000Y-138750000D03*
G36*
G01*
X107900000Y-59200000D02*
X109700000Y-59200000D01*
G75*
G02*
X110600000Y-60100000I0J-900000D01*
G01*
X110600000Y-61900000D01*
G75*
G02*
X109700000Y-62800000I-900000J0D01*
G01*
X107900000Y-62800000D01*
G75*
G02*
X107000000Y-61900000I0J900000D01*
G01*
X107000000Y-60100000D01*
G75*
G02*
X107900000Y-59200000I900000J0D01*
G01*
G37*
G36*
G01*
X112475000Y-56450000D02*
X114525000Y-56450000D01*
G75*
G02*
X115300000Y-57225000I0J-775000D01*
G01*
X115300000Y-58775000D01*
G75*
G02*
X114525000Y-59550000I-775000J0D01*
G01*
X112475000Y-59550000D01*
G75*
G02*
X111700000Y-58775000I0J775000D01*
G01*
X111700000Y-57225000D01*
G75*
G02*
X112475000Y-56450000I775000J0D01*
G01*
G37*
D12*
X113500000Y-64000000D03*
D13*
X63000000Y-82900000D03*
D14*
X65280000Y-89200000D03*
X60720000Y-89200000D03*
D13*
X121000000Y-82900000D03*
D14*
X123280000Y-89200000D03*
X118720000Y-89200000D03*
D13*
X102000000Y-82900000D03*
D14*
X104280000Y-89200000D03*
X99720000Y-89200000D03*
D13*
X82000000Y-82900000D03*
D14*
X84280000Y-89200000D03*
X79720000Y-89200000D03*
D15*
X71000000Y-94000000D03*
D16*
X71000000Y-145990000D03*
D17*
X65005000Y-143230000D03*
X76995000Y-96750000D03*
G36*
G01*
X128275000Y-78342544D02*
X128275000Y-79657456D01*
G75*
G02*
X128007456Y-79925000I-267544J0D01*
G01*
X127017544Y-79925000D01*
G75*
G02*
X126750000Y-79657456I0J267544D01*
G01*
X126750000Y-78342544D01*
G75*
G02*
X127017544Y-78075000I267544J0D01*
G01*
X128007456Y-78075000D01*
G75*
G02*
X128275000Y-78342544I0J-267544D01*
G01*
G37*
G36*
G01*
X131250000Y-78342544D02*
X131250000Y-79657456D01*
G75*
G02*
X130982456Y-79925000I-267544J0D01*
G01*
X129992544Y-79925000D01*
G75*
G02*
X129725000Y-79657456I0J267544D01*
G01*
X129725000Y-78342544D01*
G75*
G02*
X129992544Y-78075000I267544J0D01*
G01*
X130982456Y-78075000D01*
G75*
G02*
X131250000Y-78342544I0J-267544D01*
G01*
G37*
G36*
G01*
X109275000Y-78342544D02*
X109275000Y-79657456D01*
G75*
G02*
X109007456Y-79925000I-267544J0D01*
G01*
X108017544Y-79925000D01*
G75*
G02*
X107750000Y-79657456I0J267544D01*
G01*
X107750000Y-78342544D01*
G75*
G02*
X108017544Y-78075000I267544J0D01*
G01*
X109007456Y-78075000D01*
G75*
G02*
X109275000Y-78342544I0J-267544D01*
G01*
G37*
G36*
G01*
X112250000Y-78342544D02*
X112250000Y-79657456D01*
G75*
G02*
X111982456Y-79925000I-267544J0D01*
G01*
X110992544Y-79925000D01*
G75*
G02*
X110725000Y-79657456I0J267544D01*
G01*
X110725000Y-78342544D01*
G75*
G02*
X110992544Y-78075000I267544J0D01*
G01*
X111982456Y-78075000D01*
G75*
G02*
X112250000Y-78342544I0J-267544D01*
G01*
G37*
G36*
G01*
X89275000Y-78342544D02*
X89275000Y-79657456D01*
G75*
G02*
X89007456Y-79925000I-267544J0D01*
G01*
X88017544Y-79925000D01*
G75*
G02*
X87750000Y-79657456I0J267544D01*
G01*
X87750000Y-78342544D01*
G75*
G02*
X88017544Y-78075000I267544J0D01*
G01*
X89007456Y-78075000D01*
G75*
G02*
X89275000Y-78342544I0J-267544D01*
G01*
G37*
G36*
G01*
X92250000Y-78342544D02*
X92250000Y-79657456D01*
G75*
G02*
X91982456Y-79925000I-267544J0D01*
G01*
X90992544Y-79925000D01*
G75*
G02*
X90725000Y-79657456I0J267544D01*
G01*
X90725000Y-78342544D01*
G75*
G02*
X90992544Y-78075000I267544J0D01*
G01*
X91982456Y-78075000D01*
G75*
G02*
X92250000Y-78342544I0J-267544D01*
G01*
G37*
G36*
G01*
X70275000Y-78342544D02*
X70275000Y-79657456D01*
G75*
G02*
X70007456Y-79925000I-267544J0D01*
G01*
X69017544Y-79925000D01*
G75*
G02*
X68750000Y-79657456I0J267544D01*
G01*
X68750000Y-78342544D01*
G75*
G02*
X69017544Y-78075000I267544J0D01*
G01*
X70007456Y-78075000D01*
G75*
G02*
X70275000Y-78342544I0J-267544D01*
G01*
G37*
G36*
G01*
X73250000Y-78342544D02*
X73250000Y-79657456D01*
G75*
G02*
X72982456Y-79925000I-267544J0D01*
G01*
X71992544Y-79925000D01*
G75*
G02*
X71725000Y-79657456I0J267544D01*
G01*
X71725000Y-78342544D01*
G75*
G02*
X71992544Y-78075000I267544J0D01*
G01*
X72982456Y-78075000D01*
G75*
G02*
X73250000Y-78342544I0J-267544D01*
G01*
G37*
G36*
G01*
X84657456Y-61775000D02*
X83342544Y-61775000D01*
G75*
G02*
X83075000Y-61507456I0J267544D01*
G01*
X83075000Y-60517544D01*
G75*
G02*
X83342544Y-60250000I267544J0D01*
G01*
X84657456Y-60250000D01*
G75*
G02*
X84925000Y-60517544I0J-267544D01*
G01*
X84925000Y-61507456D01*
G75*
G02*
X84657456Y-61775000I-267544J0D01*
G01*
G37*
G36*
G01*
X84657456Y-64750000D02*
X83342544Y-64750000D01*
G75*
G02*
X83075000Y-64482456I0J267544D01*
G01*
X83075000Y-63492544D01*
G75*
G02*
X83342544Y-63225000I267544J0D01*
G01*
X84657456Y-63225000D01*
G75*
G02*
X84925000Y-63492544I0J-267544D01*
G01*
X84925000Y-64482456D01*
G75*
G02*
X84657456Y-64750000I-267544J0D01*
G01*
G37*
D18*
X145000000Y-114320000D03*
D11*
X145000000Y-94000000D03*
G36*
G01*
X117725000Y-75657456D02*
X117725000Y-74342544D01*
G75*
G02*
X117992544Y-74075000I267544J0D01*
G01*
X118982456Y-74075000D01*
G75*
G02*
X119250000Y-74342544I0J-267544D01*
G01*
X119250000Y-75657456D01*
G75*
G02*
X118982456Y-75925000I-267544J0D01*
G01*
X117992544Y-75925000D01*
G75*
G02*
X117725000Y-75657456I0J267544D01*
G01*
G37*
G36*
G01*
X114750000Y-75657456D02*
X114750000Y-74342544D01*
G75*
G02*
X115017544Y-74075000I267544J0D01*
G01*
X116007456Y-74075000D01*
G75*
G02*
X116275000Y-74342544I0J-267544D01*
G01*
X116275000Y-75657456D01*
G75*
G02*
X116007456Y-75925000I-267544J0D01*
G01*
X115017544Y-75925000D01*
G75*
G02*
X114750000Y-75657456I0J267544D01*
G01*
G37*
G36*
G01*
X95657456Y-61775000D02*
X94342544Y-61775000D01*
G75*
G02*
X94075000Y-61507456I0J267544D01*
G01*
X94075000Y-60517544D01*
G75*
G02*
X94342544Y-60250000I267544J0D01*
G01*
X95657456Y-60250000D01*
G75*
G02*
X95925000Y-60517544I0J-267544D01*
G01*
X95925000Y-61507456D01*
G75*
G02*
X95657456Y-61775000I-267544J0D01*
G01*
G37*
G36*
G01*
X95657456Y-64750000D02*
X94342544Y-64750000D01*
G75*
G02*
X94075000Y-64482456I0J267544D01*
G01*
X94075000Y-63492544D01*
G75*
G02*
X94342544Y-63225000I267544J0D01*
G01*
X95657456Y-63225000D01*
G75*
G02*
X95925000Y-63492544I0J-267544D01*
G01*
X95925000Y-64482456D01*
G75*
G02*
X95657456Y-64750000I-267544J0D01*
G01*
G37*
G36*
G01*
X79657456Y-61775000D02*
X78342544Y-61775000D01*
G75*
G02*
X78075000Y-61507456I0J267544D01*
G01*
X78075000Y-60517544D01*
G75*
G02*
X78342544Y-60250000I267544J0D01*
G01*
X79657456Y-60250000D01*
G75*
G02*
X79925000Y-60517544I0J-267544D01*
G01*
X79925000Y-61507456D01*
G75*
G02*
X79657456Y-61775000I-267544J0D01*
G01*
G37*
G36*
G01*
X79657456Y-64750000D02*
X78342544Y-64750000D01*
G75*
G02*
X78075000Y-64482456I0J267544D01*
G01*
X78075000Y-63492544D01*
G75*
G02*
X78342544Y-63225000I267544J0D01*
G01*
X79657456Y-63225000D01*
G75*
G02*
X79925000Y-63492544I0J-267544D01*
G01*
X79925000Y-64482456D01*
G75*
G02*
X79657456Y-64750000I-267544J0D01*
G01*
G37*
D18*
X145000000Y-140320000D03*
D11*
X145000000Y-120000000D03*
G36*
G01*
X103225000Y-75657456D02*
X103225000Y-74342544D01*
G75*
G02*
X103492544Y-74075000I267544J0D01*
G01*
X104482456Y-74075000D01*
G75*
G02*
X104750000Y-74342544I0J-267544D01*
G01*
X104750000Y-75657456D01*
G75*
G02*
X104482456Y-75925000I-267544J0D01*
G01*
X103492544Y-75925000D01*
G75*
G02*
X103225000Y-75657456I0J267544D01*
G01*
G37*
G36*
G01*
X100250000Y-75657456D02*
X100250000Y-74342544D01*
G75*
G02*
X100517544Y-74075000I267544J0D01*
G01*
X101507456Y-74075000D01*
G75*
G02*
X101775000Y-74342544I0J-267544D01*
G01*
X101775000Y-75657456D01*
G75*
G02*
X101507456Y-75925000I-267544J0D01*
G01*
X100517544Y-75925000D01*
G75*
G02*
X100250000Y-75657456I0J267544D01*
G01*
G37*
G36*
G01*
X90657456Y-61775000D02*
X89342544Y-61775000D01*
G75*
G02*
X89075000Y-61507456I0J267544D01*
G01*
X89075000Y-60517544D01*
G75*
G02*
X89342544Y-60250000I267544J0D01*
G01*
X90657456Y-60250000D01*
G75*
G02*
X90925000Y-60517544I0J-267544D01*
G01*
X90925000Y-61507456D01*
G75*
G02*
X90657456Y-61775000I-267544J0D01*
G01*
G37*
G36*
G01*
X90657456Y-64750000D02*
X89342544Y-64750000D01*
G75*
G02*
X89075000Y-64482456I0J267544D01*
G01*
X89075000Y-63492544D01*
G75*
G02*
X89342544Y-63225000I267544J0D01*
G01*
X90657456Y-63225000D01*
G75*
G02*
X90925000Y-63492544I0J-267544D01*
G01*
X90925000Y-64482456D01*
G75*
G02*
X90657456Y-64750000I-267544J0D01*
G01*
G37*
G36*
G01*
X74657456Y-61775000D02*
X73342544Y-61775000D01*
G75*
G02*
X73075000Y-61507456I0J267544D01*
G01*
X73075000Y-60517544D01*
G75*
G02*
X73342544Y-60250000I267544J0D01*
G01*
X74657456Y-60250000D01*
G75*
G02*
X74925000Y-60517544I0J-267544D01*
G01*
X74925000Y-61507456D01*
G75*
G02*
X74657456Y-61775000I-267544J0D01*
G01*
G37*
G36*
G01*
X74657456Y-64750000D02*
X73342544Y-64750000D01*
G75*
G02*
X73075000Y-64482456I0J267544D01*
G01*
X73075000Y-63492544D01*
G75*
G02*
X73342544Y-63225000I267544J0D01*
G01*
X74657456Y-63225000D01*
G75*
G02*
X74925000Y-63492544I0J-267544D01*
G01*
X74925000Y-64482456D01*
G75*
G02*
X74657456Y-64750000I-267544J0D01*
G01*
G37*
D18*
X55000000Y-119680000D03*
D11*
X55000000Y-140000000D03*
G36*
G01*
X63237500Y-76657456D02*
X63237500Y-75342544D01*
G75*
G02*
X63505044Y-75075000I267544J0D01*
G01*
X64494956Y-75075000D01*
G75*
G02*
X64762500Y-75342544I0J-267544D01*
G01*
X64762500Y-76657456D01*
G75*
G02*
X64494956Y-76925000I-267544J0D01*
G01*
X63505044Y-76925000D01*
G75*
G02*
X63237500Y-76657456I0J267544D01*
G01*
G37*
G36*
G01*
X60262500Y-76657456D02*
X60262500Y-75342544D01*
G75*
G02*
X60530044Y-75075000I267544J0D01*
G01*
X61519956Y-75075000D01*
G75*
G02*
X61787500Y-75342544I0J-267544D01*
G01*
X61787500Y-76657456D01*
G75*
G02*
X61519956Y-76925000I-267544J0D01*
G01*
X60530044Y-76925000D01*
G75*
G02*
X60262500Y-76657456I0J267544D01*
G01*
G37*
G36*
G01*
X63657456Y-61775000D02*
X62342544Y-61775000D01*
G75*
G02*
X62075000Y-61507456I0J267544D01*
G01*
X62075000Y-60517544D01*
G75*
G02*
X62342544Y-60250000I267544J0D01*
G01*
X63657456Y-60250000D01*
G75*
G02*
X63925000Y-60517544I0J-267544D01*
G01*
X63925000Y-61507456D01*
G75*
G02*
X63657456Y-61775000I-267544J0D01*
G01*
G37*
G36*
G01*
X63657456Y-64750000D02*
X62342544Y-64750000D01*
G75*
G02*
X62075000Y-64482456I0J267544D01*
G01*
X62075000Y-63492544D01*
G75*
G02*
X62342544Y-63225000I267544J0D01*
G01*
X63657456Y-63225000D01*
G75*
G02*
X63925000Y-63492544I0J-267544D01*
G01*
X63925000Y-64482456D01*
G75*
G02*
X63657456Y-64750000I-267544J0D01*
G01*
G37*
G36*
G01*
X69657456Y-61775000D02*
X68342544Y-61775000D01*
G75*
G02*
X68075000Y-61507456I0J267544D01*
G01*
X68075000Y-60517544D01*
G75*
G02*
X68342544Y-60250000I267544J0D01*
G01*
X69657456Y-60250000D01*
G75*
G02*
X69925000Y-60517544I0J-267544D01*
G01*
X69925000Y-61507456D01*
G75*
G02*
X69657456Y-61775000I-267544J0D01*
G01*
G37*
G36*
G01*
X69657456Y-64750000D02*
X68342544Y-64750000D01*
G75*
G02*
X68075000Y-64482456I0J267544D01*
G01*
X68075000Y-63492544D01*
G75*
G02*
X68342544Y-63225000I267544J0D01*
G01*
X69657456Y-63225000D01*
G75*
G02*
X69925000Y-63492544I0J-267544D01*
G01*
X69925000Y-64482456D01*
G75*
G02*
X69657456Y-64750000I-267544J0D01*
G01*
G37*
D18*
X55000000Y-93680000D03*
D11*
X55000000Y-114000000D03*
G36*
G01*
X56725000Y-76657456D02*
X56725000Y-75342544D01*
G75*
G02*
X56992544Y-75075000I267544J0D01*
G01*
X57982456Y-75075000D01*
G75*
G02*
X58250000Y-75342544I0J-267544D01*
G01*
X58250000Y-76657456D01*
G75*
G02*
X57982456Y-76925000I-267544J0D01*
G01*
X56992544Y-76925000D01*
G75*
G02*
X56725000Y-76657456I0J267544D01*
G01*
G37*
G36*
G01*
X53750000Y-76657456D02*
X53750000Y-75342544D01*
G75*
G02*
X54017544Y-75075000I267544J0D01*
G01*
X55007456Y-75075000D01*
G75*
G02*
X55275000Y-75342544I0J-267544D01*
G01*
X55275000Y-76657456D01*
G75*
G02*
X55007456Y-76925000I-267544J0D01*
G01*
X54017544Y-76925000D01*
G75*
G02*
X53750000Y-76657456I0J267544D01*
G01*
G37*
G36*
G01*
X58657456Y-61775000D02*
X57342544Y-61775000D01*
G75*
G02*
X57075000Y-61507456I0J267544D01*
G01*
X57075000Y-60517544D01*
G75*
G02*
X57342544Y-60250000I267544J0D01*
G01*
X58657456Y-60250000D01*
G75*
G02*
X58925000Y-60517544I0J-267544D01*
G01*
X58925000Y-61507456D01*
G75*
G02*
X58657456Y-61775000I-267544J0D01*
G01*
G37*
G36*
G01*
X58657456Y-64750000D02*
X57342544Y-64750000D01*
G75*
G02*
X57075000Y-64482456I0J267544D01*
G01*
X57075000Y-63492544D01*
G75*
G02*
X57342544Y-63225000I267544J0D01*
G01*
X58657456Y-63225000D01*
G75*
G02*
X58925000Y-63492544I0J-267544D01*
G01*
X58925000Y-64482456D01*
G75*
G02*
X58657456Y-64750000I-267544J0D01*
G01*
G37*
D15*
X129000000Y-94000000D03*
D16*
X129000000Y-145990000D03*
D17*
X123005000Y-143230000D03*
X134995000Y-96750000D03*
D15*
X110000000Y-94000000D03*
D16*
X110000000Y-145990000D03*
D17*
X104005000Y-143230000D03*
X115995000Y-96750000D03*
D15*
X90000000Y-94000000D03*
D16*
X90000000Y-145990000D03*
D17*
X84005000Y-143230000D03*
X95995000Y-96750000D03*
D19*
X130540000Y-85000000D03*
D20*
X128000000Y-85000000D03*
D19*
X111540000Y-85000000D03*
D20*
X109000000Y-85000000D03*
D19*
X91540000Y-85000000D03*
D20*
X89000000Y-85000000D03*
D19*
X72540000Y-85000000D03*
D20*
X70000000Y-85000000D03*
D21*
X61440000Y-70240000D03*
X61440000Y-55000000D03*
X97000000Y-70240000D03*
X63980000Y-55000000D03*
X94460000Y-70240000D03*
X66520000Y-55000000D03*
X91920000Y-70240000D03*
X69060000Y-55000000D03*
X89380000Y-70240000D03*
X71600000Y-55000000D03*
X86840000Y-70240000D03*
X74140000Y-55000000D03*
X84300000Y-70240000D03*
X76680000Y-55000000D03*
X81760000Y-70240000D03*
X79220000Y-55000000D03*
X79220000Y-70240000D03*
X81760000Y-55000000D03*
X76680000Y-70240000D03*
X84300000Y-55000000D03*
X74140000Y-70240000D03*
X86840000Y-55000000D03*
X71600000Y-70240000D03*
X89380000Y-55000000D03*
X69060000Y-70240000D03*
X91920000Y-55000000D03*
X66520000Y-70240000D03*
X94460000Y-55000000D03*
X63980000Y-70240000D03*
D22*
X97000000Y-55000000D03*
M02*
