M48
; DRILL file {KiCad (5.1.6)-1} date 12/31/20 15:43:56
; FORMAT={-:-/ absolute / metric / decimal}
; #@! TF.CreationDate,2020-12-31T15:43:56+09:00
; #@! TF.GenerationSoftware,Kicad,Pcbnew,(5.1.6)-1
; #@! TF.FileFunction,Plated,1,2,PTH
FMAT,2
METRIC
T1C0.400
T2C0.800
T3C0.900
T4C1.000
T5C1.120
T6C1.200
%
G90
G05
T1
X57.5Y-79.5
X69.0Y-59.5
X70.0Y-77.0
X74.0Y-59.5
X76.0Y-66.5
X76.5Y-58.5
X79.0Y-59.5
X82.5Y-58.5
X84.0Y-59.5
X87.0Y-79.0
X88.0Y-58.5
X91.5Y-52.0
X105.75Y-75.0
X107.0Y-71.5
X107.0Y-79.0
X120.25Y-75.0
X126.0Y-79.0
T2
X85.5Y-94.5
X85.5Y-96.5
X105.5Y-94.5
X105.5Y-96.5
T3
X89.0Y-85.0
X91.54Y-85.0
X128.0Y-85.0
X130.54Y-85.0
X70.0Y-85.0
X72.54Y-85.0
X109.0Y-85.0
X111.54Y-85.0
T4
X61.44Y-55.0
X61.44Y-70.24
X63.98Y-55.0
X63.98Y-70.24
X66.52Y-55.0
X66.52Y-70.24
X69.06Y-55.0
X69.06Y-70.24
X71.6Y-55.0
X71.6Y-70.24
X74.14Y-55.0
X74.14Y-70.24
X76.68Y-55.0
X76.68Y-70.24
X79.22Y-55.0
X79.22Y-70.24
X81.76Y-55.0
X81.76Y-70.24
X84.3Y-55.0
X84.3Y-70.24
X86.84Y-55.0
X86.84Y-70.24
X89.38Y-55.0
X89.38Y-70.24
X91.92Y-55.0
X91.92Y-70.24
X94.46Y-55.0
X94.46Y-70.24
X97.0Y-55.0
X97.0Y-70.24
T5
X110.0Y-94.0
X110.0Y-145.99
X129.0Y-94.0
X129.0Y-145.99
X90.0Y-94.0
X90.0Y-145.99
X71.0Y-94.0
X71.0Y-145.99
T6
X55.0Y-119.68
X55.0Y-140.0
X110.0Y-138.75
X145.0Y-120.0
X145.0Y-140.32
X90.0Y-138.75
X145.0Y-94.0
X145.0Y-114.32
X71.0Y-138.75
X129.0Y-138.75
X55.0Y-93.68
X55.0Y-114.0
T4
G00X108.8Y-60.0
M15
G01X108.8Y-62.0
M16
G05
G00X114.5Y-58.0
M15
G01X112.5Y-58.0
M16
G05
G00X114.5Y-64.0
M15
G01X112.5Y-64.0
M16
G05
T0
M30
