G04 #@! TF.GenerationSoftware,KiCad,Pcbnew,(5.1.6)-1*
G04 #@! TF.CreationDate,2020-12-31T15:43:45+09:00*
G04 #@! TF.ProjectId,AA_discharger,41415f64-6973-4636-9861-726765722e6b,rev?*
G04 #@! TF.SameCoordinates,Original*
G04 #@! TF.FileFunction,Copper,L2,Bot*
G04 #@! TF.FilePolarity,Positive*
%FSLAX46Y46*%
G04 Gerber Fmt 4.6, Leading zero omitted, Abs format (unit mm)*
G04 Created by KiCad (PCBNEW (5.1.6)-1) date 2020-12-31 15:43:45*
%MOMM*%
%LPD*%
G01*
G04 APERTURE LIST*
G04 #@! TA.AperFunction,ComponentPad*
%ADD10C,2.400000*%
G04 #@! TD*
G04 #@! TA.AperFunction,ComponentPad*
%ADD11R,3.500000X3.500000*%
G04 #@! TD*
G04 #@! TA.AperFunction,ComponentPad*
%ADD12R,2.000000X2.000000*%
G04 #@! TD*
G04 #@! TA.AperFunction,ComponentPad*
%ADD13C,2.000000*%
G04 #@! TD*
G04 #@! TA.AperFunction,ComponentPad*
%ADD14O,2.400000X2.400000*%
G04 #@! TD*
G04 #@! TA.AperFunction,ComponentPad*
%ADD15C,1.800000*%
G04 #@! TD*
G04 #@! TA.AperFunction,ComponentPad*
%ADD16R,1.800000X1.800000*%
G04 #@! TD*
G04 #@! TA.AperFunction,ComponentPad*
%ADD17O,1.600000X1.600000*%
G04 #@! TD*
G04 #@! TA.AperFunction,ComponentPad*
%ADD18R,1.600000X1.600000*%
G04 #@! TD*
G04 #@! TA.AperFunction,ViaPad*
%ADD19C,0.800000*%
G04 #@! TD*
G04 #@! TA.AperFunction,ViaPad*
%ADD20C,1.200000*%
G04 #@! TD*
G04 #@! TA.AperFunction,Conductor*
%ADD21C,0.500000*%
G04 #@! TD*
G04 #@! TA.AperFunction,Conductor*
%ADD22C,1.000000*%
G04 #@! TD*
G04 #@! TA.AperFunction,Conductor*
%ADD23C,0.254000*%
G04 #@! TD*
G04 APERTURE END LIST*
D10*
X129000000Y-138750000D03*
X110000000Y-138750000D03*
X71000000Y-138750000D03*
X90000000Y-138750000D03*
G04 #@! TA.AperFunction,ComponentPad*
G36*
G01*
X107925000Y-59250000D02*
X109675000Y-59250000D01*
G75*
G02*
X110550000Y-60125000I0J-875000D01*
G01*
X110550000Y-61875000D01*
G75*
G02*
X109675000Y-62750000I-875000J0D01*
G01*
X107925000Y-62750000D01*
G75*
G02*
X107050000Y-61875000I0J875000D01*
G01*
X107050000Y-60125000D01*
G75*
G02*
X107925000Y-59250000I875000J0D01*
G01*
G37*
G04 #@! TD.AperFunction*
G04 #@! TA.AperFunction,ComponentPad*
G36*
G01*
X112500000Y-56500000D02*
X114500000Y-56500000D01*
G75*
G02*
X115250000Y-57250000I0J-750000D01*
G01*
X115250000Y-58750000D01*
G75*
G02*
X114500000Y-59500000I-750000J0D01*
G01*
X112500000Y-59500000D01*
G75*
G02*
X111750000Y-58750000I0J750000D01*
G01*
X111750000Y-57250000D01*
G75*
G02*
X112500000Y-56500000I750000J0D01*
G01*
G37*
G04 #@! TD.AperFunction*
D11*
X113500000Y-64000000D03*
D12*
X71000000Y-94000000D03*
D13*
X71000000Y-145990000D03*
D14*
X145000000Y-114320000D03*
D10*
X145000000Y-94000000D03*
D14*
X145000000Y-140320000D03*
D10*
X145000000Y-120000000D03*
D14*
X55000000Y-119680000D03*
D10*
X55000000Y-140000000D03*
D14*
X55000000Y-93680000D03*
D10*
X55000000Y-114000000D03*
D12*
X129000000Y-94000000D03*
D13*
X129000000Y-145990000D03*
D12*
X110000000Y-94000000D03*
D13*
X110000000Y-145990000D03*
D12*
X90000000Y-94000000D03*
D13*
X90000000Y-145990000D03*
D15*
X130540000Y-85000000D03*
D16*
X128000000Y-85000000D03*
D15*
X111540000Y-85000000D03*
D16*
X109000000Y-85000000D03*
D15*
X91540000Y-85000000D03*
D16*
X89000000Y-85000000D03*
D15*
X72540000Y-85000000D03*
D16*
X70000000Y-85000000D03*
D17*
X61440000Y-70240000D03*
X61440000Y-55000000D03*
X97000000Y-70240000D03*
X63980000Y-55000000D03*
X94460000Y-70240000D03*
X66520000Y-55000000D03*
X91920000Y-70240000D03*
X69060000Y-55000000D03*
X89380000Y-70240000D03*
X71600000Y-55000000D03*
X86840000Y-70240000D03*
X74140000Y-55000000D03*
X84300000Y-70240000D03*
X76680000Y-55000000D03*
X81760000Y-70240000D03*
X79220000Y-55000000D03*
X79220000Y-70240000D03*
X81760000Y-55000000D03*
X76680000Y-70240000D03*
X84300000Y-55000000D03*
X74140000Y-70240000D03*
X86840000Y-55000000D03*
X71600000Y-70240000D03*
X89380000Y-55000000D03*
X69060000Y-70240000D03*
X91920000Y-55000000D03*
X66520000Y-70240000D03*
X94460000Y-55000000D03*
X63980000Y-70240000D03*
D18*
X97000000Y-55000000D03*
D19*
X120250000Y-75000000D03*
X105750000Y-75000000D03*
X57500000Y-79500000D03*
X84000000Y-59500000D03*
X79000000Y-59500000D03*
X74000000Y-59500000D03*
X69000000Y-59500000D03*
D20*
X85500000Y-94500000D03*
X85500000Y-96500000D03*
X105500000Y-94500000D03*
X105500000Y-96500000D03*
D19*
X126000000Y-79000000D03*
X91500000Y-52000000D03*
X107000000Y-71500000D03*
X107000000Y-79000000D03*
X76000000Y-66500000D03*
X87000000Y-79000000D03*
X76500000Y-58500000D03*
X70000000Y-77000000D03*
X82500000Y-58500000D03*
X88000000Y-58500000D03*
D21*
X69060000Y-55000000D02*
X71060000Y-57000000D01*
X71060000Y-57000000D02*
X107750000Y-57000000D01*
X107750000Y-57000000D02*
X109500000Y-55250000D01*
X109500000Y-55250000D02*
X116750000Y-55250000D01*
X126000000Y-64500000D02*
X126000000Y-79000000D01*
X116750000Y-55250000D02*
X126000000Y-64500000D01*
X74600000Y-52000000D02*
X91500000Y-52000000D01*
X71600000Y-55000000D02*
X74600000Y-52000000D01*
X107000000Y-71500000D02*
X107000000Y-79000000D01*
X77930001Y-68430001D02*
X77930001Y-74180001D01*
X76000000Y-66500000D02*
X77930001Y-68430001D01*
X77930001Y-74180001D02*
X81500000Y-77750000D01*
X85750000Y-77750000D02*
X87000000Y-79000000D01*
X81500000Y-77750000D02*
X85750000Y-77750000D01*
X73000000Y-58500000D02*
X76500000Y-58500000D01*
X70310001Y-72689999D02*
X70310001Y-61189999D01*
X70000000Y-77000000D02*
X70000000Y-73000000D01*
X70310001Y-61189999D02*
X73000000Y-58500000D01*
X70000000Y-73000000D02*
X70310001Y-72689999D01*
X82500000Y-58500000D02*
X88000000Y-58500000D01*
X76680000Y-70240000D02*
X76680000Y-75680000D01*
X76680000Y-75680000D02*
X89000000Y-88000000D01*
X123000000Y-88000000D02*
X129000000Y-94000000D01*
X89000000Y-88000000D02*
X123000000Y-88000000D01*
X74140000Y-70240000D02*
X74140000Y-75640000D01*
X74140000Y-75640000D02*
X88500000Y-90000000D01*
X106000000Y-90000000D02*
X110000000Y-94000000D01*
X88500000Y-90000000D02*
X106000000Y-90000000D01*
X71600000Y-75600000D02*
X90000000Y-94000000D01*
X71600000Y-70240000D02*
X71600000Y-75600000D01*
X68260001Y-91260001D02*
X71000000Y-94000000D01*
X68260001Y-71039999D02*
X68260001Y-91260001D01*
X69060000Y-70240000D02*
X68260001Y-71039999D01*
D22*
X103240000Y-64000000D02*
X97000000Y-70240000D01*
X113500000Y-64000000D02*
X103240000Y-64000000D01*
D23*
G36*
X149340000Y-149340000D02*
G01*
X50660000Y-149340000D01*
X50660000Y-146786323D01*
X50830497Y-146786323D01*
X50830497Y-147213677D01*
X50913870Y-147632821D01*
X51077412Y-148027645D01*
X51314837Y-148382977D01*
X51617023Y-148685163D01*
X51972355Y-148922588D01*
X52367179Y-149086130D01*
X52786323Y-149169503D01*
X53213677Y-149169503D01*
X53632821Y-149086130D01*
X54027645Y-148922588D01*
X54382977Y-148685163D01*
X54685163Y-148382977D01*
X54922588Y-148027645D01*
X55086130Y-147632821D01*
X55169503Y-147213677D01*
X55169503Y-147086707D01*
X70717717Y-147086707D01*
X70860300Y-147084908D01*
X71000000Y-147224608D01*
X71137901Y-147086707D01*
X89717717Y-147086707D01*
X89860300Y-147084908D01*
X90000000Y-147224608D01*
X90137901Y-147086707D01*
X109717717Y-147086707D01*
X109860300Y-147084908D01*
X110000000Y-147224608D01*
X110137901Y-147086707D01*
X128717717Y-147086707D01*
X128860300Y-147084908D01*
X129000000Y-147224608D01*
X129143269Y-147081339D01*
X128860300Y-147084908D01*
X128856731Y-147081339D01*
X128717717Y-147086707D01*
X110137901Y-147086707D01*
X110143269Y-147081339D01*
X109860300Y-147084908D01*
X109856731Y-147081339D01*
X109717717Y-147086707D01*
X90137901Y-147086707D01*
X90143269Y-147081339D01*
X89860300Y-147084908D01*
X89856731Y-147081339D01*
X89717717Y-147086707D01*
X71137901Y-147086707D01*
X71143269Y-147081339D01*
X70860300Y-147084908D01*
X70856731Y-147081339D01*
X70717717Y-147086707D01*
X55169503Y-147086707D01*
X55169503Y-146786323D01*
X144830497Y-146786323D01*
X144830497Y-147213677D01*
X144913870Y-147632821D01*
X145077412Y-148027645D01*
X145314837Y-148382977D01*
X145617023Y-148685163D01*
X145972355Y-148922588D01*
X146367179Y-149086130D01*
X146786323Y-149169503D01*
X147213677Y-149169503D01*
X147632821Y-149086130D01*
X148027645Y-148922588D01*
X148382977Y-148685163D01*
X148685163Y-148382977D01*
X148922588Y-148027645D01*
X149086130Y-147632821D01*
X149169503Y-147213677D01*
X149169503Y-146786323D01*
X149086130Y-146367179D01*
X148922588Y-145972355D01*
X148685163Y-145617023D01*
X148382977Y-145314837D01*
X148027645Y-145077412D01*
X147632821Y-144913870D01*
X147213677Y-144830497D01*
X146786323Y-144830497D01*
X146367179Y-144913870D01*
X145972355Y-145077412D01*
X145617023Y-145314837D01*
X145314837Y-145617023D01*
X145077412Y-145972355D01*
X144913870Y-146367179D01*
X144830497Y-146786323D01*
X55169503Y-146786323D01*
X55086130Y-146367179D01*
X54929897Y-145990000D01*
X69765392Y-145990000D01*
X69908661Y-146133269D01*
X72091339Y-146133269D01*
X72096707Y-146272283D01*
X72094908Y-146129700D01*
X72091339Y-146133269D01*
X69908661Y-146133269D01*
X69905092Y-145850300D01*
X69765392Y-145990000D01*
X54929897Y-145990000D01*
X54922588Y-145972355D01*
X54745763Y-145707717D01*
X69903293Y-145707717D01*
X69905092Y-145850300D01*
X69908661Y-145846731D01*
X72091339Y-145846731D01*
X72094908Y-146129700D01*
X72234608Y-145990000D01*
X88765392Y-145990000D01*
X88908661Y-146133269D01*
X91091339Y-146133269D01*
X91096707Y-146272283D01*
X91094908Y-146129700D01*
X91091339Y-146133269D01*
X88908661Y-146133269D01*
X88905092Y-145850300D01*
X88765392Y-145990000D01*
X72234608Y-145990000D01*
X72091339Y-145846731D01*
X69908661Y-145846731D01*
X69903293Y-145707717D01*
X88903293Y-145707717D01*
X88905092Y-145850300D01*
X88908661Y-145846731D01*
X91091339Y-145846731D01*
X91094908Y-146129700D01*
X91234608Y-145990000D01*
X108765392Y-145990000D01*
X108908661Y-146133269D01*
X111091339Y-146133269D01*
X111096707Y-146272283D01*
X111094908Y-146129700D01*
X111091339Y-146133269D01*
X108908661Y-146133269D01*
X108905092Y-145850300D01*
X108765392Y-145990000D01*
X91234608Y-145990000D01*
X91091339Y-145846731D01*
X88908661Y-145846731D01*
X88903293Y-145707717D01*
X108903293Y-145707717D01*
X108905092Y-145850300D01*
X108908661Y-145846731D01*
X111091339Y-145846731D01*
X111094908Y-146129700D01*
X111234608Y-145990000D01*
X127765392Y-145990000D01*
X127908661Y-146133269D01*
X130091339Y-146133269D01*
X130096707Y-146272283D01*
X130094908Y-146129700D01*
X130091339Y-146133269D01*
X127908661Y-146133269D01*
X127905092Y-145850300D01*
X127765392Y-145990000D01*
X111234608Y-145990000D01*
X111091339Y-145846731D01*
X108908661Y-145846731D01*
X108903293Y-145707717D01*
X127903293Y-145707717D01*
X127905092Y-145850300D01*
X127908661Y-145846731D01*
X130091339Y-145846731D01*
X130094908Y-146129700D01*
X130234608Y-145990000D01*
X130091339Y-145846731D01*
X127908661Y-145846731D01*
X127903293Y-145707717D01*
X108903293Y-145707717D01*
X88903293Y-145707717D01*
X69903293Y-145707717D01*
X54745763Y-145707717D01*
X54685163Y-145617023D01*
X54382977Y-145314837D01*
X54027645Y-145077412D01*
X53632821Y-144913870D01*
X53556361Y-144898661D01*
X70856731Y-144898661D01*
X71139700Y-144895092D01*
X71143269Y-144898661D01*
X89856731Y-144898661D01*
X90139700Y-144895092D01*
X90143269Y-144898661D01*
X109856731Y-144898661D01*
X110139700Y-144895092D01*
X110143269Y-144898661D01*
X128856731Y-144898661D01*
X129139700Y-144895092D01*
X129143269Y-144898661D01*
X129282283Y-144893293D01*
X129139700Y-144895092D01*
X129000000Y-144755392D01*
X128856731Y-144898661D01*
X110143269Y-144898661D01*
X110282283Y-144893293D01*
X110139700Y-144895092D01*
X110000000Y-144755392D01*
X109856731Y-144898661D01*
X90143269Y-144898661D01*
X90282283Y-144893293D01*
X90139700Y-144895092D01*
X90000000Y-144755392D01*
X89856731Y-144898661D01*
X71143269Y-144898661D01*
X71282283Y-144893293D01*
X71139700Y-144895092D01*
X71000000Y-144755392D01*
X70856731Y-144898661D01*
X53556361Y-144898661D01*
X53213677Y-144830497D01*
X52786323Y-144830497D01*
X52367179Y-144913870D01*
X51972355Y-145077412D01*
X51617023Y-145314837D01*
X51314837Y-145617023D01*
X51077412Y-145972355D01*
X50913870Y-146367179D01*
X50830497Y-146786323D01*
X50660000Y-146786323D01*
X50660000Y-139819268D01*
X53165000Y-139819268D01*
X53165000Y-140180732D01*
X53235518Y-140535250D01*
X53373844Y-140869199D01*
X53574662Y-141169744D01*
X53830256Y-141425338D01*
X54130801Y-141626156D01*
X54464750Y-141764482D01*
X54819268Y-141835000D01*
X55180732Y-141835000D01*
X55535250Y-141764482D01*
X55869199Y-141626156D01*
X56169744Y-141425338D01*
X56425338Y-141169744D01*
X56626156Y-140869199D01*
X56764482Y-140535250D01*
X56835000Y-140180732D01*
X56835000Y-140021138D01*
X70597236Y-140021138D01*
X70762340Y-140029791D01*
X71000000Y-140267451D01*
X71237660Y-140029791D01*
X70597236Y-140021138D01*
X89597236Y-140021138D01*
X89762340Y-140029791D01*
X90000000Y-140267451D01*
X90237660Y-140029791D01*
X89597236Y-140021138D01*
X109597236Y-140021138D01*
X109762340Y-140029791D01*
X110000000Y-140267451D01*
X110237660Y-140029791D01*
X109597236Y-140021138D01*
X128597236Y-140021138D01*
X128762340Y-140029791D01*
X129000000Y-140267451D01*
X129128183Y-140139268D01*
X143165000Y-140139268D01*
X143165000Y-140500732D01*
X143235518Y-140855250D01*
X143373844Y-141189199D01*
X143574662Y-141489744D01*
X143830256Y-141745338D01*
X144130801Y-141946156D01*
X144464750Y-142084482D01*
X144819268Y-142155000D01*
X145180732Y-142155000D01*
X145535250Y-142084482D01*
X145869199Y-141946156D01*
X146169744Y-141745338D01*
X146425338Y-141489744D01*
X146626156Y-141189199D01*
X146764482Y-140855250D01*
X146835000Y-140500732D01*
X146835000Y-140139268D01*
X146764482Y-139784750D01*
X146626156Y-139450801D01*
X146425338Y-139150256D01*
X146169744Y-138894662D01*
X145869199Y-138693844D01*
X145535250Y-138555518D01*
X145180732Y-138485000D01*
X144819268Y-138485000D01*
X144464750Y-138555518D01*
X144130801Y-138693844D01*
X143830256Y-138894662D01*
X143574662Y-139150256D01*
X143373844Y-139450801D01*
X143235518Y-139784750D01*
X143165000Y-140139268D01*
X129128183Y-140139268D01*
X129237660Y-140029791D01*
X128597236Y-140021138D01*
X109597236Y-140021138D01*
X89597236Y-140021138D01*
X70597236Y-140021138D01*
X56835000Y-140021138D01*
X56835000Y-139819268D01*
X56764482Y-139464750D01*
X56635254Y-139152764D01*
X72271138Y-139152764D01*
X91271138Y-139152764D01*
X111271138Y-139152764D01*
X130271138Y-139152764D01*
X130279791Y-138987660D01*
X130517451Y-138750000D01*
X130279791Y-138512340D01*
X130271138Y-139152764D01*
X111271138Y-139152764D01*
X111279791Y-138987660D01*
X111517451Y-138750000D01*
X127482549Y-138750000D01*
X127720209Y-138987660D01*
X127728862Y-138347236D01*
X127720209Y-138512340D01*
X127482549Y-138750000D01*
X111517451Y-138750000D01*
X111279791Y-138512340D01*
X111271138Y-139152764D01*
X91271138Y-139152764D01*
X91279791Y-138987660D01*
X91517451Y-138750000D01*
X108482549Y-138750000D01*
X108720209Y-138987660D01*
X108728862Y-138347236D01*
X108720209Y-138512340D01*
X108482549Y-138750000D01*
X91517451Y-138750000D01*
X91279791Y-138512340D01*
X91271138Y-139152764D01*
X72271138Y-139152764D01*
X72279791Y-138987660D01*
X72517451Y-138750000D01*
X88482549Y-138750000D01*
X88720209Y-138987660D01*
X88728862Y-138347236D01*
X88720209Y-138512340D01*
X88482549Y-138750000D01*
X72517451Y-138750000D01*
X72279791Y-138512340D01*
X72271138Y-139152764D01*
X56635254Y-139152764D01*
X56626156Y-139130801D01*
X56425338Y-138830256D01*
X56345082Y-138750000D01*
X69482549Y-138750000D01*
X69720209Y-138987660D01*
X69728862Y-138347236D01*
X69720209Y-138512340D01*
X69482549Y-138750000D01*
X56345082Y-138750000D01*
X56169744Y-138574662D01*
X55869199Y-138373844D01*
X55535250Y-138235518D01*
X55180732Y-138165000D01*
X54819268Y-138165000D01*
X54464750Y-138235518D01*
X54130801Y-138373844D01*
X53830256Y-138574662D01*
X53574662Y-138830256D01*
X53373844Y-139130801D01*
X53235518Y-139464750D01*
X53165000Y-139819268D01*
X50660000Y-139819268D01*
X50660000Y-137470209D01*
X70762340Y-137470209D01*
X71402764Y-137478862D01*
X71237660Y-137470209D01*
X89762340Y-137470209D01*
X90402764Y-137478862D01*
X90237660Y-137470209D01*
X109762340Y-137470209D01*
X110402764Y-137478862D01*
X110237660Y-137470209D01*
X128762340Y-137470209D01*
X129402764Y-137478862D01*
X129237660Y-137470209D01*
X129000000Y-137232549D01*
X128762340Y-137470209D01*
X110237660Y-137470209D01*
X110000000Y-137232549D01*
X109762340Y-137470209D01*
X90237660Y-137470209D01*
X90000000Y-137232549D01*
X89762340Y-137470209D01*
X71237660Y-137470209D01*
X71000000Y-137232549D01*
X70762340Y-137470209D01*
X50660000Y-137470209D01*
X50660000Y-119499268D01*
X53165000Y-119499268D01*
X53165000Y-119860732D01*
X53235518Y-120215250D01*
X53373844Y-120549199D01*
X53574662Y-120849744D01*
X53830256Y-121105338D01*
X54130801Y-121306156D01*
X54464750Y-121444482D01*
X54819268Y-121515000D01*
X55180732Y-121515000D01*
X55535250Y-121444482D01*
X55869199Y-121306156D01*
X56169744Y-121105338D01*
X56425338Y-120849744D01*
X56626156Y-120549199D01*
X56764482Y-120215250D01*
X56835000Y-119860732D01*
X56835000Y-119819268D01*
X143165000Y-119819268D01*
X143165000Y-120180732D01*
X143235518Y-120535250D01*
X143373844Y-120869199D01*
X143574662Y-121169744D01*
X143830256Y-121425338D01*
X144130801Y-121626156D01*
X144464750Y-121764482D01*
X144819268Y-121835000D01*
X145180732Y-121835000D01*
X145535250Y-121764482D01*
X145869199Y-121626156D01*
X146169744Y-121425338D01*
X146425338Y-121169744D01*
X146626156Y-120869199D01*
X146764482Y-120535250D01*
X146835000Y-120180732D01*
X146835000Y-119819268D01*
X146764482Y-119464750D01*
X146626156Y-119130801D01*
X146425338Y-118830256D01*
X146169744Y-118574662D01*
X145869199Y-118373844D01*
X145535250Y-118235518D01*
X145180732Y-118165000D01*
X144819268Y-118165000D01*
X144464750Y-118235518D01*
X144130801Y-118373844D01*
X143830256Y-118574662D01*
X143574662Y-118830256D01*
X143373844Y-119130801D01*
X143235518Y-119464750D01*
X143165000Y-119819268D01*
X56835000Y-119819268D01*
X56835000Y-119499268D01*
X56764482Y-119144750D01*
X56626156Y-118810801D01*
X56425338Y-118510256D01*
X56169744Y-118254662D01*
X55869199Y-118053844D01*
X55535250Y-117915518D01*
X55180732Y-117845000D01*
X54819268Y-117845000D01*
X54464750Y-117915518D01*
X54130801Y-118053844D01*
X53830256Y-118254662D01*
X53574662Y-118510256D01*
X53373844Y-118810801D01*
X53235518Y-119144750D01*
X53165000Y-119499268D01*
X50660000Y-119499268D01*
X50660000Y-113819268D01*
X53165000Y-113819268D01*
X53165000Y-114180732D01*
X53235518Y-114535250D01*
X53373844Y-114869199D01*
X53574662Y-115169744D01*
X53830256Y-115425338D01*
X54130801Y-115626156D01*
X54464750Y-115764482D01*
X54819268Y-115835000D01*
X55180732Y-115835000D01*
X55535250Y-115764482D01*
X55869199Y-115626156D01*
X56169744Y-115425338D01*
X56425338Y-115169744D01*
X56626156Y-114869199D01*
X56764482Y-114535250D01*
X56835000Y-114180732D01*
X56835000Y-114139268D01*
X143165000Y-114139268D01*
X143165000Y-114500732D01*
X143235518Y-114855250D01*
X143373844Y-115189199D01*
X143574662Y-115489744D01*
X143830256Y-115745338D01*
X144130801Y-115946156D01*
X144464750Y-116084482D01*
X144819268Y-116155000D01*
X145180732Y-116155000D01*
X145535250Y-116084482D01*
X145869199Y-115946156D01*
X146169744Y-115745338D01*
X146425338Y-115489744D01*
X146626156Y-115189199D01*
X146764482Y-114855250D01*
X146835000Y-114500732D01*
X146835000Y-114139268D01*
X146764482Y-113784750D01*
X146626156Y-113450801D01*
X146425338Y-113150256D01*
X146169744Y-112894662D01*
X145869199Y-112693844D01*
X145535250Y-112555518D01*
X145180732Y-112485000D01*
X144819268Y-112485000D01*
X144464750Y-112555518D01*
X144130801Y-112693844D01*
X143830256Y-112894662D01*
X143574662Y-113150256D01*
X143373844Y-113450801D01*
X143235518Y-113784750D01*
X143165000Y-114139268D01*
X56835000Y-114139268D01*
X56835000Y-113819268D01*
X56764482Y-113464750D01*
X56626156Y-113130801D01*
X56425338Y-112830256D01*
X56169744Y-112574662D01*
X55869199Y-112373844D01*
X55535250Y-112235518D01*
X55180732Y-112165000D01*
X54819268Y-112165000D01*
X54464750Y-112235518D01*
X54130801Y-112373844D01*
X53830256Y-112574662D01*
X53574662Y-112830256D01*
X53373844Y-113130801D01*
X53235518Y-113464750D01*
X53165000Y-113819268D01*
X50660000Y-113819268D01*
X50660000Y-93499268D01*
X53165000Y-93499268D01*
X53165000Y-93860732D01*
X53235518Y-94215250D01*
X53373844Y-94549199D01*
X53574662Y-94849744D01*
X53830256Y-95105338D01*
X54130801Y-95306156D01*
X54464750Y-95444482D01*
X54819268Y-95515000D01*
X55180732Y-95515000D01*
X55535250Y-95444482D01*
X55869199Y-95306156D01*
X56169744Y-95105338D01*
X56425338Y-94849744D01*
X56626156Y-94549199D01*
X56764482Y-94215250D01*
X56835000Y-93860732D01*
X56835000Y-93499268D01*
X56764482Y-93144750D01*
X56626156Y-92810801D01*
X56425338Y-92510256D01*
X56169744Y-92254662D01*
X55869199Y-92053844D01*
X55535250Y-91915518D01*
X55180732Y-91845000D01*
X54819268Y-91845000D01*
X54464750Y-91915518D01*
X54130801Y-92053844D01*
X53830256Y-92254662D01*
X53574662Y-92510256D01*
X53373844Y-92810801D01*
X53235518Y-93144750D01*
X53165000Y-93499268D01*
X50660000Y-93499268D01*
X50660000Y-52786323D01*
X50830497Y-52786323D01*
X50830497Y-53213677D01*
X50913870Y-53632821D01*
X51077412Y-54027645D01*
X51314837Y-54382977D01*
X51617023Y-54685163D01*
X51972355Y-54922588D01*
X52367179Y-55086130D01*
X52786323Y-55169503D01*
X53213677Y-55169503D01*
X53632821Y-55086130D01*
X54027645Y-54922588D01*
X54123312Y-54858665D01*
X60005000Y-54858665D01*
X60005000Y-55141335D01*
X60060147Y-55418574D01*
X60168320Y-55679727D01*
X60325363Y-55914759D01*
X60525241Y-56114637D01*
X60760273Y-56271680D01*
X61021426Y-56379853D01*
X61298665Y-56435000D01*
X61581335Y-56435000D01*
X61858574Y-56379853D01*
X62119727Y-56271680D01*
X62354759Y-56114637D01*
X62554637Y-55914759D01*
X62710000Y-55682241D01*
X62865363Y-55914759D01*
X63065241Y-56114637D01*
X63300273Y-56271680D01*
X63561426Y-56379853D01*
X63838665Y-56435000D01*
X64121335Y-56435000D01*
X64398574Y-56379853D01*
X64659727Y-56271680D01*
X64894759Y-56114637D01*
X65094637Y-55914759D01*
X65250000Y-55682241D01*
X65405363Y-55914759D01*
X65605241Y-56114637D01*
X65840273Y-56271680D01*
X66101426Y-56379853D01*
X66378665Y-56435000D01*
X66661335Y-56435000D01*
X66938574Y-56379853D01*
X67199727Y-56271680D01*
X67434759Y-56114637D01*
X67634637Y-55914759D01*
X67790000Y-55682241D01*
X67945363Y-55914759D01*
X68145241Y-56114637D01*
X68380273Y-56271680D01*
X68641426Y-56379853D01*
X68918665Y-56435000D01*
X69201335Y-56435000D01*
X69236439Y-56428017D01*
X70403470Y-57595049D01*
X70431183Y-57628817D01*
X70464951Y-57656530D01*
X70464953Y-57656532D01*
X70491613Y-57678411D01*
X70565941Y-57739411D01*
X70719687Y-57821589D01*
X70886510Y-57872195D01*
X71016523Y-57885000D01*
X71016533Y-57885000D01*
X71059999Y-57889281D01*
X71103465Y-57885000D01*
X72359844Y-57885000D01*
X72343470Y-57904951D01*
X69714952Y-60533470D01*
X69681185Y-60561182D01*
X69653472Y-60594950D01*
X69653469Y-60594953D01*
X69570591Y-60695940D01*
X69488413Y-60849686D01*
X69437806Y-61016509D01*
X69420720Y-61189999D01*
X69425002Y-61233478D01*
X69425001Y-68849491D01*
X69201335Y-68805000D01*
X68918665Y-68805000D01*
X68641426Y-68860147D01*
X68380273Y-68968320D01*
X68145241Y-69125363D01*
X67945363Y-69325241D01*
X67790000Y-69557759D01*
X67634637Y-69325241D01*
X67434759Y-69125363D01*
X67199727Y-68968320D01*
X66938574Y-68860147D01*
X66661335Y-68805000D01*
X66378665Y-68805000D01*
X66101426Y-68860147D01*
X65840273Y-68968320D01*
X65605241Y-69125363D01*
X65405363Y-69325241D01*
X65250000Y-69557759D01*
X65094637Y-69325241D01*
X64894759Y-69125363D01*
X64659727Y-68968320D01*
X64398574Y-68860147D01*
X64121335Y-68805000D01*
X63838665Y-68805000D01*
X63561426Y-68860147D01*
X63300273Y-68968320D01*
X63065241Y-69125363D01*
X62865363Y-69325241D01*
X62710000Y-69557759D01*
X62554637Y-69325241D01*
X62354759Y-69125363D01*
X62119727Y-68968320D01*
X61858574Y-68860147D01*
X61581335Y-68805000D01*
X61298665Y-68805000D01*
X61021426Y-68860147D01*
X60760273Y-68968320D01*
X60525241Y-69125363D01*
X60325363Y-69325241D01*
X60168320Y-69560273D01*
X60060147Y-69821426D01*
X60005000Y-70098665D01*
X60005000Y-70381335D01*
X60060147Y-70658574D01*
X60168320Y-70919727D01*
X60325363Y-71154759D01*
X60525241Y-71354637D01*
X60760273Y-71511680D01*
X61021426Y-71619853D01*
X61298665Y-71675000D01*
X61581335Y-71675000D01*
X61858574Y-71619853D01*
X62119727Y-71511680D01*
X62354759Y-71354637D01*
X62554637Y-71154759D01*
X62710000Y-70922241D01*
X62865363Y-71154759D01*
X63065241Y-71354637D01*
X63300273Y-71511680D01*
X63561426Y-71619853D01*
X63838665Y-71675000D01*
X64121335Y-71675000D01*
X64398574Y-71619853D01*
X64659727Y-71511680D01*
X64894759Y-71354637D01*
X65094637Y-71154759D01*
X65250000Y-70922241D01*
X65405363Y-71154759D01*
X65605241Y-71354637D01*
X65840273Y-71511680D01*
X66101426Y-71619853D01*
X66378665Y-71675000D01*
X66661335Y-71675000D01*
X66938574Y-71619853D01*
X67199727Y-71511680D01*
X67375001Y-71394566D01*
X67375002Y-91216522D01*
X67370720Y-91260001D01*
X67387806Y-91433491D01*
X67438413Y-91600314D01*
X67520591Y-91754060D01*
X67603469Y-91855047D01*
X67603472Y-91855050D01*
X67631185Y-91888818D01*
X67664952Y-91916530D01*
X69361928Y-93613507D01*
X69361928Y-95000000D01*
X69374188Y-95124482D01*
X69410498Y-95244180D01*
X69469463Y-95354494D01*
X69548815Y-95451185D01*
X69645506Y-95530537D01*
X69755820Y-95589502D01*
X69875518Y-95625812D01*
X70000000Y-95638072D01*
X72000000Y-95638072D01*
X72124482Y-95625812D01*
X72244180Y-95589502D01*
X72354494Y-95530537D01*
X72451185Y-95451185D01*
X72530537Y-95354494D01*
X72589502Y-95244180D01*
X72625812Y-95124482D01*
X72638072Y-95000000D01*
X72638072Y-93000000D01*
X72625812Y-92875518D01*
X72589502Y-92755820D01*
X72530537Y-92645506D01*
X72451185Y-92548815D01*
X72354494Y-92469463D01*
X72244180Y-92410498D01*
X72124482Y-92374188D01*
X72000000Y-92361928D01*
X70613507Y-92361928D01*
X69145001Y-90893423D01*
X69145001Y-86027324D01*
X69195250Y-86027000D01*
X69227000Y-85995250D01*
X69227000Y-85773000D01*
X69145001Y-85773000D01*
X69145001Y-84227000D01*
X69227000Y-84227000D01*
X69227000Y-84004750D01*
X70773000Y-84004750D01*
X70773000Y-84227000D01*
X70900000Y-84227000D01*
X70900000Y-85773000D01*
X70773000Y-85773000D01*
X70773000Y-85995250D01*
X70804750Y-86027000D01*
X70900000Y-86027614D01*
X70900000Y-86373002D01*
X71027000Y-86373002D01*
X71027000Y-85906234D01*
X71027614Y-85900000D01*
X71027000Y-85804750D01*
X71027000Y-85261786D01*
X71063989Y-85447743D01*
X71179701Y-85727095D01*
X71347688Y-85978505D01*
X71561495Y-86192312D01*
X71812905Y-86360299D01*
X72092257Y-86476011D01*
X72388816Y-86535000D01*
X72691184Y-86535000D01*
X72987743Y-86476011D01*
X73267095Y-86360299D01*
X73518505Y-86192312D01*
X73732312Y-85978505D01*
X73900299Y-85727095D01*
X74016011Y-85447743D01*
X74075000Y-85151184D01*
X74075000Y-84848816D01*
X74016011Y-84552257D01*
X73900299Y-84272905D01*
X73732312Y-84021495D01*
X73518505Y-83807688D01*
X73267095Y-83639701D01*
X72987743Y-83523989D01*
X72691184Y-83465000D01*
X72388816Y-83465000D01*
X72092257Y-83523989D01*
X71812905Y-83639701D01*
X71561495Y-83807688D01*
X71347688Y-84021495D01*
X71179701Y-84272905D01*
X71063989Y-84552257D01*
X71027000Y-84738214D01*
X71027000Y-84195250D01*
X71027614Y-84100000D01*
X71027000Y-84093766D01*
X71027000Y-83626998D01*
X70900000Y-83626998D01*
X70900000Y-83972386D01*
X70804750Y-83973000D01*
X70773000Y-84004750D01*
X69227000Y-84004750D01*
X69195250Y-83973000D01*
X69145001Y-83972676D01*
X69145001Y-77583354D01*
X69196063Y-77659774D01*
X69340226Y-77803937D01*
X69509744Y-77917205D01*
X69698102Y-77995226D01*
X69898061Y-78035000D01*
X70101939Y-78035000D01*
X70301898Y-77995226D01*
X70490256Y-77917205D01*
X70659774Y-77803937D01*
X70803937Y-77659774D01*
X70917205Y-77490256D01*
X70995226Y-77301898D01*
X71035000Y-77101939D01*
X71035000Y-76898061D01*
X70995226Y-76698102D01*
X70917205Y-76509744D01*
X70885000Y-76461546D01*
X70885000Y-76123803D01*
X70943468Y-76195046D01*
X70943471Y-76195049D01*
X70971184Y-76228817D01*
X71004952Y-76256530D01*
X88361928Y-93613507D01*
X88361928Y-95000000D01*
X88374188Y-95124482D01*
X88410498Y-95244180D01*
X88469463Y-95354494D01*
X88548815Y-95451185D01*
X88645506Y-95530537D01*
X88755820Y-95589502D01*
X88875518Y-95625812D01*
X89000000Y-95638072D01*
X91000000Y-95638072D01*
X91124482Y-95625812D01*
X91244180Y-95589502D01*
X91354494Y-95530537D01*
X91451185Y-95451185D01*
X91530537Y-95354494D01*
X91589502Y-95244180D01*
X91625812Y-95124482D01*
X91638072Y-95000000D01*
X91638072Y-93000000D01*
X91625812Y-92875518D01*
X91589502Y-92755820D01*
X91530537Y-92645506D01*
X91451185Y-92548815D01*
X91354494Y-92469463D01*
X91244180Y-92410498D01*
X91124482Y-92374188D01*
X91000000Y-92361928D01*
X89613507Y-92361928D01*
X87922563Y-90670984D01*
X88005941Y-90739411D01*
X88159687Y-90821589D01*
X88326510Y-90872195D01*
X88456523Y-90885000D01*
X88456531Y-90885000D01*
X88500000Y-90889281D01*
X88543469Y-90885000D01*
X105633422Y-90885000D01*
X108361928Y-93613507D01*
X108361928Y-95000000D01*
X108374188Y-95124482D01*
X108410498Y-95244180D01*
X108469463Y-95354494D01*
X108548815Y-95451185D01*
X108645506Y-95530537D01*
X108755820Y-95589502D01*
X108875518Y-95625812D01*
X109000000Y-95638072D01*
X111000000Y-95638072D01*
X111124482Y-95625812D01*
X111244180Y-95589502D01*
X111354494Y-95530537D01*
X111451185Y-95451185D01*
X111530537Y-95354494D01*
X111589502Y-95244180D01*
X111625812Y-95124482D01*
X111638072Y-95000000D01*
X111638072Y-93000000D01*
X111625812Y-92875518D01*
X111589502Y-92755820D01*
X111530537Y-92645506D01*
X111451185Y-92548815D01*
X111354494Y-92469463D01*
X111244180Y-92410498D01*
X111124482Y-92374188D01*
X111000000Y-92361928D01*
X109613507Y-92361928D01*
X106656534Y-89404956D01*
X106628817Y-89371183D01*
X106494059Y-89260589D01*
X106340313Y-89178411D01*
X106173490Y-89127805D01*
X106043477Y-89115000D01*
X106043469Y-89115000D01*
X106000000Y-89110719D01*
X105956531Y-89115000D01*
X88866579Y-89115000D01*
X88422564Y-88670985D01*
X88476452Y-88715210D01*
X88505941Y-88739411D01*
X88659687Y-88821589D01*
X88826510Y-88872195D01*
X88956523Y-88885000D01*
X88956533Y-88885000D01*
X88999999Y-88889281D01*
X89043466Y-88885000D01*
X122633422Y-88885000D01*
X127361928Y-93613507D01*
X127361928Y-95000000D01*
X127374188Y-95124482D01*
X127410498Y-95244180D01*
X127469463Y-95354494D01*
X127548815Y-95451185D01*
X127645506Y-95530537D01*
X127755820Y-95589502D01*
X127875518Y-95625812D01*
X128000000Y-95638072D01*
X130000000Y-95638072D01*
X130124482Y-95625812D01*
X130244180Y-95589502D01*
X130354494Y-95530537D01*
X130451185Y-95451185D01*
X130530537Y-95354494D01*
X130589502Y-95244180D01*
X130625812Y-95124482D01*
X130638072Y-95000000D01*
X130638072Y-93819268D01*
X143165000Y-93819268D01*
X143165000Y-94180732D01*
X143235518Y-94535250D01*
X143373844Y-94869199D01*
X143574662Y-95169744D01*
X143830256Y-95425338D01*
X144130801Y-95626156D01*
X144464750Y-95764482D01*
X144819268Y-95835000D01*
X145180732Y-95835000D01*
X145535250Y-95764482D01*
X145869199Y-95626156D01*
X146169744Y-95425338D01*
X146425338Y-95169744D01*
X146626156Y-94869199D01*
X146764482Y-94535250D01*
X146835000Y-94180732D01*
X146835000Y-93819268D01*
X146764482Y-93464750D01*
X146626156Y-93130801D01*
X146425338Y-92830256D01*
X146169744Y-92574662D01*
X145869199Y-92373844D01*
X145535250Y-92235518D01*
X145180732Y-92165000D01*
X144819268Y-92165000D01*
X144464750Y-92235518D01*
X144130801Y-92373844D01*
X143830256Y-92574662D01*
X143574662Y-92830256D01*
X143373844Y-93130801D01*
X143235518Y-93464750D01*
X143165000Y-93819268D01*
X130638072Y-93819268D01*
X130638072Y-93000000D01*
X130625812Y-92875518D01*
X130589502Y-92755820D01*
X130530537Y-92645506D01*
X130451185Y-92548815D01*
X130354494Y-92469463D01*
X130244180Y-92410498D01*
X130124482Y-92374188D01*
X130000000Y-92361928D01*
X128613507Y-92361928D01*
X123656534Y-87404956D01*
X123628817Y-87371183D01*
X123494059Y-87260589D01*
X123340313Y-87178411D01*
X123173490Y-87127805D01*
X123043477Y-87115000D01*
X123043469Y-87115000D01*
X123000000Y-87110719D01*
X122956531Y-87115000D01*
X89366579Y-87115000D01*
X88227000Y-85975421D01*
X88227000Y-85773000D01*
X88024579Y-85773000D01*
X86351579Y-84100000D01*
X87972386Y-84100000D01*
X87973000Y-84195250D01*
X88004750Y-84227000D01*
X88227000Y-84227000D01*
X88227000Y-84004750D01*
X89773000Y-84004750D01*
X89773000Y-84227000D01*
X89900000Y-84227000D01*
X89900000Y-85773000D01*
X89773000Y-85773000D01*
X89773000Y-85995250D01*
X89804750Y-86027000D01*
X89900000Y-86027614D01*
X89900000Y-86373002D01*
X90027000Y-86373002D01*
X90027000Y-85906234D01*
X90027614Y-85900000D01*
X90027000Y-85804750D01*
X90027000Y-85261786D01*
X90063989Y-85447743D01*
X90179701Y-85727095D01*
X90347688Y-85978505D01*
X90561495Y-86192312D01*
X90812905Y-86360299D01*
X91092257Y-86476011D01*
X91388816Y-86535000D01*
X91691184Y-86535000D01*
X91987743Y-86476011D01*
X92267095Y-86360299D01*
X92518505Y-86192312D01*
X92732312Y-85978505D01*
X92784767Y-85900000D01*
X107972386Y-85900000D01*
X107974838Y-85924896D01*
X107982100Y-85948836D01*
X107993893Y-85970899D01*
X108009763Y-85990237D01*
X108029101Y-86006107D01*
X108051164Y-86017900D01*
X108075104Y-86025162D01*
X108100000Y-86027614D01*
X108195250Y-86027000D01*
X108227000Y-85995250D01*
X108227000Y-85773000D01*
X108004750Y-85773000D01*
X107973000Y-85804750D01*
X107972386Y-85900000D01*
X92784767Y-85900000D01*
X92900299Y-85727095D01*
X93016011Y-85447743D01*
X93075000Y-85151184D01*
X93075000Y-84848816D01*
X93016011Y-84552257D01*
X92900299Y-84272905D01*
X92784768Y-84100000D01*
X107972386Y-84100000D01*
X107973000Y-84195250D01*
X108004750Y-84227000D01*
X108227000Y-84227000D01*
X108227000Y-84004750D01*
X109773000Y-84004750D01*
X109773000Y-84227000D01*
X109900000Y-84227000D01*
X109900000Y-85773000D01*
X109773000Y-85773000D01*
X109773000Y-85995250D01*
X109804750Y-86027000D01*
X109900000Y-86027614D01*
X109900000Y-86373002D01*
X110027000Y-86373002D01*
X110027000Y-85906234D01*
X110027614Y-85900000D01*
X110027000Y-85804750D01*
X110027000Y-85261786D01*
X110063989Y-85447743D01*
X110179701Y-85727095D01*
X110347688Y-85978505D01*
X110561495Y-86192312D01*
X110812905Y-86360299D01*
X111092257Y-86476011D01*
X111388816Y-86535000D01*
X111691184Y-86535000D01*
X111987743Y-86476011D01*
X112267095Y-86360299D01*
X112518505Y-86192312D01*
X112732312Y-85978505D01*
X112784767Y-85900000D01*
X126972386Y-85900000D01*
X126974838Y-85924896D01*
X126982100Y-85948836D01*
X126993893Y-85970899D01*
X127009763Y-85990237D01*
X127029101Y-86006107D01*
X127051164Y-86017900D01*
X127075104Y-86025162D01*
X127100000Y-86027614D01*
X127195250Y-86027000D01*
X127227000Y-85995250D01*
X127227000Y-85773000D01*
X127004750Y-85773000D01*
X126973000Y-85804750D01*
X126972386Y-85900000D01*
X112784767Y-85900000D01*
X112900299Y-85727095D01*
X113016011Y-85447743D01*
X113075000Y-85151184D01*
X113075000Y-84848816D01*
X113016011Y-84552257D01*
X112900299Y-84272905D01*
X112784768Y-84100000D01*
X126972386Y-84100000D01*
X126973000Y-84195250D01*
X127004750Y-84227000D01*
X127227000Y-84227000D01*
X127227000Y-84004750D01*
X128773000Y-84004750D01*
X128773000Y-84227000D01*
X128900000Y-84227000D01*
X128900000Y-85773000D01*
X128773000Y-85773000D01*
X128773000Y-85995250D01*
X128804750Y-86027000D01*
X128900000Y-86027614D01*
X128900000Y-86373002D01*
X129027000Y-86373002D01*
X129027000Y-85906234D01*
X129027614Y-85900000D01*
X129027000Y-85804750D01*
X129027000Y-85261786D01*
X129063989Y-85447743D01*
X129179701Y-85727095D01*
X129347688Y-85978505D01*
X129561495Y-86192312D01*
X129812905Y-86360299D01*
X130092257Y-86476011D01*
X130388816Y-86535000D01*
X130691184Y-86535000D01*
X130987743Y-86476011D01*
X131267095Y-86360299D01*
X131518505Y-86192312D01*
X131732312Y-85978505D01*
X131900299Y-85727095D01*
X132016011Y-85447743D01*
X132075000Y-85151184D01*
X132075000Y-84848816D01*
X132016011Y-84552257D01*
X131900299Y-84272905D01*
X131732312Y-84021495D01*
X131518505Y-83807688D01*
X131267095Y-83639701D01*
X130987743Y-83523989D01*
X130691184Y-83465000D01*
X130388816Y-83465000D01*
X130092257Y-83523989D01*
X129812905Y-83639701D01*
X129561495Y-83807688D01*
X129347688Y-84021495D01*
X129179701Y-84272905D01*
X129063989Y-84552257D01*
X129027000Y-84738214D01*
X129027000Y-84195250D01*
X129027614Y-84100000D01*
X129027000Y-84093766D01*
X129027000Y-83626998D01*
X128900000Y-83626998D01*
X128900000Y-83972386D01*
X128804750Y-83973000D01*
X128773000Y-84004750D01*
X127227000Y-84004750D01*
X127195250Y-83973000D01*
X127100000Y-83972386D01*
X127075104Y-83974838D01*
X127051164Y-83982100D01*
X127029101Y-83993893D01*
X127009763Y-84009763D01*
X126993893Y-84029101D01*
X126982100Y-84051164D01*
X126974838Y-84075104D01*
X126972386Y-84100000D01*
X112784768Y-84100000D01*
X112732312Y-84021495D01*
X112518505Y-83807688D01*
X112267095Y-83639701D01*
X111987743Y-83523989D01*
X111691184Y-83465000D01*
X111388816Y-83465000D01*
X111092257Y-83523989D01*
X110812905Y-83639701D01*
X110561495Y-83807688D01*
X110347688Y-84021495D01*
X110179701Y-84272905D01*
X110063989Y-84552257D01*
X110027000Y-84738214D01*
X110027000Y-84195250D01*
X110027614Y-84100000D01*
X110027000Y-84093766D01*
X110027000Y-83626998D01*
X109900000Y-83626998D01*
X109900000Y-83972386D01*
X109804750Y-83973000D01*
X109773000Y-84004750D01*
X108227000Y-84004750D01*
X108195250Y-83973000D01*
X108100000Y-83972386D01*
X108075104Y-83974838D01*
X108051164Y-83982100D01*
X108029101Y-83993893D01*
X108009763Y-84009763D01*
X107993893Y-84029101D01*
X107982100Y-84051164D01*
X107974838Y-84075104D01*
X107972386Y-84100000D01*
X92784768Y-84100000D01*
X92732312Y-84021495D01*
X92518505Y-83807688D01*
X92267095Y-83639701D01*
X91987743Y-83523989D01*
X91691184Y-83465000D01*
X91388816Y-83465000D01*
X91092257Y-83523989D01*
X90812905Y-83639701D01*
X90561495Y-83807688D01*
X90347688Y-84021495D01*
X90179701Y-84272905D01*
X90063989Y-84552257D01*
X90027000Y-84738214D01*
X90027000Y-84195250D01*
X90027614Y-84100000D01*
X90027000Y-84093766D01*
X90027000Y-83626998D01*
X89900000Y-83626998D01*
X89900000Y-83972386D01*
X89804750Y-83973000D01*
X89773000Y-84004750D01*
X88227000Y-84004750D01*
X88195250Y-83973000D01*
X88100000Y-83972386D01*
X88075104Y-83974838D01*
X88051164Y-83982100D01*
X88029101Y-83993893D01*
X88009763Y-84009763D01*
X87993893Y-84029101D01*
X87982100Y-84051164D01*
X87974838Y-84075104D01*
X87972386Y-84100000D01*
X86351579Y-84100000D01*
X77565000Y-75313422D01*
X77565000Y-75066578D01*
X80843470Y-78345049D01*
X80871183Y-78378817D01*
X80904951Y-78406530D01*
X80904953Y-78406532D01*
X80976452Y-78465210D01*
X81005941Y-78489411D01*
X81159687Y-78571589D01*
X81326510Y-78622195D01*
X81456523Y-78635000D01*
X81456533Y-78635000D01*
X81499999Y-78639281D01*
X81543466Y-78635000D01*
X85383422Y-78635000D01*
X85993465Y-79245044D01*
X86004774Y-79301898D01*
X86082795Y-79490256D01*
X86196063Y-79659774D01*
X86340226Y-79803937D01*
X86509744Y-79917205D01*
X86698102Y-79995226D01*
X86898061Y-80035000D01*
X87101939Y-80035000D01*
X87301898Y-79995226D01*
X87490256Y-79917205D01*
X87659774Y-79803937D01*
X87803937Y-79659774D01*
X87917205Y-79490256D01*
X87995226Y-79301898D01*
X88035000Y-79101939D01*
X88035000Y-78898061D01*
X87995226Y-78698102D01*
X87917205Y-78509744D01*
X87803937Y-78340226D01*
X87659774Y-78196063D01*
X87490256Y-78082795D01*
X87301898Y-78004774D01*
X87245044Y-77993465D01*
X86406534Y-77154956D01*
X86378817Y-77121183D01*
X86244059Y-77010589D01*
X86090313Y-76928411D01*
X85923490Y-76877805D01*
X85793477Y-76865000D01*
X85793469Y-76865000D01*
X85750000Y-76860719D01*
X85706531Y-76865000D01*
X81866579Y-76865000D01*
X78815001Y-73813423D01*
X78815001Y-71622553D01*
X79078665Y-71675000D01*
X79361335Y-71675000D01*
X79638574Y-71619853D01*
X79899727Y-71511680D01*
X80134759Y-71354637D01*
X80334637Y-71154759D01*
X80490000Y-70922241D01*
X80645363Y-71154759D01*
X80845241Y-71354637D01*
X81080273Y-71511680D01*
X81341426Y-71619853D01*
X81618665Y-71675000D01*
X81901335Y-71675000D01*
X82178574Y-71619853D01*
X82439727Y-71511680D01*
X82674759Y-71354637D01*
X82874637Y-71154759D01*
X83030000Y-70922241D01*
X83185363Y-71154759D01*
X83385241Y-71354637D01*
X83620273Y-71511680D01*
X83881426Y-71619853D01*
X84158665Y-71675000D01*
X84441335Y-71675000D01*
X84718574Y-71619853D01*
X84979727Y-71511680D01*
X85214759Y-71354637D01*
X85414637Y-71154759D01*
X85570000Y-70922241D01*
X85725363Y-71154759D01*
X85925241Y-71354637D01*
X86160273Y-71511680D01*
X86421426Y-71619853D01*
X86698665Y-71675000D01*
X86981335Y-71675000D01*
X87258574Y-71619853D01*
X87519727Y-71511680D01*
X87754759Y-71354637D01*
X87954637Y-71154759D01*
X88110000Y-70922241D01*
X88265363Y-71154759D01*
X88465241Y-71354637D01*
X88700273Y-71511680D01*
X88961426Y-71619853D01*
X89238665Y-71675000D01*
X89521335Y-71675000D01*
X89798574Y-71619853D01*
X90059727Y-71511680D01*
X90294759Y-71354637D01*
X90494637Y-71154759D01*
X90650000Y-70922241D01*
X90805363Y-71154759D01*
X91005241Y-71354637D01*
X91240273Y-71511680D01*
X91501426Y-71619853D01*
X91778665Y-71675000D01*
X92061335Y-71675000D01*
X92338574Y-71619853D01*
X92599727Y-71511680D01*
X92834759Y-71354637D01*
X93034637Y-71154759D01*
X93191680Y-70919727D01*
X93194466Y-70913000D01*
X93787000Y-70913000D01*
X93854196Y-70913000D01*
X95065804Y-70913000D01*
X95133000Y-70913000D01*
X95133000Y-70850041D01*
X95065804Y-70913000D01*
X93854196Y-70913000D01*
X93787000Y-70850041D01*
X93787000Y-70913000D01*
X93194466Y-70913000D01*
X93256032Y-70764366D01*
X93695560Y-70764366D01*
X93787000Y-70850041D01*
X93787000Y-70830376D01*
X95133000Y-70830376D01*
X95133000Y-70850041D01*
X95224440Y-70764366D01*
X95133000Y-70830376D01*
X93787000Y-70830376D01*
X93695560Y-70764366D01*
X93256032Y-70764366D01*
X93299853Y-70658574D01*
X93355000Y-70381335D01*
X93355000Y-70098665D01*
X95565000Y-70098665D01*
X95565000Y-70381335D01*
X95620147Y-70658574D01*
X95728320Y-70919727D01*
X95885363Y-71154759D01*
X96085241Y-71354637D01*
X96320273Y-71511680D01*
X96581426Y-71619853D01*
X96858665Y-71675000D01*
X97141335Y-71675000D01*
X97418574Y-71619853D01*
X97679727Y-71511680D01*
X97849770Y-71398061D01*
X105965000Y-71398061D01*
X105965000Y-71601939D01*
X106004774Y-71801898D01*
X106082795Y-71990256D01*
X106115000Y-72038454D01*
X106115001Y-78461544D01*
X106082795Y-78509744D01*
X106004774Y-78698102D01*
X105965000Y-78898061D01*
X105965000Y-79101939D01*
X106004774Y-79301898D01*
X106082795Y-79490256D01*
X106196063Y-79659774D01*
X106340226Y-79803937D01*
X106509744Y-79917205D01*
X106698102Y-79995226D01*
X106898061Y-80035000D01*
X107101939Y-80035000D01*
X107301898Y-79995226D01*
X107490256Y-79917205D01*
X107659774Y-79803937D01*
X107803937Y-79659774D01*
X107917205Y-79490256D01*
X107995226Y-79301898D01*
X108035000Y-79101939D01*
X108035000Y-78898061D01*
X107995226Y-78698102D01*
X107917205Y-78509744D01*
X107885000Y-78461546D01*
X107885000Y-72038454D01*
X107917205Y-71990256D01*
X107995226Y-71801898D01*
X108035000Y-71601939D01*
X108035000Y-71398061D01*
X107995226Y-71198102D01*
X107917205Y-71009744D01*
X107803937Y-70840226D01*
X107659774Y-70696063D01*
X107490256Y-70582795D01*
X107301898Y-70504774D01*
X107101939Y-70465000D01*
X106898061Y-70465000D01*
X106698102Y-70504774D01*
X106509744Y-70582795D01*
X106340226Y-70696063D01*
X106196063Y-70840226D01*
X106082795Y-71009744D01*
X106004774Y-71198102D01*
X105965000Y-71398061D01*
X97849770Y-71398061D01*
X97914759Y-71354637D01*
X98114637Y-71154759D01*
X98271680Y-70919727D01*
X98379853Y-70658574D01*
X98427850Y-70417282D01*
X103710133Y-65135000D01*
X111111928Y-65135000D01*
X111111928Y-65750000D01*
X111124188Y-65874482D01*
X111160498Y-65994180D01*
X111219463Y-66104494D01*
X111298815Y-66201185D01*
X111395506Y-66280537D01*
X111505820Y-66339502D01*
X111625518Y-66375812D01*
X111750000Y-66388072D01*
X115250000Y-66388072D01*
X115374482Y-66375812D01*
X115494180Y-66339502D01*
X115604494Y-66280537D01*
X115701185Y-66201185D01*
X115780537Y-66104494D01*
X115839502Y-65994180D01*
X115875812Y-65874482D01*
X115888072Y-65750000D01*
X115888072Y-62250000D01*
X115875812Y-62125518D01*
X115839502Y-62005820D01*
X115780537Y-61895506D01*
X115701185Y-61798815D01*
X115604494Y-61719463D01*
X115494180Y-61660498D01*
X115374482Y-61624188D01*
X115250000Y-61611928D01*
X111750000Y-61611928D01*
X111625518Y-61624188D01*
X111505820Y-61660498D01*
X111395506Y-61719463D01*
X111298815Y-61798815D01*
X111219463Y-61895506D01*
X111178506Y-61972131D01*
X111188072Y-61875000D01*
X111188072Y-60125000D01*
X111158999Y-59829814D01*
X111072896Y-59545972D01*
X111048324Y-59500000D01*
X111622386Y-59500000D01*
X111624838Y-59524896D01*
X111632100Y-59548836D01*
X111643893Y-59570899D01*
X111659763Y-59590237D01*
X111679101Y-59606107D01*
X111701164Y-59617900D01*
X111725104Y-59625162D01*
X111750000Y-59627614D01*
X112095250Y-59627000D01*
X112127000Y-59595250D01*
X112127000Y-59373000D01*
X114873000Y-59373000D01*
X114873000Y-59595250D01*
X114904750Y-59627000D01*
X115250000Y-59627614D01*
X115274896Y-59625162D01*
X115298836Y-59617900D01*
X115320899Y-59606107D01*
X115340237Y-59590237D01*
X115356107Y-59570899D01*
X115367900Y-59548836D01*
X115375162Y-59524896D01*
X115377614Y-59500000D01*
X115377000Y-59404750D01*
X115345250Y-59373000D01*
X114873000Y-59373000D01*
X112127000Y-59373000D01*
X111654750Y-59373000D01*
X111623000Y-59404750D01*
X111622386Y-59500000D01*
X111048324Y-59500000D01*
X110933073Y-59284382D01*
X110744903Y-59055097D01*
X110515618Y-58866927D01*
X110254028Y-58727104D01*
X109970186Y-58641001D01*
X109675000Y-58611928D01*
X107925000Y-58611928D01*
X107629814Y-58641001D01*
X107345972Y-58727104D01*
X107084382Y-58866927D01*
X106855097Y-59055097D01*
X106666927Y-59284382D01*
X106527104Y-59545972D01*
X106441001Y-59829814D01*
X106411928Y-60125000D01*
X106411928Y-61875000D01*
X106441001Y-62170186D01*
X106527104Y-62454028D01*
X106666927Y-62715618D01*
X106789522Y-62865000D01*
X103295752Y-62865000D01*
X103240000Y-62859509D01*
X103017501Y-62881423D01*
X102803553Y-62946324D01*
X102606377Y-63051716D01*
X102476856Y-63158011D01*
X102476854Y-63158013D01*
X102433551Y-63193551D01*
X102398013Y-63236854D01*
X96822718Y-68812150D01*
X96581426Y-68860147D01*
X96320273Y-68968320D01*
X96085241Y-69125363D01*
X95885363Y-69325241D01*
X95728320Y-69560273D01*
X95620147Y-69821426D01*
X95565000Y-70098665D01*
X93355000Y-70098665D01*
X93299853Y-69821426D01*
X93256033Y-69715634D01*
X93695560Y-69715634D01*
X93787000Y-69649624D01*
X95133000Y-69649624D01*
X95224440Y-69715634D01*
X95133000Y-69629959D01*
X95133000Y-69649624D01*
X93787000Y-69649624D01*
X93787000Y-69629959D01*
X93695560Y-69715634D01*
X93256033Y-69715634D01*
X93194467Y-69567000D01*
X93787000Y-69567000D01*
X93787000Y-69629959D01*
X93854196Y-69567000D01*
X95065804Y-69567000D01*
X95133000Y-69629959D01*
X95133000Y-69567000D01*
X95065804Y-69567000D01*
X93854196Y-69567000D01*
X93787000Y-69567000D01*
X93194467Y-69567000D01*
X93191680Y-69560273D01*
X93034637Y-69325241D01*
X92834759Y-69125363D01*
X92599727Y-68968320D01*
X92338574Y-68860147D01*
X92061335Y-68805000D01*
X91778665Y-68805000D01*
X91501426Y-68860147D01*
X91240273Y-68968320D01*
X91005241Y-69125363D01*
X90805363Y-69325241D01*
X90650000Y-69557759D01*
X90494637Y-69325241D01*
X90294759Y-69125363D01*
X90059727Y-68968320D01*
X89798574Y-68860147D01*
X89521335Y-68805000D01*
X89238665Y-68805000D01*
X88961426Y-68860147D01*
X88700273Y-68968320D01*
X88465241Y-69125363D01*
X88265363Y-69325241D01*
X88110000Y-69557759D01*
X87954637Y-69325241D01*
X87754759Y-69125363D01*
X87519727Y-68968320D01*
X87258574Y-68860147D01*
X86981335Y-68805000D01*
X86698665Y-68805000D01*
X86421426Y-68860147D01*
X86160273Y-68968320D01*
X85925241Y-69125363D01*
X85725363Y-69325241D01*
X85570000Y-69557759D01*
X85414637Y-69325241D01*
X85214759Y-69125363D01*
X84979727Y-68968320D01*
X84718574Y-68860147D01*
X84441335Y-68805000D01*
X84158665Y-68805000D01*
X83881426Y-68860147D01*
X83620273Y-68968320D01*
X83385241Y-69125363D01*
X83185363Y-69325241D01*
X83030000Y-69557759D01*
X82874637Y-69325241D01*
X82674759Y-69125363D01*
X82439727Y-68968320D01*
X82178574Y-68860147D01*
X81901335Y-68805000D01*
X81618665Y-68805000D01*
X81341426Y-68860147D01*
X81080273Y-68968320D01*
X80845241Y-69125363D01*
X80645363Y-69325241D01*
X80490000Y-69557759D01*
X80334637Y-69325241D01*
X80134759Y-69125363D01*
X79899727Y-68968320D01*
X79638574Y-68860147D01*
X79361335Y-68805000D01*
X79078665Y-68805000D01*
X78815001Y-68857447D01*
X78815001Y-68473470D01*
X78819282Y-68430001D01*
X78815001Y-68386532D01*
X78815001Y-68386524D01*
X78802196Y-68256511D01*
X78751590Y-68089687D01*
X78669412Y-67935942D01*
X78586533Y-67834954D01*
X78586531Y-67834952D01*
X78558818Y-67801184D01*
X78525051Y-67773472D01*
X77006535Y-66254957D01*
X76995226Y-66198102D01*
X76917205Y-66009744D01*
X76803937Y-65840226D01*
X76659774Y-65696063D01*
X76490256Y-65582795D01*
X76301898Y-65504774D01*
X76101939Y-65465000D01*
X75898061Y-65465000D01*
X75698102Y-65504774D01*
X75509744Y-65582795D01*
X75340226Y-65696063D01*
X75196063Y-65840226D01*
X75082795Y-66009744D01*
X75004774Y-66198102D01*
X74965000Y-66398061D01*
X74965000Y-66601939D01*
X75004774Y-66801898D01*
X75082795Y-66990256D01*
X75196063Y-67159774D01*
X75340226Y-67303937D01*
X75509744Y-67417205D01*
X75698102Y-67495226D01*
X75754957Y-67506535D01*
X77045001Y-68796580D01*
X77045001Y-68849491D01*
X76821335Y-68805000D01*
X76538665Y-68805000D01*
X76261426Y-68860147D01*
X76000273Y-68968320D01*
X75765241Y-69125363D01*
X75565363Y-69325241D01*
X75410000Y-69557759D01*
X75254637Y-69325241D01*
X75054759Y-69125363D01*
X74819727Y-68968320D01*
X74558574Y-68860147D01*
X74281335Y-68805000D01*
X73998665Y-68805000D01*
X73721426Y-68860147D01*
X73460273Y-68968320D01*
X73225241Y-69125363D01*
X73025363Y-69325241D01*
X72870000Y-69557759D01*
X72714637Y-69325241D01*
X72514759Y-69125363D01*
X72279727Y-68968320D01*
X72018574Y-68860147D01*
X71741335Y-68805000D01*
X71458665Y-68805000D01*
X71195001Y-68857447D01*
X71195001Y-61556577D01*
X73366579Y-59385000D01*
X75961546Y-59385000D01*
X76009744Y-59417205D01*
X76198102Y-59495226D01*
X76398061Y-59535000D01*
X76601939Y-59535000D01*
X76801898Y-59495226D01*
X76990256Y-59417205D01*
X77159774Y-59303937D01*
X77303937Y-59159774D01*
X77417205Y-58990256D01*
X77495226Y-58801898D01*
X77535000Y-58601939D01*
X77535000Y-58398061D01*
X77495226Y-58198102D01*
X77417205Y-58009744D01*
X77333854Y-57885000D01*
X81666146Y-57885000D01*
X81582795Y-58009744D01*
X81504774Y-58198102D01*
X81465000Y-58398061D01*
X81465000Y-58601939D01*
X81504774Y-58801898D01*
X81582795Y-58990256D01*
X81696063Y-59159774D01*
X81840226Y-59303937D01*
X82009744Y-59417205D01*
X82198102Y-59495226D01*
X82398061Y-59535000D01*
X82601939Y-59535000D01*
X82801898Y-59495226D01*
X82990256Y-59417205D01*
X83038454Y-59385000D01*
X87461546Y-59385000D01*
X87509744Y-59417205D01*
X87698102Y-59495226D01*
X87898061Y-59535000D01*
X88101939Y-59535000D01*
X88301898Y-59495226D01*
X88490256Y-59417205D01*
X88659774Y-59303937D01*
X88803937Y-59159774D01*
X88917205Y-58990256D01*
X88995226Y-58801898D01*
X89035000Y-58601939D01*
X89035000Y-58398061D01*
X88995226Y-58198102D01*
X88917205Y-58009744D01*
X88833854Y-57885000D01*
X107706531Y-57885000D01*
X107750000Y-57889281D01*
X107793469Y-57885000D01*
X107793477Y-57885000D01*
X107923490Y-57872195D01*
X108090313Y-57821589D01*
X108244059Y-57739411D01*
X108378817Y-57628817D01*
X108406534Y-57595044D01*
X109501578Y-56500000D01*
X111622386Y-56500000D01*
X111623000Y-56595250D01*
X111654750Y-56627000D01*
X112127000Y-56627000D01*
X112127000Y-56404750D01*
X114873000Y-56404750D01*
X114873000Y-56627000D01*
X115345250Y-56627000D01*
X115377000Y-56595250D01*
X115377614Y-56500000D01*
X115375162Y-56475104D01*
X115367900Y-56451164D01*
X115356107Y-56429101D01*
X115340237Y-56409763D01*
X115320899Y-56393893D01*
X115298836Y-56382100D01*
X115274896Y-56374838D01*
X115250000Y-56372386D01*
X114904750Y-56373000D01*
X114873000Y-56404750D01*
X112127000Y-56404750D01*
X112095250Y-56373000D01*
X111750000Y-56372386D01*
X111725104Y-56374838D01*
X111701164Y-56382100D01*
X111679101Y-56393893D01*
X111659763Y-56409763D01*
X111643893Y-56429101D01*
X111632100Y-56451164D01*
X111624838Y-56475104D01*
X111622386Y-56500000D01*
X109501578Y-56500000D01*
X109866579Y-56135000D01*
X116383422Y-56135000D01*
X125115000Y-64866579D01*
X125115001Y-78461544D01*
X125082795Y-78509744D01*
X125004774Y-78698102D01*
X124965000Y-78898061D01*
X124965000Y-79101939D01*
X125004774Y-79301898D01*
X125082795Y-79490256D01*
X125196063Y-79659774D01*
X125340226Y-79803937D01*
X125509744Y-79917205D01*
X125698102Y-79995226D01*
X125898061Y-80035000D01*
X126101939Y-80035000D01*
X126301898Y-79995226D01*
X126490256Y-79917205D01*
X126659774Y-79803937D01*
X126803937Y-79659774D01*
X126917205Y-79490256D01*
X126995226Y-79301898D01*
X127035000Y-79101939D01*
X127035000Y-78898061D01*
X126995226Y-78698102D01*
X126917205Y-78509744D01*
X126885000Y-78461546D01*
X126885000Y-64543465D01*
X126889281Y-64499999D01*
X126885000Y-64456533D01*
X126885000Y-64456523D01*
X126872195Y-64326510D01*
X126821589Y-64159687D01*
X126739411Y-64005941D01*
X126628817Y-63871183D01*
X126595051Y-63843472D01*
X117406534Y-54654956D01*
X117378817Y-54621183D01*
X117244059Y-54510589D01*
X117090313Y-54428411D01*
X116923490Y-54377805D01*
X116793477Y-54365000D01*
X116793469Y-54365000D01*
X116750000Y-54360719D01*
X116706531Y-54365000D01*
X109543469Y-54365000D01*
X109500000Y-54360719D01*
X109456531Y-54365000D01*
X109456523Y-54365000D01*
X109326510Y-54377805D01*
X109159687Y-54428411D01*
X109071338Y-54475634D01*
X109005941Y-54510589D01*
X108904953Y-54593468D01*
X108904951Y-54593470D01*
X108871183Y-54621183D01*
X108843470Y-54654951D01*
X107383422Y-56115000D01*
X98351647Y-56115000D01*
X98389502Y-56044180D01*
X98425812Y-55924482D01*
X98438072Y-55800000D01*
X98438072Y-54200000D01*
X98425812Y-54075518D01*
X98389502Y-53955820D01*
X98330537Y-53845506D01*
X98251185Y-53748815D01*
X98154494Y-53669463D01*
X98044180Y-53610498D01*
X97924482Y-53574188D01*
X97800000Y-53561928D01*
X96200000Y-53561928D01*
X96075518Y-53574188D01*
X95955820Y-53610498D01*
X95845506Y-53669463D01*
X95748815Y-53748815D01*
X95669463Y-53845506D01*
X95610498Y-53955820D01*
X95574188Y-54075518D01*
X95573357Y-54083961D01*
X95374759Y-53885363D01*
X95139727Y-53728320D01*
X94878574Y-53620147D01*
X94601335Y-53565000D01*
X94318665Y-53565000D01*
X94041426Y-53620147D01*
X93780273Y-53728320D01*
X93545241Y-53885363D01*
X93345363Y-54085241D01*
X93190000Y-54317759D01*
X93034637Y-54085241D01*
X92834759Y-53885363D01*
X92599727Y-53728320D01*
X92338574Y-53620147D01*
X92061335Y-53565000D01*
X91778665Y-53565000D01*
X91501426Y-53620147D01*
X91240273Y-53728320D01*
X91005241Y-53885363D01*
X90805363Y-54085241D01*
X90648320Y-54320273D01*
X90540147Y-54581426D01*
X90485000Y-54858665D01*
X90485000Y-55141335D01*
X90540147Y-55418574D01*
X90648320Y-55679727D01*
X90805363Y-55914759D01*
X91005241Y-56114637D01*
X91005784Y-56115000D01*
X87754216Y-56115000D01*
X87754759Y-56114637D01*
X87954637Y-55914759D01*
X88111680Y-55679727D01*
X88114466Y-55673000D01*
X88707000Y-55673000D01*
X88774196Y-55673000D01*
X89985804Y-55673000D01*
X90053000Y-55673000D01*
X90053000Y-55610041D01*
X89985804Y-55673000D01*
X88774196Y-55673000D01*
X88707000Y-55610041D01*
X88707000Y-55673000D01*
X88114466Y-55673000D01*
X88176032Y-55524366D01*
X88615560Y-55524366D01*
X88707000Y-55610041D01*
X88707000Y-55590376D01*
X90053000Y-55590376D01*
X90053000Y-55610041D01*
X90144440Y-55524366D01*
X90053000Y-55590376D01*
X88707000Y-55590376D01*
X88615560Y-55524366D01*
X88176032Y-55524366D01*
X88219853Y-55418574D01*
X88275000Y-55141335D01*
X88275000Y-54858665D01*
X88219853Y-54581426D01*
X88176033Y-54475634D01*
X88615560Y-54475634D01*
X88707000Y-54409624D01*
X90053000Y-54409624D01*
X90144440Y-54475634D01*
X90053000Y-54389959D01*
X90053000Y-54409624D01*
X88707000Y-54409624D01*
X88707000Y-54389959D01*
X88615560Y-54475634D01*
X88176033Y-54475634D01*
X88114467Y-54327000D01*
X88707000Y-54327000D01*
X88707000Y-54389959D01*
X88774196Y-54327000D01*
X89985804Y-54327000D01*
X90053000Y-54389959D01*
X90053000Y-54327000D01*
X89985804Y-54327000D01*
X88774196Y-54327000D01*
X88707000Y-54327000D01*
X88114467Y-54327000D01*
X88111680Y-54320273D01*
X87954637Y-54085241D01*
X87754759Y-53885363D01*
X87519727Y-53728320D01*
X87258574Y-53620147D01*
X86981335Y-53565000D01*
X86698665Y-53565000D01*
X86421426Y-53620147D01*
X86160273Y-53728320D01*
X85925241Y-53885363D01*
X85725363Y-54085241D01*
X85570000Y-54317759D01*
X85414637Y-54085241D01*
X85214759Y-53885363D01*
X84979727Y-53728320D01*
X84718574Y-53620147D01*
X84441335Y-53565000D01*
X84158665Y-53565000D01*
X83881426Y-53620147D01*
X83620273Y-53728320D01*
X83385241Y-53885363D01*
X83185363Y-54085241D01*
X83030000Y-54317759D01*
X82874637Y-54085241D01*
X82674759Y-53885363D01*
X82439727Y-53728320D01*
X82178574Y-53620147D01*
X81901335Y-53565000D01*
X81618665Y-53565000D01*
X81341426Y-53620147D01*
X81080273Y-53728320D01*
X80845241Y-53885363D01*
X80645363Y-54085241D01*
X80490000Y-54317759D01*
X80334637Y-54085241D01*
X80134759Y-53885363D01*
X79899727Y-53728320D01*
X79638574Y-53620147D01*
X79361335Y-53565000D01*
X79078665Y-53565000D01*
X78801426Y-53620147D01*
X78540273Y-53728320D01*
X78305241Y-53885363D01*
X78105363Y-54085241D01*
X77950000Y-54317759D01*
X77794637Y-54085241D01*
X77594759Y-53885363D01*
X77359727Y-53728320D01*
X77098574Y-53620147D01*
X76821335Y-53565000D01*
X76538665Y-53565000D01*
X76261426Y-53620147D01*
X76000273Y-53728320D01*
X75765241Y-53885363D01*
X75565363Y-54085241D01*
X75410000Y-54317759D01*
X75254637Y-54085241D01*
X75054759Y-53885363D01*
X74819727Y-53728320D01*
X74558574Y-53620147D01*
X74285709Y-53565870D01*
X74966579Y-52885000D01*
X90961546Y-52885000D01*
X91009744Y-52917205D01*
X91198102Y-52995226D01*
X91398061Y-53035000D01*
X91601939Y-53035000D01*
X91801898Y-52995226D01*
X91990256Y-52917205D01*
X92159774Y-52803937D01*
X92177388Y-52786323D01*
X144830497Y-52786323D01*
X144830497Y-53213677D01*
X144913870Y-53632821D01*
X145077412Y-54027645D01*
X145314837Y-54382977D01*
X145617023Y-54685163D01*
X145972355Y-54922588D01*
X146367179Y-55086130D01*
X146786323Y-55169503D01*
X147213677Y-55169503D01*
X147632821Y-55086130D01*
X148027645Y-54922588D01*
X148382977Y-54685163D01*
X148685163Y-54382977D01*
X148922588Y-54027645D01*
X149086130Y-53632821D01*
X149169503Y-53213677D01*
X149169503Y-52786323D01*
X149086130Y-52367179D01*
X148922588Y-51972355D01*
X148685163Y-51617023D01*
X148382977Y-51314837D01*
X148027645Y-51077412D01*
X147632821Y-50913870D01*
X147213677Y-50830497D01*
X146786323Y-50830497D01*
X146367179Y-50913870D01*
X145972355Y-51077412D01*
X145617023Y-51314837D01*
X145314837Y-51617023D01*
X145077412Y-51972355D01*
X144913870Y-52367179D01*
X144830497Y-52786323D01*
X92177388Y-52786323D01*
X92303937Y-52659774D01*
X92417205Y-52490256D01*
X92495226Y-52301898D01*
X92535000Y-52101939D01*
X92535000Y-51898061D01*
X92495226Y-51698102D01*
X92417205Y-51509744D01*
X92303937Y-51340226D01*
X92159774Y-51196063D01*
X91990256Y-51082795D01*
X91801898Y-51004774D01*
X91601939Y-50965000D01*
X91398061Y-50965000D01*
X91198102Y-51004774D01*
X91009744Y-51082795D01*
X90961546Y-51115000D01*
X74643469Y-51115000D01*
X74600000Y-51110719D01*
X74556531Y-51115000D01*
X74556523Y-51115000D01*
X74426510Y-51127805D01*
X74259686Y-51178411D01*
X74105941Y-51260589D01*
X74004953Y-51343468D01*
X74004951Y-51343470D01*
X73971183Y-51371183D01*
X73943470Y-51404951D01*
X71776439Y-53571983D01*
X71741335Y-53565000D01*
X71458665Y-53565000D01*
X71181426Y-53620147D01*
X70920273Y-53728320D01*
X70685241Y-53885363D01*
X70485363Y-54085241D01*
X70330000Y-54317759D01*
X70174637Y-54085241D01*
X69974759Y-53885363D01*
X69739727Y-53728320D01*
X69478574Y-53620147D01*
X69201335Y-53565000D01*
X68918665Y-53565000D01*
X68641426Y-53620147D01*
X68380273Y-53728320D01*
X68145241Y-53885363D01*
X67945363Y-54085241D01*
X67790000Y-54317759D01*
X67634637Y-54085241D01*
X67434759Y-53885363D01*
X67199727Y-53728320D01*
X66938574Y-53620147D01*
X66661335Y-53565000D01*
X66378665Y-53565000D01*
X66101426Y-53620147D01*
X65840273Y-53728320D01*
X65605241Y-53885363D01*
X65405363Y-54085241D01*
X65250000Y-54317759D01*
X65094637Y-54085241D01*
X64894759Y-53885363D01*
X64659727Y-53728320D01*
X64398574Y-53620147D01*
X64121335Y-53565000D01*
X63838665Y-53565000D01*
X63561426Y-53620147D01*
X63300273Y-53728320D01*
X63065241Y-53885363D01*
X62865363Y-54085241D01*
X62710000Y-54317759D01*
X62554637Y-54085241D01*
X62354759Y-53885363D01*
X62119727Y-53728320D01*
X61858574Y-53620147D01*
X61581335Y-53565000D01*
X61298665Y-53565000D01*
X61021426Y-53620147D01*
X60760273Y-53728320D01*
X60525241Y-53885363D01*
X60325363Y-54085241D01*
X60168320Y-54320273D01*
X60060147Y-54581426D01*
X60005000Y-54858665D01*
X54123312Y-54858665D01*
X54382977Y-54685163D01*
X54685163Y-54382977D01*
X54922588Y-54027645D01*
X55086130Y-53632821D01*
X55169503Y-53213677D01*
X55169503Y-52786323D01*
X55086130Y-52367179D01*
X54922588Y-51972355D01*
X54685163Y-51617023D01*
X54382977Y-51314837D01*
X54027645Y-51077412D01*
X53632821Y-50913870D01*
X53213677Y-50830497D01*
X52786323Y-50830497D01*
X52367179Y-50913870D01*
X51972355Y-51077412D01*
X51617023Y-51314837D01*
X51314837Y-51617023D01*
X51077412Y-51972355D01*
X50913870Y-52367179D01*
X50830497Y-52786323D01*
X50660000Y-52786323D01*
X50660000Y-50660000D01*
X149340001Y-50660000D01*
X149340000Y-149340000D01*
G37*
X149340000Y-149340000D02*
X50660000Y-149340000D01*
X50660000Y-146786323D01*
X50830497Y-146786323D01*
X50830497Y-147213677D01*
X50913870Y-147632821D01*
X51077412Y-148027645D01*
X51314837Y-148382977D01*
X51617023Y-148685163D01*
X51972355Y-148922588D01*
X52367179Y-149086130D01*
X52786323Y-149169503D01*
X53213677Y-149169503D01*
X53632821Y-149086130D01*
X54027645Y-148922588D01*
X54382977Y-148685163D01*
X54685163Y-148382977D01*
X54922588Y-148027645D01*
X55086130Y-147632821D01*
X55169503Y-147213677D01*
X55169503Y-147086707D01*
X70717717Y-147086707D01*
X70860300Y-147084908D01*
X71000000Y-147224608D01*
X71137901Y-147086707D01*
X89717717Y-147086707D01*
X89860300Y-147084908D01*
X90000000Y-147224608D01*
X90137901Y-147086707D01*
X109717717Y-147086707D01*
X109860300Y-147084908D01*
X110000000Y-147224608D01*
X110137901Y-147086707D01*
X128717717Y-147086707D01*
X128860300Y-147084908D01*
X129000000Y-147224608D01*
X129143269Y-147081339D01*
X128860300Y-147084908D01*
X128856731Y-147081339D01*
X128717717Y-147086707D01*
X110137901Y-147086707D01*
X110143269Y-147081339D01*
X109860300Y-147084908D01*
X109856731Y-147081339D01*
X109717717Y-147086707D01*
X90137901Y-147086707D01*
X90143269Y-147081339D01*
X89860300Y-147084908D01*
X89856731Y-147081339D01*
X89717717Y-147086707D01*
X71137901Y-147086707D01*
X71143269Y-147081339D01*
X70860300Y-147084908D01*
X70856731Y-147081339D01*
X70717717Y-147086707D01*
X55169503Y-147086707D01*
X55169503Y-146786323D01*
X144830497Y-146786323D01*
X144830497Y-147213677D01*
X144913870Y-147632821D01*
X145077412Y-148027645D01*
X145314837Y-148382977D01*
X145617023Y-148685163D01*
X145972355Y-148922588D01*
X146367179Y-149086130D01*
X146786323Y-149169503D01*
X147213677Y-149169503D01*
X147632821Y-149086130D01*
X148027645Y-148922588D01*
X148382977Y-148685163D01*
X148685163Y-148382977D01*
X148922588Y-148027645D01*
X149086130Y-147632821D01*
X149169503Y-147213677D01*
X149169503Y-146786323D01*
X149086130Y-146367179D01*
X148922588Y-145972355D01*
X148685163Y-145617023D01*
X148382977Y-145314837D01*
X148027645Y-145077412D01*
X147632821Y-144913870D01*
X147213677Y-144830497D01*
X146786323Y-144830497D01*
X146367179Y-144913870D01*
X145972355Y-145077412D01*
X145617023Y-145314837D01*
X145314837Y-145617023D01*
X145077412Y-145972355D01*
X144913870Y-146367179D01*
X144830497Y-146786323D01*
X55169503Y-146786323D01*
X55086130Y-146367179D01*
X54929897Y-145990000D01*
X69765392Y-145990000D01*
X69908661Y-146133269D01*
X72091339Y-146133269D01*
X72096707Y-146272283D01*
X72094908Y-146129700D01*
X72091339Y-146133269D01*
X69908661Y-146133269D01*
X69905092Y-145850300D01*
X69765392Y-145990000D01*
X54929897Y-145990000D01*
X54922588Y-145972355D01*
X54745763Y-145707717D01*
X69903293Y-145707717D01*
X69905092Y-145850300D01*
X69908661Y-145846731D01*
X72091339Y-145846731D01*
X72094908Y-146129700D01*
X72234608Y-145990000D01*
X88765392Y-145990000D01*
X88908661Y-146133269D01*
X91091339Y-146133269D01*
X91096707Y-146272283D01*
X91094908Y-146129700D01*
X91091339Y-146133269D01*
X88908661Y-146133269D01*
X88905092Y-145850300D01*
X88765392Y-145990000D01*
X72234608Y-145990000D01*
X72091339Y-145846731D01*
X69908661Y-145846731D01*
X69903293Y-145707717D01*
X88903293Y-145707717D01*
X88905092Y-145850300D01*
X88908661Y-145846731D01*
X91091339Y-145846731D01*
X91094908Y-146129700D01*
X91234608Y-145990000D01*
X108765392Y-145990000D01*
X108908661Y-146133269D01*
X111091339Y-146133269D01*
X111096707Y-146272283D01*
X111094908Y-146129700D01*
X111091339Y-146133269D01*
X108908661Y-146133269D01*
X108905092Y-145850300D01*
X108765392Y-145990000D01*
X91234608Y-145990000D01*
X91091339Y-145846731D01*
X88908661Y-145846731D01*
X88903293Y-145707717D01*
X108903293Y-145707717D01*
X108905092Y-145850300D01*
X108908661Y-145846731D01*
X111091339Y-145846731D01*
X111094908Y-146129700D01*
X111234608Y-145990000D01*
X127765392Y-145990000D01*
X127908661Y-146133269D01*
X130091339Y-146133269D01*
X130096707Y-146272283D01*
X130094908Y-146129700D01*
X130091339Y-146133269D01*
X127908661Y-146133269D01*
X127905092Y-145850300D01*
X127765392Y-145990000D01*
X111234608Y-145990000D01*
X111091339Y-145846731D01*
X108908661Y-145846731D01*
X108903293Y-145707717D01*
X127903293Y-145707717D01*
X127905092Y-145850300D01*
X127908661Y-145846731D01*
X130091339Y-145846731D01*
X130094908Y-146129700D01*
X130234608Y-145990000D01*
X130091339Y-145846731D01*
X127908661Y-145846731D01*
X127903293Y-145707717D01*
X108903293Y-145707717D01*
X88903293Y-145707717D01*
X69903293Y-145707717D01*
X54745763Y-145707717D01*
X54685163Y-145617023D01*
X54382977Y-145314837D01*
X54027645Y-145077412D01*
X53632821Y-144913870D01*
X53556361Y-144898661D01*
X70856731Y-144898661D01*
X71139700Y-144895092D01*
X71143269Y-144898661D01*
X89856731Y-144898661D01*
X90139700Y-144895092D01*
X90143269Y-144898661D01*
X109856731Y-144898661D01*
X110139700Y-144895092D01*
X110143269Y-144898661D01*
X128856731Y-144898661D01*
X129139700Y-144895092D01*
X129143269Y-144898661D01*
X129282283Y-144893293D01*
X129139700Y-144895092D01*
X129000000Y-144755392D01*
X128856731Y-144898661D01*
X110143269Y-144898661D01*
X110282283Y-144893293D01*
X110139700Y-144895092D01*
X110000000Y-144755392D01*
X109856731Y-144898661D01*
X90143269Y-144898661D01*
X90282283Y-144893293D01*
X90139700Y-144895092D01*
X90000000Y-144755392D01*
X89856731Y-144898661D01*
X71143269Y-144898661D01*
X71282283Y-144893293D01*
X71139700Y-144895092D01*
X71000000Y-144755392D01*
X70856731Y-144898661D01*
X53556361Y-144898661D01*
X53213677Y-144830497D01*
X52786323Y-144830497D01*
X52367179Y-144913870D01*
X51972355Y-145077412D01*
X51617023Y-145314837D01*
X51314837Y-145617023D01*
X51077412Y-145972355D01*
X50913870Y-146367179D01*
X50830497Y-146786323D01*
X50660000Y-146786323D01*
X50660000Y-139819268D01*
X53165000Y-139819268D01*
X53165000Y-140180732D01*
X53235518Y-140535250D01*
X53373844Y-140869199D01*
X53574662Y-141169744D01*
X53830256Y-141425338D01*
X54130801Y-141626156D01*
X54464750Y-141764482D01*
X54819268Y-141835000D01*
X55180732Y-141835000D01*
X55535250Y-141764482D01*
X55869199Y-141626156D01*
X56169744Y-141425338D01*
X56425338Y-141169744D01*
X56626156Y-140869199D01*
X56764482Y-140535250D01*
X56835000Y-140180732D01*
X56835000Y-140021138D01*
X70597236Y-140021138D01*
X70762340Y-140029791D01*
X71000000Y-140267451D01*
X71237660Y-140029791D01*
X70597236Y-140021138D01*
X89597236Y-140021138D01*
X89762340Y-140029791D01*
X90000000Y-140267451D01*
X90237660Y-140029791D01*
X89597236Y-140021138D01*
X109597236Y-140021138D01*
X109762340Y-140029791D01*
X110000000Y-140267451D01*
X110237660Y-140029791D01*
X109597236Y-140021138D01*
X128597236Y-140021138D01*
X128762340Y-140029791D01*
X129000000Y-140267451D01*
X129128183Y-140139268D01*
X143165000Y-140139268D01*
X143165000Y-140500732D01*
X143235518Y-140855250D01*
X143373844Y-141189199D01*
X143574662Y-141489744D01*
X143830256Y-141745338D01*
X144130801Y-141946156D01*
X144464750Y-142084482D01*
X144819268Y-142155000D01*
X145180732Y-142155000D01*
X145535250Y-142084482D01*
X145869199Y-141946156D01*
X146169744Y-141745338D01*
X146425338Y-141489744D01*
X146626156Y-141189199D01*
X146764482Y-140855250D01*
X146835000Y-140500732D01*
X146835000Y-140139268D01*
X146764482Y-139784750D01*
X146626156Y-139450801D01*
X146425338Y-139150256D01*
X146169744Y-138894662D01*
X145869199Y-138693844D01*
X145535250Y-138555518D01*
X145180732Y-138485000D01*
X144819268Y-138485000D01*
X144464750Y-138555518D01*
X144130801Y-138693844D01*
X143830256Y-138894662D01*
X143574662Y-139150256D01*
X143373844Y-139450801D01*
X143235518Y-139784750D01*
X143165000Y-140139268D01*
X129128183Y-140139268D01*
X129237660Y-140029791D01*
X128597236Y-140021138D01*
X109597236Y-140021138D01*
X89597236Y-140021138D01*
X70597236Y-140021138D01*
X56835000Y-140021138D01*
X56835000Y-139819268D01*
X56764482Y-139464750D01*
X56635254Y-139152764D01*
X72271138Y-139152764D01*
X91271138Y-139152764D01*
X111271138Y-139152764D01*
X130271138Y-139152764D01*
X130279791Y-138987660D01*
X130517451Y-138750000D01*
X130279791Y-138512340D01*
X130271138Y-139152764D01*
X111271138Y-139152764D01*
X111279791Y-138987660D01*
X111517451Y-138750000D01*
X127482549Y-138750000D01*
X127720209Y-138987660D01*
X127728862Y-138347236D01*
X127720209Y-138512340D01*
X127482549Y-138750000D01*
X111517451Y-138750000D01*
X111279791Y-138512340D01*
X111271138Y-139152764D01*
X91271138Y-139152764D01*
X91279791Y-138987660D01*
X91517451Y-138750000D01*
X108482549Y-138750000D01*
X108720209Y-138987660D01*
X108728862Y-138347236D01*
X108720209Y-138512340D01*
X108482549Y-138750000D01*
X91517451Y-138750000D01*
X91279791Y-138512340D01*
X91271138Y-139152764D01*
X72271138Y-139152764D01*
X72279791Y-138987660D01*
X72517451Y-138750000D01*
X88482549Y-138750000D01*
X88720209Y-138987660D01*
X88728862Y-138347236D01*
X88720209Y-138512340D01*
X88482549Y-138750000D01*
X72517451Y-138750000D01*
X72279791Y-138512340D01*
X72271138Y-139152764D01*
X56635254Y-139152764D01*
X56626156Y-139130801D01*
X56425338Y-138830256D01*
X56345082Y-138750000D01*
X69482549Y-138750000D01*
X69720209Y-138987660D01*
X69728862Y-138347236D01*
X69720209Y-138512340D01*
X69482549Y-138750000D01*
X56345082Y-138750000D01*
X56169744Y-138574662D01*
X55869199Y-138373844D01*
X55535250Y-138235518D01*
X55180732Y-138165000D01*
X54819268Y-138165000D01*
X54464750Y-138235518D01*
X54130801Y-138373844D01*
X53830256Y-138574662D01*
X53574662Y-138830256D01*
X53373844Y-139130801D01*
X53235518Y-139464750D01*
X53165000Y-139819268D01*
X50660000Y-139819268D01*
X50660000Y-137470209D01*
X70762340Y-137470209D01*
X71402764Y-137478862D01*
X71237660Y-137470209D01*
X89762340Y-137470209D01*
X90402764Y-137478862D01*
X90237660Y-137470209D01*
X109762340Y-137470209D01*
X110402764Y-137478862D01*
X110237660Y-137470209D01*
X128762340Y-137470209D01*
X129402764Y-137478862D01*
X129237660Y-137470209D01*
X129000000Y-137232549D01*
X128762340Y-137470209D01*
X110237660Y-137470209D01*
X110000000Y-137232549D01*
X109762340Y-137470209D01*
X90237660Y-137470209D01*
X90000000Y-137232549D01*
X89762340Y-137470209D01*
X71237660Y-137470209D01*
X71000000Y-137232549D01*
X70762340Y-137470209D01*
X50660000Y-137470209D01*
X50660000Y-119499268D01*
X53165000Y-119499268D01*
X53165000Y-119860732D01*
X53235518Y-120215250D01*
X53373844Y-120549199D01*
X53574662Y-120849744D01*
X53830256Y-121105338D01*
X54130801Y-121306156D01*
X54464750Y-121444482D01*
X54819268Y-121515000D01*
X55180732Y-121515000D01*
X55535250Y-121444482D01*
X55869199Y-121306156D01*
X56169744Y-121105338D01*
X56425338Y-120849744D01*
X56626156Y-120549199D01*
X56764482Y-120215250D01*
X56835000Y-119860732D01*
X56835000Y-119819268D01*
X143165000Y-119819268D01*
X143165000Y-120180732D01*
X143235518Y-120535250D01*
X143373844Y-120869199D01*
X143574662Y-121169744D01*
X143830256Y-121425338D01*
X144130801Y-121626156D01*
X144464750Y-121764482D01*
X144819268Y-121835000D01*
X145180732Y-121835000D01*
X145535250Y-121764482D01*
X145869199Y-121626156D01*
X146169744Y-121425338D01*
X146425338Y-121169744D01*
X146626156Y-120869199D01*
X146764482Y-120535250D01*
X146835000Y-120180732D01*
X146835000Y-119819268D01*
X146764482Y-119464750D01*
X146626156Y-119130801D01*
X146425338Y-118830256D01*
X146169744Y-118574662D01*
X145869199Y-118373844D01*
X145535250Y-118235518D01*
X145180732Y-118165000D01*
X144819268Y-118165000D01*
X144464750Y-118235518D01*
X144130801Y-118373844D01*
X143830256Y-118574662D01*
X143574662Y-118830256D01*
X143373844Y-119130801D01*
X143235518Y-119464750D01*
X143165000Y-119819268D01*
X56835000Y-119819268D01*
X56835000Y-119499268D01*
X56764482Y-119144750D01*
X56626156Y-118810801D01*
X56425338Y-118510256D01*
X56169744Y-118254662D01*
X55869199Y-118053844D01*
X55535250Y-117915518D01*
X55180732Y-117845000D01*
X54819268Y-117845000D01*
X54464750Y-117915518D01*
X54130801Y-118053844D01*
X53830256Y-118254662D01*
X53574662Y-118510256D01*
X53373844Y-118810801D01*
X53235518Y-119144750D01*
X53165000Y-119499268D01*
X50660000Y-119499268D01*
X50660000Y-113819268D01*
X53165000Y-113819268D01*
X53165000Y-114180732D01*
X53235518Y-114535250D01*
X53373844Y-114869199D01*
X53574662Y-115169744D01*
X53830256Y-115425338D01*
X54130801Y-115626156D01*
X54464750Y-115764482D01*
X54819268Y-115835000D01*
X55180732Y-115835000D01*
X55535250Y-115764482D01*
X55869199Y-115626156D01*
X56169744Y-115425338D01*
X56425338Y-115169744D01*
X56626156Y-114869199D01*
X56764482Y-114535250D01*
X56835000Y-114180732D01*
X56835000Y-114139268D01*
X143165000Y-114139268D01*
X143165000Y-114500732D01*
X143235518Y-114855250D01*
X143373844Y-115189199D01*
X143574662Y-115489744D01*
X143830256Y-115745338D01*
X144130801Y-115946156D01*
X144464750Y-116084482D01*
X144819268Y-116155000D01*
X145180732Y-116155000D01*
X145535250Y-116084482D01*
X145869199Y-115946156D01*
X146169744Y-115745338D01*
X146425338Y-115489744D01*
X146626156Y-115189199D01*
X146764482Y-114855250D01*
X146835000Y-114500732D01*
X146835000Y-114139268D01*
X146764482Y-113784750D01*
X146626156Y-113450801D01*
X146425338Y-113150256D01*
X146169744Y-112894662D01*
X145869199Y-112693844D01*
X145535250Y-112555518D01*
X145180732Y-112485000D01*
X144819268Y-112485000D01*
X144464750Y-112555518D01*
X144130801Y-112693844D01*
X143830256Y-112894662D01*
X143574662Y-113150256D01*
X143373844Y-113450801D01*
X143235518Y-113784750D01*
X143165000Y-114139268D01*
X56835000Y-114139268D01*
X56835000Y-113819268D01*
X56764482Y-113464750D01*
X56626156Y-113130801D01*
X56425338Y-112830256D01*
X56169744Y-112574662D01*
X55869199Y-112373844D01*
X55535250Y-112235518D01*
X55180732Y-112165000D01*
X54819268Y-112165000D01*
X54464750Y-112235518D01*
X54130801Y-112373844D01*
X53830256Y-112574662D01*
X53574662Y-112830256D01*
X53373844Y-113130801D01*
X53235518Y-113464750D01*
X53165000Y-113819268D01*
X50660000Y-113819268D01*
X50660000Y-93499268D01*
X53165000Y-93499268D01*
X53165000Y-93860732D01*
X53235518Y-94215250D01*
X53373844Y-94549199D01*
X53574662Y-94849744D01*
X53830256Y-95105338D01*
X54130801Y-95306156D01*
X54464750Y-95444482D01*
X54819268Y-95515000D01*
X55180732Y-95515000D01*
X55535250Y-95444482D01*
X55869199Y-95306156D01*
X56169744Y-95105338D01*
X56425338Y-94849744D01*
X56626156Y-94549199D01*
X56764482Y-94215250D01*
X56835000Y-93860732D01*
X56835000Y-93499268D01*
X56764482Y-93144750D01*
X56626156Y-92810801D01*
X56425338Y-92510256D01*
X56169744Y-92254662D01*
X55869199Y-92053844D01*
X55535250Y-91915518D01*
X55180732Y-91845000D01*
X54819268Y-91845000D01*
X54464750Y-91915518D01*
X54130801Y-92053844D01*
X53830256Y-92254662D01*
X53574662Y-92510256D01*
X53373844Y-92810801D01*
X53235518Y-93144750D01*
X53165000Y-93499268D01*
X50660000Y-93499268D01*
X50660000Y-52786323D01*
X50830497Y-52786323D01*
X50830497Y-53213677D01*
X50913870Y-53632821D01*
X51077412Y-54027645D01*
X51314837Y-54382977D01*
X51617023Y-54685163D01*
X51972355Y-54922588D01*
X52367179Y-55086130D01*
X52786323Y-55169503D01*
X53213677Y-55169503D01*
X53632821Y-55086130D01*
X54027645Y-54922588D01*
X54123312Y-54858665D01*
X60005000Y-54858665D01*
X60005000Y-55141335D01*
X60060147Y-55418574D01*
X60168320Y-55679727D01*
X60325363Y-55914759D01*
X60525241Y-56114637D01*
X60760273Y-56271680D01*
X61021426Y-56379853D01*
X61298665Y-56435000D01*
X61581335Y-56435000D01*
X61858574Y-56379853D01*
X62119727Y-56271680D01*
X62354759Y-56114637D01*
X62554637Y-55914759D01*
X62710000Y-55682241D01*
X62865363Y-55914759D01*
X63065241Y-56114637D01*
X63300273Y-56271680D01*
X63561426Y-56379853D01*
X63838665Y-56435000D01*
X64121335Y-56435000D01*
X64398574Y-56379853D01*
X64659727Y-56271680D01*
X64894759Y-56114637D01*
X65094637Y-55914759D01*
X65250000Y-55682241D01*
X65405363Y-55914759D01*
X65605241Y-56114637D01*
X65840273Y-56271680D01*
X66101426Y-56379853D01*
X66378665Y-56435000D01*
X66661335Y-56435000D01*
X66938574Y-56379853D01*
X67199727Y-56271680D01*
X67434759Y-56114637D01*
X67634637Y-55914759D01*
X67790000Y-55682241D01*
X67945363Y-55914759D01*
X68145241Y-56114637D01*
X68380273Y-56271680D01*
X68641426Y-56379853D01*
X68918665Y-56435000D01*
X69201335Y-56435000D01*
X69236439Y-56428017D01*
X70403470Y-57595049D01*
X70431183Y-57628817D01*
X70464951Y-57656530D01*
X70464953Y-57656532D01*
X70491613Y-57678411D01*
X70565941Y-57739411D01*
X70719687Y-57821589D01*
X70886510Y-57872195D01*
X71016523Y-57885000D01*
X71016533Y-57885000D01*
X71059999Y-57889281D01*
X71103465Y-57885000D01*
X72359844Y-57885000D01*
X72343470Y-57904951D01*
X69714952Y-60533470D01*
X69681185Y-60561182D01*
X69653472Y-60594950D01*
X69653469Y-60594953D01*
X69570591Y-60695940D01*
X69488413Y-60849686D01*
X69437806Y-61016509D01*
X69420720Y-61189999D01*
X69425002Y-61233478D01*
X69425001Y-68849491D01*
X69201335Y-68805000D01*
X68918665Y-68805000D01*
X68641426Y-68860147D01*
X68380273Y-68968320D01*
X68145241Y-69125363D01*
X67945363Y-69325241D01*
X67790000Y-69557759D01*
X67634637Y-69325241D01*
X67434759Y-69125363D01*
X67199727Y-68968320D01*
X66938574Y-68860147D01*
X66661335Y-68805000D01*
X66378665Y-68805000D01*
X66101426Y-68860147D01*
X65840273Y-68968320D01*
X65605241Y-69125363D01*
X65405363Y-69325241D01*
X65250000Y-69557759D01*
X65094637Y-69325241D01*
X64894759Y-69125363D01*
X64659727Y-68968320D01*
X64398574Y-68860147D01*
X64121335Y-68805000D01*
X63838665Y-68805000D01*
X63561426Y-68860147D01*
X63300273Y-68968320D01*
X63065241Y-69125363D01*
X62865363Y-69325241D01*
X62710000Y-69557759D01*
X62554637Y-69325241D01*
X62354759Y-69125363D01*
X62119727Y-68968320D01*
X61858574Y-68860147D01*
X61581335Y-68805000D01*
X61298665Y-68805000D01*
X61021426Y-68860147D01*
X60760273Y-68968320D01*
X60525241Y-69125363D01*
X60325363Y-69325241D01*
X60168320Y-69560273D01*
X60060147Y-69821426D01*
X60005000Y-70098665D01*
X60005000Y-70381335D01*
X60060147Y-70658574D01*
X60168320Y-70919727D01*
X60325363Y-71154759D01*
X60525241Y-71354637D01*
X60760273Y-71511680D01*
X61021426Y-71619853D01*
X61298665Y-71675000D01*
X61581335Y-71675000D01*
X61858574Y-71619853D01*
X62119727Y-71511680D01*
X62354759Y-71354637D01*
X62554637Y-71154759D01*
X62710000Y-70922241D01*
X62865363Y-71154759D01*
X63065241Y-71354637D01*
X63300273Y-71511680D01*
X63561426Y-71619853D01*
X63838665Y-71675000D01*
X64121335Y-71675000D01*
X64398574Y-71619853D01*
X64659727Y-71511680D01*
X64894759Y-71354637D01*
X65094637Y-71154759D01*
X65250000Y-70922241D01*
X65405363Y-71154759D01*
X65605241Y-71354637D01*
X65840273Y-71511680D01*
X66101426Y-71619853D01*
X66378665Y-71675000D01*
X66661335Y-71675000D01*
X66938574Y-71619853D01*
X67199727Y-71511680D01*
X67375001Y-71394566D01*
X67375002Y-91216522D01*
X67370720Y-91260001D01*
X67387806Y-91433491D01*
X67438413Y-91600314D01*
X67520591Y-91754060D01*
X67603469Y-91855047D01*
X67603472Y-91855050D01*
X67631185Y-91888818D01*
X67664952Y-91916530D01*
X69361928Y-93613507D01*
X69361928Y-95000000D01*
X69374188Y-95124482D01*
X69410498Y-95244180D01*
X69469463Y-95354494D01*
X69548815Y-95451185D01*
X69645506Y-95530537D01*
X69755820Y-95589502D01*
X69875518Y-95625812D01*
X70000000Y-95638072D01*
X72000000Y-95638072D01*
X72124482Y-95625812D01*
X72244180Y-95589502D01*
X72354494Y-95530537D01*
X72451185Y-95451185D01*
X72530537Y-95354494D01*
X72589502Y-95244180D01*
X72625812Y-95124482D01*
X72638072Y-95000000D01*
X72638072Y-93000000D01*
X72625812Y-92875518D01*
X72589502Y-92755820D01*
X72530537Y-92645506D01*
X72451185Y-92548815D01*
X72354494Y-92469463D01*
X72244180Y-92410498D01*
X72124482Y-92374188D01*
X72000000Y-92361928D01*
X70613507Y-92361928D01*
X69145001Y-90893423D01*
X69145001Y-86027324D01*
X69195250Y-86027000D01*
X69227000Y-85995250D01*
X69227000Y-85773000D01*
X69145001Y-85773000D01*
X69145001Y-84227000D01*
X69227000Y-84227000D01*
X69227000Y-84004750D01*
X70773000Y-84004750D01*
X70773000Y-84227000D01*
X70900000Y-84227000D01*
X70900000Y-85773000D01*
X70773000Y-85773000D01*
X70773000Y-85995250D01*
X70804750Y-86027000D01*
X70900000Y-86027614D01*
X70900000Y-86373002D01*
X71027000Y-86373002D01*
X71027000Y-85906234D01*
X71027614Y-85900000D01*
X71027000Y-85804750D01*
X71027000Y-85261786D01*
X71063989Y-85447743D01*
X71179701Y-85727095D01*
X71347688Y-85978505D01*
X71561495Y-86192312D01*
X71812905Y-86360299D01*
X72092257Y-86476011D01*
X72388816Y-86535000D01*
X72691184Y-86535000D01*
X72987743Y-86476011D01*
X73267095Y-86360299D01*
X73518505Y-86192312D01*
X73732312Y-85978505D01*
X73900299Y-85727095D01*
X74016011Y-85447743D01*
X74075000Y-85151184D01*
X74075000Y-84848816D01*
X74016011Y-84552257D01*
X73900299Y-84272905D01*
X73732312Y-84021495D01*
X73518505Y-83807688D01*
X73267095Y-83639701D01*
X72987743Y-83523989D01*
X72691184Y-83465000D01*
X72388816Y-83465000D01*
X72092257Y-83523989D01*
X71812905Y-83639701D01*
X71561495Y-83807688D01*
X71347688Y-84021495D01*
X71179701Y-84272905D01*
X71063989Y-84552257D01*
X71027000Y-84738214D01*
X71027000Y-84195250D01*
X71027614Y-84100000D01*
X71027000Y-84093766D01*
X71027000Y-83626998D01*
X70900000Y-83626998D01*
X70900000Y-83972386D01*
X70804750Y-83973000D01*
X70773000Y-84004750D01*
X69227000Y-84004750D01*
X69195250Y-83973000D01*
X69145001Y-83972676D01*
X69145001Y-77583354D01*
X69196063Y-77659774D01*
X69340226Y-77803937D01*
X69509744Y-77917205D01*
X69698102Y-77995226D01*
X69898061Y-78035000D01*
X70101939Y-78035000D01*
X70301898Y-77995226D01*
X70490256Y-77917205D01*
X70659774Y-77803937D01*
X70803937Y-77659774D01*
X70917205Y-77490256D01*
X70995226Y-77301898D01*
X71035000Y-77101939D01*
X71035000Y-76898061D01*
X70995226Y-76698102D01*
X70917205Y-76509744D01*
X70885000Y-76461546D01*
X70885000Y-76123803D01*
X70943468Y-76195046D01*
X70943471Y-76195049D01*
X70971184Y-76228817D01*
X71004952Y-76256530D01*
X88361928Y-93613507D01*
X88361928Y-95000000D01*
X88374188Y-95124482D01*
X88410498Y-95244180D01*
X88469463Y-95354494D01*
X88548815Y-95451185D01*
X88645506Y-95530537D01*
X88755820Y-95589502D01*
X88875518Y-95625812D01*
X89000000Y-95638072D01*
X91000000Y-95638072D01*
X91124482Y-95625812D01*
X91244180Y-95589502D01*
X91354494Y-95530537D01*
X91451185Y-95451185D01*
X91530537Y-95354494D01*
X91589502Y-95244180D01*
X91625812Y-95124482D01*
X91638072Y-95000000D01*
X91638072Y-93000000D01*
X91625812Y-92875518D01*
X91589502Y-92755820D01*
X91530537Y-92645506D01*
X91451185Y-92548815D01*
X91354494Y-92469463D01*
X91244180Y-92410498D01*
X91124482Y-92374188D01*
X91000000Y-92361928D01*
X89613507Y-92361928D01*
X87922563Y-90670984D01*
X88005941Y-90739411D01*
X88159687Y-90821589D01*
X88326510Y-90872195D01*
X88456523Y-90885000D01*
X88456531Y-90885000D01*
X88500000Y-90889281D01*
X88543469Y-90885000D01*
X105633422Y-90885000D01*
X108361928Y-93613507D01*
X108361928Y-95000000D01*
X108374188Y-95124482D01*
X108410498Y-95244180D01*
X108469463Y-95354494D01*
X108548815Y-95451185D01*
X108645506Y-95530537D01*
X108755820Y-95589502D01*
X108875518Y-95625812D01*
X109000000Y-95638072D01*
X111000000Y-95638072D01*
X111124482Y-95625812D01*
X111244180Y-95589502D01*
X111354494Y-95530537D01*
X111451185Y-95451185D01*
X111530537Y-95354494D01*
X111589502Y-95244180D01*
X111625812Y-95124482D01*
X111638072Y-95000000D01*
X111638072Y-93000000D01*
X111625812Y-92875518D01*
X111589502Y-92755820D01*
X111530537Y-92645506D01*
X111451185Y-92548815D01*
X111354494Y-92469463D01*
X111244180Y-92410498D01*
X111124482Y-92374188D01*
X111000000Y-92361928D01*
X109613507Y-92361928D01*
X106656534Y-89404956D01*
X106628817Y-89371183D01*
X106494059Y-89260589D01*
X106340313Y-89178411D01*
X106173490Y-89127805D01*
X106043477Y-89115000D01*
X106043469Y-89115000D01*
X106000000Y-89110719D01*
X105956531Y-89115000D01*
X88866579Y-89115000D01*
X88422564Y-88670985D01*
X88476452Y-88715210D01*
X88505941Y-88739411D01*
X88659687Y-88821589D01*
X88826510Y-88872195D01*
X88956523Y-88885000D01*
X88956533Y-88885000D01*
X88999999Y-88889281D01*
X89043466Y-88885000D01*
X122633422Y-88885000D01*
X127361928Y-93613507D01*
X127361928Y-95000000D01*
X127374188Y-95124482D01*
X127410498Y-95244180D01*
X127469463Y-95354494D01*
X127548815Y-95451185D01*
X127645506Y-95530537D01*
X127755820Y-95589502D01*
X127875518Y-95625812D01*
X128000000Y-95638072D01*
X130000000Y-95638072D01*
X130124482Y-95625812D01*
X130244180Y-95589502D01*
X130354494Y-95530537D01*
X130451185Y-95451185D01*
X130530537Y-95354494D01*
X130589502Y-95244180D01*
X130625812Y-95124482D01*
X130638072Y-95000000D01*
X130638072Y-93819268D01*
X143165000Y-93819268D01*
X143165000Y-94180732D01*
X143235518Y-94535250D01*
X143373844Y-94869199D01*
X143574662Y-95169744D01*
X143830256Y-95425338D01*
X144130801Y-95626156D01*
X144464750Y-95764482D01*
X144819268Y-95835000D01*
X145180732Y-95835000D01*
X145535250Y-95764482D01*
X145869199Y-95626156D01*
X146169744Y-95425338D01*
X146425338Y-95169744D01*
X146626156Y-94869199D01*
X146764482Y-94535250D01*
X146835000Y-94180732D01*
X146835000Y-93819268D01*
X146764482Y-93464750D01*
X146626156Y-93130801D01*
X146425338Y-92830256D01*
X146169744Y-92574662D01*
X145869199Y-92373844D01*
X145535250Y-92235518D01*
X145180732Y-92165000D01*
X144819268Y-92165000D01*
X144464750Y-92235518D01*
X144130801Y-92373844D01*
X143830256Y-92574662D01*
X143574662Y-92830256D01*
X143373844Y-93130801D01*
X143235518Y-93464750D01*
X143165000Y-93819268D01*
X130638072Y-93819268D01*
X130638072Y-93000000D01*
X130625812Y-92875518D01*
X130589502Y-92755820D01*
X130530537Y-92645506D01*
X130451185Y-92548815D01*
X130354494Y-92469463D01*
X130244180Y-92410498D01*
X130124482Y-92374188D01*
X130000000Y-92361928D01*
X128613507Y-92361928D01*
X123656534Y-87404956D01*
X123628817Y-87371183D01*
X123494059Y-87260589D01*
X123340313Y-87178411D01*
X123173490Y-87127805D01*
X123043477Y-87115000D01*
X123043469Y-87115000D01*
X123000000Y-87110719D01*
X122956531Y-87115000D01*
X89366579Y-87115000D01*
X88227000Y-85975421D01*
X88227000Y-85773000D01*
X88024579Y-85773000D01*
X86351579Y-84100000D01*
X87972386Y-84100000D01*
X87973000Y-84195250D01*
X88004750Y-84227000D01*
X88227000Y-84227000D01*
X88227000Y-84004750D01*
X89773000Y-84004750D01*
X89773000Y-84227000D01*
X89900000Y-84227000D01*
X89900000Y-85773000D01*
X89773000Y-85773000D01*
X89773000Y-85995250D01*
X89804750Y-86027000D01*
X89900000Y-86027614D01*
X89900000Y-86373002D01*
X90027000Y-86373002D01*
X90027000Y-85906234D01*
X90027614Y-85900000D01*
X90027000Y-85804750D01*
X90027000Y-85261786D01*
X90063989Y-85447743D01*
X90179701Y-85727095D01*
X90347688Y-85978505D01*
X90561495Y-86192312D01*
X90812905Y-86360299D01*
X91092257Y-86476011D01*
X91388816Y-86535000D01*
X91691184Y-86535000D01*
X91987743Y-86476011D01*
X92267095Y-86360299D01*
X92518505Y-86192312D01*
X92732312Y-85978505D01*
X92784767Y-85900000D01*
X107972386Y-85900000D01*
X107974838Y-85924896D01*
X107982100Y-85948836D01*
X107993893Y-85970899D01*
X108009763Y-85990237D01*
X108029101Y-86006107D01*
X108051164Y-86017900D01*
X108075104Y-86025162D01*
X108100000Y-86027614D01*
X108195250Y-86027000D01*
X108227000Y-85995250D01*
X108227000Y-85773000D01*
X108004750Y-85773000D01*
X107973000Y-85804750D01*
X107972386Y-85900000D01*
X92784767Y-85900000D01*
X92900299Y-85727095D01*
X93016011Y-85447743D01*
X93075000Y-85151184D01*
X93075000Y-84848816D01*
X93016011Y-84552257D01*
X92900299Y-84272905D01*
X92784768Y-84100000D01*
X107972386Y-84100000D01*
X107973000Y-84195250D01*
X108004750Y-84227000D01*
X108227000Y-84227000D01*
X108227000Y-84004750D01*
X109773000Y-84004750D01*
X109773000Y-84227000D01*
X109900000Y-84227000D01*
X109900000Y-85773000D01*
X109773000Y-85773000D01*
X109773000Y-85995250D01*
X109804750Y-86027000D01*
X109900000Y-86027614D01*
X109900000Y-86373002D01*
X110027000Y-86373002D01*
X110027000Y-85906234D01*
X110027614Y-85900000D01*
X110027000Y-85804750D01*
X110027000Y-85261786D01*
X110063989Y-85447743D01*
X110179701Y-85727095D01*
X110347688Y-85978505D01*
X110561495Y-86192312D01*
X110812905Y-86360299D01*
X111092257Y-86476011D01*
X111388816Y-86535000D01*
X111691184Y-86535000D01*
X111987743Y-86476011D01*
X112267095Y-86360299D01*
X112518505Y-86192312D01*
X112732312Y-85978505D01*
X112784767Y-85900000D01*
X126972386Y-85900000D01*
X126974838Y-85924896D01*
X126982100Y-85948836D01*
X126993893Y-85970899D01*
X127009763Y-85990237D01*
X127029101Y-86006107D01*
X127051164Y-86017900D01*
X127075104Y-86025162D01*
X127100000Y-86027614D01*
X127195250Y-86027000D01*
X127227000Y-85995250D01*
X127227000Y-85773000D01*
X127004750Y-85773000D01*
X126973000Y-85804750D01*
X126972386Y-85900000D01*
X112784767Y-85900000D01*
X112900299Y-85727095D01*
X113016011Y-85447743D01*
X113075000Y-85151184D01*
X113075000Y-84848816D01*
X113016011Y-84552257D01*
X112900299Y-84272905D01*
X112784768Y-84100000D01*
X126972386Y-84100000D01*
X126973000Y-84195250D01*
X127004750Y-84227000D01*
X127227000Y-84227000D01*
X127227000Y-84004750D01*
X128773000Y-84004750D01*
X128773000Y-84227000D01*
X128900000Y-84227000D01*
X128900000Y-85773000D01*
X128773000Y-85773000D01*
X128773000Y-85995250D01*
X128804750Y-86027000D01*
X128900000Y-86027614D01*
X128900000Y-86373002D01*
X129027000Y-86373002D01*
X129027000Y-85906234D01*
X129027614Y-85900000D01*
X129027000Y-85804750D01*
X129027000Y-85261786D01*
X129063989Y-85447743D01*
X129179701Y-85727095D01*
X129347688Y-85978505D01*
X129561495Y-86192312D01*
X129812905Y-86360299D01*
X130092257Y-86476011D01*
X130388816Y-86535000D01*
X130691184Y-86535000D01*
X130987743Y-86476011D01*
X131267095Y-86360299D01*
X131518505Y-86192312D01*
X131732312Y-85978505D01*
X131900299Y-85727095D01*
X132016011Y-85447743D01*
X132075000Y-85151184D01*
X132075000Y-84848816D01*
X132016011Y-84552257D01*
X131900299Y-84272905D01*
X131732312Y-84021495D01*
X131518505Y-83807688D01*
X131267095Y-83639701D01*
X130987743Y-83523989D01*
X130691184Y-83465000D01*
X130388816Y-83465000D01*
X130092257Y-83523989D01*
X129812905Y-83639701D01*
X129561495Y-83807688D01*
X129347688Y-84021495D01*
X129179701Y-84272905D01*
X129063989Y-84552257D01*
X129027000Y-84738214D01*
X129027000Y-84195250D01*
X129027614Y-84100000D01*
X129027000Y-84093766D01*
X129027000Y-83626998D01*
X128900000Y-83626998D01*
X128900000Y-83972386D01*
X128804750Y-83973000D01*
X128773000Y-84004750D01*
X127227000Y-84004750D01*
X127195250Y-83973000D01*
X127100000Y-83972386D01*
X127075104Y-83974838D01*
X127051164Y-83982100D01*
X127029101Y-83993893D01*
X127009763Y-84009763D01*
X126993893Y-84029101D01*
X126982100Y-84051164D01*
X126974838Y-84075104D01*
X126972386Y-84100000D01*
X112784768Y-84100000D01*
X112732312Y-84021495D01*
X112518505Y-83807688D01*
X112267095Y-83639701D01*
X111987743Y-83523989D01*
X111691184Y-83465000D01*
X111388816Y-83465000D01*
X111092257Y-83523989D01*
X110812905Y-83639701D01*
X110561495Y-83807688D01*
X110347688Y-84021495D01*
X110179701Y-84272905D01*
X110063989Y-84552257D01*
X110027000Y-84738214D01*
X110027000Y-84195250D01*
X110027614Y-84100000D01*
X110027000Y-84093766D01*
X110027000Y-83626998D01*
X109900000Y-83626998D01*
X109900000Y-83972386D01*
X109804750Y-83973000D01*
X109773000Y-84004750D01*
X108227000Y-84004750D01*
X108195250Y-83973000D01*
X108100000Y-83972386D01*
X108075104Y-83974838D01*
X108051164Y-83982100D01*
X108029101Y-83993893D01*
X108009763Y-84009763D01*
X107993893Y-84029101D01*
X107982100Y-84051164D01*
X107974838Y-84075104D01*
X107972386Y-84100000D01*
X92784768Y-84100000D01*
X92732312Y-84021495D01*
X92518505Y-83807688D01*
X92267095Y-83639701D01*
X91987743Y-83523989D01*
X91691184Y-83465000D01*
X91388816Y-83465000D01*
X91092257Y-83523989D01*
X90812905Y-83639701D01*
X90561495Y-83807688D01*
X90347688Y-84021495D01*
X90179701Y-84272905D01*
X90063989Y-84552257D01*
X90027000Y-84738214D01*
X90027000Y-84195250D01*
X90027614Y-84100000D01*
X90027000Y-84093766D01*
X90027000Y-83626998D01*
X89900000Y-83626998D01*
X89900000Y-83972386D01*
X89804750Y-83973000D01*
X89773000Y-84004750D01*
X88227000Y-84004750D01*
X88195250Y-83973000D01*
X88100000Y-83972386D01*
X88075104Y-83974838D01*
X88051164Y-83982100D01*
X88029101Y-83993893D01*
X88009763Y-84009763D01*
X87993893Y-84029101D01*
X87982100Y-84051164D01*
X87974838Y-84075104D01*
X87972386Y-84100000D01*
X86351579Y-84100000D01*
X77565000Y-75313422D01*
X77565000Y-75066578D01*
X80843470Y-78345049D01*
X80871183Y-78378817D01*
X80904951Y-78406530D01*
X80904953Y-78406532D01*
X80976452Y-78465210D01*
X81005941Y-78489411D01*
X81159687Y-78571589D01*
X81326510Y-78622195D01*
X81456523Y-78635000D01*
X81456533Y-78635000D01*
X81499999Y-78639281D01*
X81543466Y-78635000D01*
X85383422Y-78635000D01*
X85993465Y-79245044D01*
X86004774Y-79301898D01*
X86082795Y-79490256D01*
X86196063Y-79659774D01*
X86340226Y-79803937D01*
X86509744Y-79917205D01*
X86698102Y-79995226D01*
X86898061Y-80035000D01*
X87101939Y-80035000D01*
X87301898Y-79995226D01*
X87490256Y-79917205D01*
X87659774Y-79803937D01*
X87803937Y-79659774D01*
X87917205Y-79490256D01*
X87995226Y-79301898D01*
X88035000Y-79101939D01*
X88035000Y-78898061D01*
X87995226Y-78698102D01*
X87917205Y-78509744D01*
X87803937Y-78340226D01*
X87659774Y-78196063D01*
X87490256Y-78082795D01*
X87301898Y-78004774D01*
X87245044Y-77993465D01*
X86406534Y-77154956D01*
X86378817Y-77121183D01*
X86244059Y-77010589D01*
X86090313Y-76928411D01*
X85923490Y-76877805D01*
X85793477Y-76865000D01*
X85793469Y-76865000D01*
X85750000Y-76860719D01*
X85706531Y-76865000D01*
X81866579Y-76865000D01*
X78815001Y-73813423D01*
X78815001Y-71622553D01*
X79078665Y-71675000D01*
X79361335Y-71675000D01*
X79638574Y-71619853D01*
X79899727Y-71511680D01*
X80134759Y-71354637D01*
X80334637Y-71154759D01*
X80490000Y-70922241D01*
X80645363Y-71154759D01*
X80845241Y-71354637D01*
X81080273Y-71511680D01*
X81341426Y-71619853D01*
X81618665Y-71675000D01*
X81901335Y-71675000D01*
X82178574Y-71619853D01*
X82439727Y-71511680D01*
X82674759Y-71354637D01*
X82874637Y-71154759D01*
X83030000Y-70922241D01*
X83185363Y-71154759D01*
X83385241Y-71354637D01*
X83620273Y-71511680D01*
X83881426Y-71619853D01*
X84158665Y-71675000D01*
X84441335Y-71675000D01*
X84718574Y-71619853D01*
X84979727Y-71511680D01*
X85214759Y-71354637D01*
X85414637Y-71154759D01*
X85570000Y-70922241D01*
X85725363Y-71154759D01*
X85925241Y-71354637D01*
X86160273Y-71511680D01*
X86421426Y-71619853D01*
X86698665Y-71675000D01*
X86981335Y-71675000D01*
X87258574Y-71619853D01*
X87519727Y-71511680D01*
X87754759Y-71354637D01*
X87954637Y-71154759D01*
X88110000Y-70922241D01*
X88265363Y-71154759D01*
X88465241Y-71354637D01*
X88700273Y-71511680D01*
X88961426Y-71619853D01*
X89238665Y-71675000D01*
X89521335Y-71675000D01*
X89798574Y-71619853D01*
X90059727Y-71511680D01*
X90294759Y-71354637D01*
X90494637Y-71154759D01*
X90650000Y-70922241D01*
X90805363Y-71154759D01*
X91005241Y-71354637D01*
X91240273Y-71511680D01*
X91501426Y-71619853D01*
X91778665Y-71675000D01*
X92061335Y-71675000D01*
X92338574Y-71619853D01*
X92599727Y-71511680D01*
X92834759Y-71354637D01*
X93034637Y-71154759D01*
X93191680Y-70919727D01*
X93194466Y-70913000D01*
X93787000Y-70913000D01*
X93854196Y-70913000D01*
X95065804Y-70913000D01*
X95133000Y-70913000D01*
X95133000Y-70850041D01*
X95065804Y-70913000D01*
X93854196Y-70913000D01*
X93787000Y-70850041D01*
X93787000Y-70913000D01*
X93194466Y-70913000D01*
X93256032Y-70764366D01*
X93695560Y-70764366D01*
X93787000Y-70850041D01*
X93787000Y-70830376D01*
X95133000Y-70830376D01*
X95133000Y-70850041D01*
X95224440Y-70764366D01*
X95133000Y-70830376D01*
X93787000Y-70830376D01*
X93695560Y-70764366D01*
X93256032Y-70764366D01*
X93299853Y-70658574D01*
X93355000Y-70381335D01*
X93355000Y-70098665D01*
X95565000Y-70098665D01*
X95565000Y-70381335D01*
X95620147Y-70658574D01*
X95728320Y-70919727D01*
X95885363Y-71154759D01*
X96085241Y-71354637D01*
X96320273Y-71511680D01*
X96581426Y-71619853D01*
X96858665Y-71675000D01*
X97141335Y-71675000D01*
X97418574Y-71619853D01*
X97679727Y-71511680D01*
X97849770Y-71398061D01*
X105965000Y-71398061D01*
X105965000Y-71601939D01*
X106004774Y-71801898D01*
X106082795Y-71990256D01*
X106115000Y-72038454D01*
X106115001Y-78461544D01*
X106082795Y-78509744D01*
X106004774Y-78698102D01*
X105965000Y-78898061D01*
X105965000Y-79101939D01*
X106004774Y-79301898D01*
X106082795Y-79490256D01*
X106196063Y-79659774D01*
X106340226Y-79803937D01*
X106509744Y-79917205D01*
X106698102Y-79995226D01*
X106898061Y-80035000D01*
X107101939Y-80035000D01*
X107301898Y-79995226D01*
X107490256Y-79917205D01*
X107659774Y-79803937D01*
X107803937Y-79659774D01*
X107917205Y-79490256D01*
X107995226Y-79301898D01*
X108035000Y-79101939D01*
X108035000Y-78898061D01*
X107995226Y-78698102D01*
X107917205Y-78509744D01*
X107885000Y-78461546D01*
X107885000Y-72038454D01*
X107917205Y-71990256D01*
X107995226Y-71801898D01*
X108035000Y-71601939D01*
X108035000Y-71398061D01*
X107995226Y-71198102D01*
X107917205Y-71009744D01*
X107803937Y-70840226D01*
X107659774Y-70696063D01*
X107490256Y-70582795D01*
X107301898Y-70504774D01*
X107101939Y-70465000D01*
X106898061Y-70465000D01*
X106698102Y-70504774D01*
X106509744Y-70582795D01*
X106340226Y-70696063D01*
X106196063Y-70840226D01*
X106082795Y-71009744D01*
X106004774Y-71198102D01*
X105965000Y-71398061D01*
X97849770Y-71398061D01*
X97914759Y-71354637D01*
X98114637Y-71154759D01*
X98271680Y-70919727D01*
X98379853Y-70658574D01*
X98427850Y-70417282D01*
X103710133Y-65135000D01*
X111111928Y-65135000D01*
X111111928Y-65750000D01*
X111124188Y-65874482D01*
X111160498Y-65994180D01*
X111219463Y-66104494D01*
X111298815Y-66201185D01*
X111395506Y-66280537D01*
X111505820Y-66339502D01*
X111625518Y-66375812D01*
X111750000Y-66388072D01*
X115250000Y-66388072D01*
X115374482Y-66375812D01*
X115494180Y-66339502D01*
X115604494Y-66280537D01*
X115701185Y-66201185D01*
X115780537Y-66104494D01*
X115839502Y-65994180D01*
X115875812Y-65874482D01*
X115888072Y-65750000D01*
X115888072Y-62250000D01*
X115875812Y-62125518D01*
X115839502Y-62005820D01*
X115780537Y-61895506D01*
X115701185Y-61798815D01*
X115604494Y-61719463D01*
X115494180Y-61660498D01*
X115374482Y-61624188D01*
X115250000Y-61611928D01*
X111750000Y-61611928D01*
X111625518Y-61624188D01*
X111505820Y-61660498D01*
X111395506Y-61719463D01*
X111298815Y-61798815D01*
X111219463Y-61895506D01*
X111178506Y-61972131D01*
X111188072Y-61875000D01*
X111188072Y-60125000D01*
X111158999Y-59829814D01*
X111072896Y-59545972D01*
X111048324Y-59500000D01*
X111622386Y-59500000D01*
X111624838Y-59524896D01*
X111632100Y-59548836D01*
X111643893Y-59570899D01*
X111659763Y-59590237D01*
X111679101Y-59606107D01*
X111701164Y-59617900D01*
X111725104Y-59625162D01*
X111750000Y-59627614D01*
X112095250Y-59627000D01*
X112127000Y-59595250D01*
X112127000Y-59373000D01*
X114873000Y-59373000D01*
X114873000Y-59595250D01*
X114904750Y-59627000D01*
X115250000Y-59627614D01*
X115274896Y-59625162D01*
X115298836Y-59617900D01*
X115320899Y-59606107D01*
X115340237Y-59590237D01*
X115356107Y-59570899D01*
X115367900Y-59548836D01*
X115375162Y-59524896D01*
X115377614Y-59500000D01*
X115377000Y-59404750D01*
X115345250Y-59373000D01*
X114873000Y-59373000D01*
X112127000Y-59373000D01*
X111654750Y-59373000D01*
X111623000Y-59404750D01*
X111622386Y-59500000D01*
X111048324Y-59500000D01*
X110933073Y-59284382D01*
X110744903Y-59055097D01*
X110515618Y-58866927D01*
X110254028Y-58727104D01*
X109970186Y-58641001D01*
X109675000Y-58611928D01*
X107925000Y-58611928D01*
X107629814Y-58641001D01*
X107345972Y-58727104D01*
X107084382Y-58866927D01*
X106855097Y-59055097D01*
X106666927Y-59284382D01*
X106527104Y-59545972D01*
X106441001Y-59829814D01*
X106411928Y-60125000D01*
X106411928Y-61875000D01*
X106441001Y-62170186D01*
X106527104Y-62454028D01*
X106666927Y-62715618D01*
X106789522Y-62865000D01*
X103295752Y-62865000D01*
X103240000Y-62859509D01*
X103017501Y-62881423D01*
X102803553Y-62946324D01*
X102606377Y-63051716D01*
X102476856Y-63158011D01*
X102476854Y-63158013D01*
X102433551Y-63193551D01*
X102398013Y-63236854D01*
X96822718Y-68812150D01*
X96581426Y-68860147D01*
X96320273Y-68968320D01*
X96085241Y-69125363D01*
X95885363Y-69325241D01*
X95728320Y-69560273D01*
X95620147Y-69821426D01*
X95565000Y-70098665D01*
X93355000Y-70098665D01*
X93299853Y-69821426D01*
X93256033Y-69715634D01*
X93695560Y-69715634D01*
X93787000Y-69649624D01*
X95133000Y-69649624D01*
X95224440Y-69715634D01*
X95133000Y-69629959D01*
X95133000Y-69649624D01*
X93787000Y-69649624D01*
X93787000Y-69629959D01*
X93695560Y-69715634D01*
X93256033Y-69715634D01*
X93194467Y-69567000D01*
X93787000Y-69567000D01*
X93787000Y-69629959D01*
X93854196Y-69567000D01*
X95065804Y-69567000D01*
X95133000Y-69629959D01*
X95133000Y-69567000D01*
X95065804Y-69567000D01*
X93854196Y-69567000D01*
X93787000Y-69567000D01*
X93194467Y-69567000D01*
X93191680Y-69560273D01*
X93034637Y-69325241D01*
X92834759Y-69125363D01*
X92599727Y-68968320D01*
X92338574Y-68860147D01*
X92061335Y-68805000D01*
X91778665Y-68805000D01*
X91501426Y-68860147D01*
X91240273Y-68968320D01*
X91005241Y-69125363D01*
X90805363Y-69325241D01*
X90650000Y-69557759D01*
X90494637Y-69325241D01*
X90294759Y-69125363D01*
X90059727Y-68968320D01*
X89798574Y-68860147D01*
X89521335Y-68805000D01*
X89238665Y-68805000D01*
X88961426Y-68860147D01*
X88700273Y-68968320D01*
X88465241Y-69125363D01*
X88265363Y-69325241D01*
X88110000Y-69557759D01*
X87954637Y-69325241D01*
X87754759Y-69125363D01*
X87519727Y-68968320D01*
X87258574Y-68860147D01*
X86981335Y-68805000D01*
X86698665Y-68805000D01*
X86421426Y-68860147D01*
X86160273Y-68968320D01*
X85925241Y-69125363D01*
X85725363Y-69325241D01*
X85570000Y-69557759D01*
X85414637Y-69325241D01*
X85214759Y-69125363D01*
X84979727Y-68968320D01*
X84718574Y-68860147D01*
X84441335Y-68805000D01*
X84158665Y-68805000D01*
X83881426Y-68860147D01*
X83620273Y-68968320D01*
X83385241Y-69125363D01*
X83185363Y-69325241D01*
X83030000Y-69557759D01*
X82874637Y-69325241D01*
X82674759Y-69125363D01*
X82439727Y-68968320D01*
X82178574Y-68860147D01*
X81901335Y-68805000D01*
X81618665Y-68805000D01*
X81341426Y-68860147D01*
X81080273Y-68968320D01*
X80845241Y-69125363D01*
X80645363Y-69325241D01*
X80490000Y-69557759D01*
X80334637Y-69325241D01*
X80134759Y-69125363D01*
X79899727Y-68968320D01*
X79638574Y-68860147D01*
X79361335Y-68805000D01*
X79078665Y-68805000D01*
X78815001Y-68857447D01*
X78815001Y-68473470D01*
X78819282Y-68430001D01*
X78815001Y-68386532D01*
X78815001Y-68386524D01*
X78802196Y-68256511D01*
X78751590Y-68089687D01*
X78669412Y-67935942D01*
X78586533Y-67834954D01*
X78586531Y-67834952D01*
X78558818Y-67801184D01*
X78525051Y-67773472D01*
X77006535Y-66254957D01*
X76995226Y-66198102D01*
X76917205Y-66009744D01*
X76803937Y-65840226D01*
X76659774Y-65696063D01*
X76490256Y-65582795D01*
X76301898Y-65504774D01*
X76101939Y-65465000D01*
X75898061Y-65465000D01*
X75698102Y-65504774D01*
X75509744Y-65582795D01*
X75340226Y-65696063D01*
X75196063Y-65840226D01*
X75082795Y-66009744D01*
X75004774Y-66198102D01*
X74965000Y-66398061D01*
X74965000Y-66601939D01*
X75004774Y-66801898D01*
X75082795Y-66990256D01*
X75196063Y-67159774D01*
X75340226Y-67303937D01*
X75509744Y-67417205D01*
X75698102Y-67495226D01*
X75754957Y-67506535D01*
X77045001Y-68796580D01*
X77045001Y-68849491D01*
X76821335Y-68805000D01*
X76538665Y-68805000D01*
X76261426Y-68860147D01*
X76000273Y-68968320D01*
X75765241Y-69125363D01*
X75565363Y-69325241D01*
X75410000Y-69557759D01*
X75254637Y-69325241D01*
X75054759Y-69125363D01*
X74819727Y-68968320D01*
X74558574Y-68860147D01*
X74281335Y-68805000D01*
X73998665Y-68805000D01*
X73721426Y-68860147D01*
X73460273Y-68968320D01*
X73225241Y-69125363D01*
X73025363Y-69325241D01*
X72870000Y-69557759D01*
X72714637Y-69325241D01*
X72514759Y-69125363D01*
X72279727Y-68968320D01*
X72018574Y-68860147D01*
X71741335Y-68805000D01*
X71458665Y-68805000D01*
X71195001Y-68857447D01*
X71195001Y-61556577D01*
X73366579Y-59385000D01*
X75961546Y-59385000D01*
X76009744Y-59417205D01*
X76198102Y-59495226D01*
X76398061Y-59535000D01*
X76601939Y-59535000D01*
X76801898Y-59495226D01*
X76990256Y-59417205D01*
X77159774Y-59303937D01*
X77303937Y-59159774D01*
X77417205Y-58990256D01*
X77495226Y-58801898D01*
X77535000Y-58601939D01*
X77535000Y-58398061D01*
X77495226Y-58198102D01*
X77417205Y-58009744D01*
X77333854Y-57885000D01*
X81666146Y-57885000D01*
X81582795Y-58009744D01*
X81504774Y-58198102D01*
X81465000Y-58398061D01*
X81465000Y-58601939D01*
X81504774Y-58801898D01*
X81582795Y-58990256D01*
X81696063Y-59159774D01*
X81840226Y-59303937D01*
X82009744Y-59417205D01*
X82198102Y-59495226D01*
X82398061Y-59535000D01*
X82601939Y-59535000D01*
X82801898Y-59495226D01*
X82990256Y-59417205D01*
X83038454Y-59385000D01*
X87461546Y-59385000D01*
X87509744Y-59417205D01*
X87698102Y-59495226D01*
X87898061Y-59535000D01*
X88101939Y-59535000D01*
X88301898Y-59495226D01*
X88490256Y-59417205D01*
X88659774Y-59303937D01*
X88803937Y-59159774D01*
X88917205Y-58990256D01*
X88995226Y-58801898D01*
X89035000Y-58601939D01*
X89035000Y-58398061D01*
X88995226Y-58198102D01*
X88917205Y-58009744D01*
X88833854Y-57885000D01*
X107706531Y-57885000D01*
X107750000Y-57889281D01*
X107793469Y-57885000D01*
X107793477Y-57885000D01*
X107923490Y-57872195D01*
X108090313Y-57821589D01*
X108244059Y-57739411D01*
X108378817Y-57628817D01*
X108406534Y-57595044D01*
X109501578Y-56500000D01*
X111622386Y-56500000D01*
X111623000Y-56595250D01*
X111654750Y-56627000D01*
X112127000Y-56627000D01*
X112127000Y-56404750D01*
X114873000Y-56404750D01*
X114873000Y-56627000D01*
X115345250Y-56627000D01*
X115377000Y-56595250D01*
X115377614Y-56500000D01*
X115375162Y-56475104D01*
X115367900Y-56451164D01*
X115356107Y-56429101D01*
X115340237Y-56409763D01*
X115320899Y-56393893D01*
X115298836Y-56382100D01*
X115274896Y-56374838D01*
X115250000Y-56372386D01*
X114904750Y-56373000D01*
X114873000Y-56404750D01*
X112127000Y-56404750D01*
X112095250Y-56373000D01*
X111750000Y-56372386D01*
X111725104Y-56374838D01*
X111701164Y-56382100D01*
X111679101Y-56393893D01*
X111659763Y-56409763D01*
X111643893Y-56429101D01*
X111632100Y-56451164D01*
X111624838Y-56475104D01*
X111622386Y-56500000D01*
X109501578Y-56500000D01*
X109866579Y-56135000D01*
X116383422Y-56135000D01*
X125115000Y-64866579D01*
X125115001Y-78461544D01*
X125082795Y-78509744D01*
X125004774Y-78698102D01*
X124965000Y-78898061D01*
X124965000Y-79101939D01*
X125004774Y-79301898D01*
X125082795Y-79490256D01*
X125196063Y-79659774D01*
X125340226Y-79803937D01*
X125509744Y-79917205D01*
X125698102Y-79995226D01*
X125898061Y-80035000D01*
X126101939Y-80035000D01*
X126301898Y-79995226D01*
X126490256Y-79917205D01*
X126659774Y-79803937D01*
X126803937Y-79659774D01*
X126917205Y-79490256D01*
X126995226Y-79301898D01*
X127035000Y-79101939D01*
X127035000Y-78898061D01*
X126995226Y-78698102D01*
X126917205Y-78509744D01*
X126885000Y-78461546D01*
X126885000Y-64543465D01*
X126889281Y-64499999D01*
X126885000Y-64456533D01*
X126885000Y-64456523D01*
X126872195Y-64326510D01*
X126821589Y-64159687D01*
X126739411Y-64005941D01*
X126628817Y-63871183D01*
X126595051Y-63843472D01*
X117406534Y-54654956D01*
X117378817Y-54621183D01*
X117244059Y-54510589D01*
X117090313Y-54428411D01*
X116923490Y-54377805D01*
X116793477Y-54365000D01*
X116793469Y-54365000D01*
X116750000Y-54360719D01*
X116706531Y-54365000D01*
X109543469Y-54365000D01*
X109500000Y-54360719D01*
X109456531Y-54365000D01*
X109456523Y-54365000D01*
X109326510Y-54377805D01*
X109159687Y-54428411D01*
X109071338Y-54475634D01*
X109005941Y-54510589D01*
X108904953Y-54593468D01*
X108904951Y-54593470D01*
X108871183Y-54621183D01*
X108843470Y-54654951D01*
X107383422Y-56115000D01*
X98351647Y-56115000D01*
X98389502Y-56044180D01*
X98425812Y-55924482D01*
X98438072Y-55800000D01*
X98438072Y-54200000D01*
X98425812Y-54075518D01*
X98389502Y-53955820D01*
X98330537Y-53845506D01*
X98251185Y-53748815D01*
X98154494Y-53669463D01*
X98044180Y-53610498D01*
X97924482Y-53574188D01*
X97800000Y-53561928D01*
X96200000Y-53561928D01*
X96075518Y-53574188D01*
X95955820Y-53610498D01*
X95845506Y-53669463D01*
X95748815Y-53748815D01*
X95669463Y-53845506D01*
X95610498Y-53955820D01*
X95574188Y-54075518D01*
X95573357Y-54083961D01*
X95374759Y-53885363D01*
X95139727Y-53728320D01*
X94878574Y-53620147D01*
X94601335Y-53565000D01*
X94318665Y-53565000D01*
X94041426Y-53620147D01*
X93780273Y-53728320D01*
X93545241Y-53885363D01*
X93345363Y-54085241D01*
X93190000Y-54317759D01*
X93034637Y-54085241D01*
X92834759Y-53885363D01*
X92599727Y-53728320D01*
X92338574Y-53620147D01*
X92061335Y-53565000D01*
X91778665Y-53565000D01*
X91501426Y-53620147D01*
X91240273Y-53728320D01*
X91005241Y-53885363D01*
X90805363Y-54085241D01*
X90648320Y-54320273D01*
X90540147Y-54581426D01*
X90485000Y-54858665D01*
X90485000Y-55141335D01*
X90540147Y-55418574D01*
X90648320Y-55679727D01*
X90805363Y-55914759D01*
X91005241Y-56114637D01*
X91005784Y-56115000D01*
X87754216Y-56115000D01*
X87754759Y-56114637D01*
X87954637Y-55914759D01*
X88111680Y-55679727D01*
X88114466Y-55673000D01*
X88707000Y-55673000D01*
X88774196Y-55673000D01*
X89985804Y-55673000D01*
X90053000Y-55673000D01*
X90053000Y-55610041D01*
X89985804Y-55673000D01*
X88774196Y-55673000D01*
X88707000Y-55610041D01*
X88707000Y-55673000D01*
X88114466Y-55673000D01*
X88176032Y-55524366D01*
X88615560Y-55524366D01*
X88707000Y-55610041D01*
X88707000Y-55590376D01*
X90053000Y-55590376D01*
X90053000Y-55610041D01*
X90144440Y-55524366D01*
X90053000Y-55590376D01*
X88707000Y-55590376D01*
X88615560Y-55524366D01*
X88176032Y-55524366D01*
X88219853Y-55418574D01*
X88275000Y-55141335D01*
X88275000Y-54858665D01*
X88219853Y-54581426D01*
X88176033Y-54475634D01*
X88615560Y-54475634D01*
X88707000Y-54409624D01*
X90053000Y-54409624D01*
X90144440Y-54475634D01*
X90053000Y-54389959D01*
X90053000Y-54409624D01*
X88707000Y-54409624D01*
X88707000Y-54389959D01*
X88615560Y-54475634D01*
X88176033Y-54475634D01*
X88114467Y-54327000D01*
X88707000Y-54327000D01*
X88707000Y-54389959D01*
X88774196Y-54327000D01*
X89985804Y-54327000D01*
X90053000Y-54389959D01*
X90053000Y-54327000D01*
X89985804Y-54327000D01*
X88774196Y-54327000D01*
X88707000Y-54327000D01*
X88114467Y-54327000D01*
X88111680Y-54320273D01*
X87954637Y-54085241D01*
X87754759Y-53885363D01*
X87519727Y-53728320D01*
X87258574Y-53620147D01*
X86981335Y-53565000D01*
X86698665Y-53565000D01*
X86421426Y-53620147D01*
X86160273Y-53728320D01*
X85925241Y-53885363D01*
X85725363Y-54085241D01*
X85570000Y-54317759D01*
X85414637Y-54085241D01*
X85214759Y-53885363D01*
X84979727Y-53728320D01*
X84718574Y-53620147D01*
X84441335Y-53565000D01*
X84158665Y-53565000D01*
X83881426Y-53620147D01*
X83620273Y-53728320D01*
X83385241Y-53885363D01*
X83185363Y-54085241D01*
X83030000Y-54317759D01*
X82874637Y-54085241D01*
X82674759Y-53885363D01*
X82439727Y-53728320D01*
X82178574Y-53620147D01*
X81901335Y-53565000D01*
X81618665Y-53565000D01*
X81341426Y-53620147D01*
X81080273Y-53728320D01*
X80845241Y-53885363D01*
X80645363Y-54085241D01*
X80490000Y-54317759D01*
X80334637Y-54085241D01*
X80134759Y-53885363D01*
X79899727Y-53728320D01*
X79638574Y-53620147D01*
X79361335Y-53565000D01*
X79078665Y-53565000D01*
X78801426Y-53620147D01*
X78540273Y-53728320D01*
X78305241Y-53885363D01*
X78105363Y-54085241D01*
X77950000Y-54317759D01*
X77794637Y-54085241D01*
X77594759Y-53885363D01*
X77359727Y-53728320D01*
X77098574Y-53620147D01*
X76821335Y-53565000D01*
X76538665Y-53565000D01*
X76261426Y-53620147D01*
X76000273Y-53728320D01*
X75765241Y-53885363D01*
X75565363Y-54085241D01*
X75410000Y-54317759D01*
X75254637Y-54085241D01*
X75054759Y-53885363D01*
X74819727Y-53728320D01*
X74558574Y-53620147D01*
X74285709Y-53565870D01*
X74966579Y-52885000D01*
X90961546Y-52885000D01*
X91009744Y-52917205D01*
X91198102Y-52995226D01*
X91398061Y-53035000D01*
X91601939Y-53035000D01*
X91801898Y-52995226D01*
X91990256Y-52917205D01*
X92159774Y-52803937D01*
X92177388Y-52786323D01*
X144830497Y-52786323D01*
X144830497Y-53213677D01*
X144913870Y-53632821D01*
X145077412Y-54027645D01*
X145314837Y-54382977D01*
X145617023Y-54685163D01*
X145972355Y-54922588D01*
X146367179Y-55086130D01*
X146786323Y-55169503D01*
X147213677Y-55169503D01*
X147632821Y-55086130D01*
X148027645Y-54922588D01*
X148382977Y-54685163D01*
X148685163Y-54382977D01*
X148922588Y-54027645D01*
X149086130Y-53632821D01*
X149169503Y-53213677D01*
X149169503Y-52786323D01*
X149086130Y-52367179D01*
X148922588Y-51972355D01*
X148685163Y-51617023D01*
X148382977Y-51314837D01*
X148027645Y-51077412D01*
X147632821Y-50913870D01*
X147213677Y-50830497D01*
X146786323Y-50830497D01*
X146367179Y-50913870D01*
X145972355Y-51077412D01*
X145617023Y-51314837D01*
X145314837Y-51617023D01*
X145077412Y-51972355D01*
X144913870Y-52367179D01*
X144830497Y-52786323D01*
X92177388Y-52786323D01*
X92303937Y-52659774D01*
X92417205Y-52490256D01*
X92495226Y-52301898D01*
X92535000Y-52101939D01*
X92535000Y-51898061D01*
X92495226Y-51698102D01*
X92417205Y-51509744D01*
X92303937Y-51340226D01*
X92159774Y-51196063D01*
X91990256Y-51082795D01*
X91801898Y-51004774D01*
X91601939Y-50965000D01*
X91398061Y-50965000D01*
X91198102Y-51004774D01*
X91009744Y-51082795D01*
X90961546Y-51115000D01*
X74643469Y-51115000D01*
X74600000Y-51110719D01*
X74556531Y-51115000D01*
X74556523Y-51115000D01*
X74426510Y-51127805D01*
X74259686Y-51178411D01*
X74105941Y-51260589D01*
X74004953Y-51343468D01*
X74004951Y-51343470D01*
X73971183Y-51371183D01*
X73943470Y-51404951D01*
X71776439Y-53571983D01*
X71741335Y-53565000D01*
X71458665Y-53565000D01*
X71181426Y-53620147D01*
X70920273Y-53728320D01*
X70685241Y-53885363D01*
X70485363Y-54085241D01*
X70330000Y-54317759D01*
X70174637Y-54085241D01*
X69974759Y-53885363D01*
X69739727Y-53728320D01*
X69478574Y-53620147D01*
X69201335Y-53565000D01*
X68918665Y-53565000D01*
X68641426Y-53620147D01*
X68380273Y-53728320D01*
X68145241Y-53885363D01*
X67945363Y-54085241D01*
X67790000Y-54317759D01*
X67634637Y-54085241D01*
X67434759Y-53885363D01*
X67199727Y-53728320D01*
X66938574Y-53620147D01*
X66661335Y-53565000D01*
X66378665Y-53565000D01*
X66101426Y-53620147D01*
X65840273Y-53728320D01*
X65605241Y-53885363D01*
X65405363Y-54085241D01*
X65250000Y-54317759D01*
X65094637Y-54085241D01*
X64894759Y-53885363D01*
X64659727Y-53728320D01*
X64398574Y-53620147D01*
X64121335Y-53565000D01*
X63838665Y-53565000D01*
X63561426Y-53620147D01*
X63300273Y-53728320D01*
X63065241Y-53885363D01*
X62865363Y-54085241D01*
X62710000Y-54317759D01*
X62554637Y-54085241D01*
X62354759Y-53885363D01*
X62119727Y-53728320D01*
X61858574Y-53620147D01*
X61581335Y-53565000D01*
X61298665Y-53565000D01*
X61021426Y-53620147D01*
X60760273Y-53728320D01*
X60525241Y-53885363D01*
X60325363Y-54085241D01*
X60168320Y-54320273D01*
X60060147Y-54581426D01*
X60005000Y-54858665D01*
X54123312Y-54858665D01*
X54382977Y-54685163D01*
X54685163Y-54382977D01*
X54922588Y-54027645D01*
X55086130Y-53632821D01*
X55169503Y-53213677D01*
X55169503Y-52786323D01*
X55086130Y-52367179D01*
X54922588Y-51972355D01*
X54685163Y-51617023D01*
X54382977Y-51314837D01*
X54027645Y-51077412D01*
X53632821Y-50913870D01*
X53213677Y-50830497D01*
X52786323Y-50830497D01*
X52367179Y-50913870D01*
X51972355Y-51077412D01*
X51617023Y-51314837D01*
X51314837Y-51617023D01*
X51077412Y-51972355D01*
X50913870Y-52367179D01*
X50830497Y-52786323D01*
X50660000Y-52786323D01*
X50660000Y-50660000D01*
X149340001Y-50660000D01*
X149340000Y-149340000D01*
M02*
